<?xml version="1.0" encoding="UTF-8" standalone="no"?>
<!-- Created with Inkscape (http://www.inkscape.org/) -->

<svg
   version="1.1"
   id="svg1"
   width="322.23868"
   height="429.69601"
   viewBox="0 0 322.23868 429.69601"
   sodipodi:docname="diagrams-4.pdf"
   xmlns:inkscape="http://www.inkscape.org/namespaces/inkscape"
   xmlns:sodipodi="http://sodipodi.sourceforge.net/DTD/sodipodi-0.dtd"
   xmlns="http://www.w3.org/2000/svg"
   xmlns:svg="http://www.w3.org/2000/svg">
  <defs
     id="defs1" />
  <sodipodi:namedview
     id="namedview1"
     pagecolor="#ffffff"
     bordercolor="#000000"
     borderopacity="0.25"
     inkscape:showpageshadow="2"
     inkscape:pageopacity="0.0"
     inkscape:pagecheckerboard="0"
     inkscape:deskcolor="#d1d1d1">
    <inkscape:page
       x="0"
       y="0"
       inkscape:label="1"
       id="page1"
       width="322.23868"
       height="429.69601"
       margin="0"
       bleed="0" />
  </sodipodi:namedview>
  <g
     id="g1"
     inkscape:groupmode="layer"
     inkscape:label="1">
    <g
       id="g2"
       aria-label="|ψ⟩"
       transform="matrix(1.3333333,0,0,1.3333333,11.069333,142.24667)">
      <path
         id="path2"
         d="m 1.4655781,-6.3871484 c 0,-0.1523438 0,-0.3398438 -0.1875,-0.3398438 -0.1875,0 -0.1875,0.1757813 -0.1875,0.3398438 v 8.296875 c 0,0.1523437 0,0.328125 0.1875,0.328125 0.1875,0 0.1875,-0.1640625 0.1875,-0.328125 z m 0,0"
         style="fill:#000000;fill-opacity:1;fill-rule:nonzero;stroke:none" />
      <path
         id="path3"
         d="m 7.0144063,-6.1176172 c 0,-0.011719 0,-0.1054687 -0.1171875,-0.1054687 -0.1054688,0 -0.1171875,0.046875 -0.1523438,0.1875 l -1.4648437,5.89453121 c -0.6445313,-0.0820313 -1.0546875,-0.375 -1.0546875,-0.99609371 0,-0.1875 0.035156,-0.4570313 0.4570312,-1.5703125 0.070312,-0.1992188 0.1289063,-0.328125 0.1289063,-0.5039063 0,-0.4335937 -0.328125,-0.75 -0.7734375,-0.75 -0.8554688,0 -1.21875,1.2773438 -1.21875,1.3828125 0,0.082031 0.070312,0.1054688 0.1289062,0.1054688 0.09375,0 0.1054688,-0.058594 0.140625,-0.1757813 0.1875,-0.65625 0.5507813,-1.0898437 0.9257813,-1.0898437 0.1757812,0 0.2109375,0.1171875 0.2109375,0.2929687 0,0.2109375 -0.058594,0.3984375 -0.1289063,0.5976563 -0.4453125,1.1132812 -0.4921875,1.4179687 -0.4921875,1.640625 0,0.65624996 0.4335938,1.2070312125 1.6054688,1.28906246 L 4.8112813,1.7339453 c 0,0.011719 0,0.1054688 0.1171875,0.1054688 0.1054687,0 0.1171875,-0.023437 0.1640625,-0.2226563 0.1171875,-0.5039062 0.2578125,-1.00781249 0.375,-1.52343749 0.3164062,0 1.2539062,0 2.1445312,-1.11328121 0.4335938,-0.5390625 0.5859375,-0.984375 0.75,-1.8046875 0.046875,-0.2578125 0.046875,-0.3984375 0.046875,-0.4804688 0,-0.6328125 -0.3398437,-0.6679687 -0.4101562,-0.6679687 -0.234375,0 -0.4570313,0.2460937 -0.4570313,0.4453125 0,0.140625 0.070312,0.2109375 0.140625,0.2695312 0.234375,0.2226563 0.3164063,0.5039063 0.3164063,0.7382813 0,0.375 -0.2460938,1.0664062 -0.84375,1.66406246 -0.7148438,0.703125 -1.3007813,0.7265625 -1.6289063,0.7265625 z m 0,0"
         style="fill:#000000;fill-opacity:1;fill-rule:nonzero;stroke:none" />
      <path
         id="path4"
         d="m 11.403078,-2.0746484 c 0.05859,-0.1289063 0.05859,-0.1523438 0.05859,-0.1640625 0,-0.035156 0,-0.046875 -0.05859,-0.1757813 L 9.8210469,-6.5043359 c -0.070312,-0.1640625 -0.1171875,-0.2226563 -0.2226563,-0.2226563 -0.1054687,0 -0.1875,0.082031 -0.1875,0.1992188 0,0.023437 0,0.035156 0.046875,0.1640625 l 1.5937504,4.1132812 -1.5937504,4.125 c -0.046875,0.1289063 -0.046875,0.140625 -0.046875,0.1640625 0,0.1171875 0.082031,0.1875 0.1875,0.1875 0.1054688,0 0.1523438,-0.046875 0.2226563,-0.2109375 z m 0,0"
         style="fill:#000000;fill-opacity:1;fill-rule:nonzero;stroke:none" />
    </g>
    <path
       id="path5"
       d="m 123.14584,-28.3468 h 18.5882"
       style="fill:none;stroke:#000000;stroke-width:0.49814;stroke-linecap:butt;stroke-linejoin:miter;stroke-miterlimit:10;stroke-dasharray:none;stroke-opacity:1"
       transform="matrix(1.3333333,0,0,-1.3333333,-131.79333,101.46267)" />
    <path
       id="path6"
       d="M 141.73404,-113.38724 V 56.69362 h 14.1734 v -170.08086 z"
       style="fill:none;stroke:#000000;stroke-width:0.49814;stroke-linecap:butt;stroke-linejoin:miter;stroke-miterlimit:10;stroke-dasharray:none;stroke-opacity:1"
       transform="matrix(1.3333333,0,0,-1.3333333,-131.79333,101.46267)" />
    <path
       id="path7"
       d="m 2.3783438,-3.6204375 c -1.99218755,1.078125 -2.0976563,2.3671875 -2.0976563,2.6015625 0,0.76171875 0.7382813,1.2421875 1.6757813,1.2421875 1.6640625,0 3,-1.5820312 3,-1.78125 0,-0.070312 -0.046875,-0.070312 -0.09375,-0.070312 -0.1171875,0 -0.5039063,0.1289063 -0.7265625,0.4335938 -0.2109375,0.2929687 -0.6328125,0.86718745 -1.5117188,0.86718745 -0.7148437,0 -1.5,-0.375 -1.5,-1.11328125 0,-0.4921875 0.5625,-1.96875 2.1328125,-2.0273437 0.46875,-0.023437 0.8203125,-0.3632813 0.8203125,-0.4804688 0,-0.058594 -0.058594,-0.070313 -0.1054687,-0.070313 -1.40625,-0.058594 -1.6757813,-0.7382812 -1.6757813,-1.1367187 0,-0.234375 0.140625,-1.3242188 1.5351563,-1.3242188 0.1875,0 0.9492187,0.035156 0.9492187,0.5507813 0,0.1640625 -0.082031,0.3046875 -0.1171875,0.3632812 -0.023437,0.023437 -0.046875,0.082031 -0.046875,0.1054688 0,0.070312 0.070312,0.070312 0.09375,0.070312 0.3046875,0 0.9140625,-0.3867188 0.9140625,-0.9492188 0,-0.5976562 -0.6796875,-0.6796875 -1.1367187,-0.6796875 -1.3476563,0 -3.046875,1.078125 -3.046875,2.2851563 0,0.5859375 0.4570312,0.9492187 0.9375,1.1132817 z m 0,0"
       style="fill:#000000;fill-opacity:1;fill-rule:nonzero;stroke:none"
       aria-label="E"
       transform="matrix(1.3333333,0,0,1.3333333,62.532,143.796)" />
    <path
       id="path8"
       d="m 155.90744,42.5202 h 28.3468"
       style="fill:none;stroke:#000000;stroke-width:0.49814;stroke-linecap:butt;stroke-linejoin:miter;stroke-miterlimit:10;stroke-dasharray:none;stroke-opacity:1"
       transform="matrix(1.3333333,0,0,-1.3333333,-131.79333,101.46267)" />
    <path
       id="path9"
       d="m 184.25424,21.2601 v 42.5202 h 14.17342 V 21.2601 Z"
       style="fill:#e2b9b9;fill-opacity:1;fill-rule:nonzero;stroke:#000000;stroke-width:0.49814;stroke-linecap:butt;stroke-linejoin:miter;stroke-miterlimit:10;stroke-dasharray:none;stroke-opacity:1"
       transform="matrix(1.3333333,0,0,-1.3333333,-131.79333,101.46267)" />
    <path
       id="path10"
       d="m 6.2592344,-5.6714297 c 0.4804687,-0.7734375 0.9023437,-0.8085937 1.2773437,-0.8203125 0.1171875,-0.011719 0.1289063,-0.1875 0.1289063,-0.1875 0,-0.082031 -0.058594,-0.1289062 -0.1289063,-0.1289062 -0.2578125,0 -0.5507812,0.035156 -0.8203125,0.035156 -0.328125,0 -0.6679687,-0.035156 -0.984375,-0.035156 -0.058594,0 -0.1875,0 -0.1875,0.1992187 0,0.1054688 0.082031,0.1171875 0.1523438,0.1171875 0.2695312,0.011719 0.4570312,0.1171875 0.4570312,0.328125 0,0.1523438 -0.140625,0.3632813 -0.140625,0.375 L 2.9545469,-0.92533594 2.2748594,-6.1987734 c 0,-0.1640625 0.2226562,-0.2929688 0.6796875,-0.2929688 0.140625,0 0.2578125,0 0.2578125,-0.1992187 0,-0.09375 -0.082031,-0.1171875 -0.140625,-0.1171875 -0.3984375,0 -0.8320313,0.035156 -1.2421875,0.035156 -0.1757813,0 -0.3632813,-0.011719 -0.5390625,-0.011719 -0.1875,0 -0.37500003,-0.023437 -0.53906253,-0.023437 -0.0703125,0 -0.1875,0 -0.1875,0.1992187 0,0.1171875 0.0820313,0.1171875 0.24609375,0.1171875 0.55078128,0 0.56249998,0.082031 0.59765628,0.3398438 l 0.7851562,6.14062496 c 0.035156,0.19921875 0.070312,0.234375 0.1992188,0.234375 0.1640625,0 0.1992187,-0.0585938 0.28125,-0.1875 z m 0,0"
       style="fill:#000000;fill-opacity:1;fill-rule:nonzero;stroke:none"
       aria-label="V"
       transform="matrix(1.3333333,0,0,1.3333333,117.97467,49.308)" />
    <path
       id="path11"
       d="m 198.42766,56.69362 h 28.34682"
       style="fill:none;stroke:#000000;stroke-width:0.49814;stroke-linecap:butt;stroke-linejoin:miter;stroke-miterlimit:10;stroke-dasharray:none;stroke-opacity:1"
       transform="matrix(1.3333333,0,0,-1.3333333,-131.79333,101.46267)" />
    <path
       id="path12"
       d="m 198.42766,28.3468 h 28.34682"
       style="fill:none;stroke:#000000;stroke-width:0.49814;stroke-linecap:butt;stroke-linejoin:miter;stroke-miterlimit:10;stroke-dasharray:none;stroke-opacity:1"
       transform="matrix(1.3333333,0,0,-1.3333333,-131.79333,101.46267)" />
    <path
       id="path13"
       d="m 155.90744,-14.17339 h 28.3468"
       style="fill:none;stroke:#000000;stroke-width:0.49814;stroke-linecap:butt;stroke-linejoin:miter;stroke-miterlimit:10;stroke-dasharray:none;stroke-opacity:1"
       transform="matrix(1.3333333,0,0,-1.3333333,-131.79333,101.46267)" />
    <path
       id="path14"
       d="M 184.25424,-35.43349 V 7.08669 h 14.17342 v -42.52018 z"
       style="fill:#e2b9b9;fill-opacity:1;fill-rule:nonzero;stroke:#000000;stroke-width:0.49814;stroke-linecap:butt;stroke-linejoin:miter;stroke-miterlimit:10;stroke-dasharray:none;stroke-opacity:1"
       transform="matrix(1.3333333,0,0,-1.3333333,-131.79333,101.46267)" />
    <path
       id="path15"
       d="m 6.2592344,-5.6720469 c 0.4804687,-0.7734375 0.9023437,-0.8085937 1.2773437,-0.8203125 0.1171875,-0.011719 0.1289063,-0.1875 0.1289063,-0.1875 0,-0.082031 -0.058594,-0.1289062 -0.1289063,-0.1289062 -0.2578125,0 -0.5507812,0.035156 -0.8203125,0.035156 -0.328125,0 -0.6679687,-0.035156 -0.984375,-0.035156 -0.058594,0 -0.1875,0 -0.1875,0.1992187 0,0.1054688 0.082031,0.1171875 0.1523438,0.1171875 0.2695312,0.011719 0.4570312,0.1171875 0.4570312,0.328125 0,0.1523438 -0.140625,0.3632813 -0.140625,0.375 L 2.9545469,-0.92595313 2.2748594,-6.1993906 c 0,-0.1640625 0.2226562,-0.2929688 0.6796875,-0.2929688 0.140625,0 0.2578125,0 0.2578125,-0.1992187 0,-0.09375 -0.082031,-0.1171875 -0.140625,-0.1171875 -0.3984375,0 -0.8320313,0.035156 -1.2421875,0.035156 -0.1757813,0 -0.3632813,-0.011719 -0.5390625,-0.011719 -0.1875,0 -0.37500003,-0.023437 -0.53906253,-0.023437 -0.0703125,0 -0.1875,0 -0.1875,0.1992187 0,0.1171875 0.0820313,0.1171875 0.24609375,0.1171875 0.55078128,0 0.56249998,0.082031 0.59765628,0.3398438 l 0.7851562,6.14062497 c 0.035156,0.19921875 0.070312,0.234375 0.1992188,0.234375 0.1640625,0 0.1992187,-0.0585938 0.28125,-0.1875 z m 0,0"
       style="fill:#000000;fill-opacity:1;fill-rule:nonzero;stroke:none"
       aria-label="V"
       transform="matrix(1.3333333,0,0,1.3333333,117.97467,124.89867)" />
    <path
       id="path16"
       d="m 198.42766,0 h 28.34682"
       style="fill:none;stroke:#000000;stroke-width:0.49814;stroke-linecap:butt;stroke-linejoin:miter;stroke-miterlimit:10;stroke-dasharray:none;stroke-opacity:1"
       transform="matrix(1.3333333,0,0,-1.3333333,-131.79333,101.46267)" />
    <path
       id="path17"
       d="m 198.42766,-28.3468 h 28.34682"
       style="fill:none;stroke:#000000;stroke-width:0.49814;stroke-linecap:butt;stroke-linejoin:miter;stroke-miterlimit:10;stroke-dasharray:none;stroke-opacity:1"
       transform="matrix(1.3333333,0,0,-1.3333333,-131.79333,101.46267)" />
    <path
       id="path18"
       d="m 1.9105078,-0.52700781 c 0,-0.29296875 -0.234375,-0.52734379 -0.5273437,-0.52734379 -0.28125,0 -0.52734379,0.23437504 -0.52734379,0.52734379 0,0.29296875 0.24609379,0.5273437475 0.52734379,0.5273437475 0.2929687,0 0.5273437,-0.2343749975 0.5273437,-0.5273437475 z m 0,3.98437501 c 0,-0.2929688 -0.234375,-0.5273438 -0.5273437,-0.5273438 -0.28125,0 -0.52734379,0.234375 -0.52734379,0.5273438 0,0.2929687 0.24609379,0.5273437 0.52734379,0.5273437 0.2929687,0 0.5273437,-0.234375 0.5273437,-0.5273437 z m 0,3.984375 c 0,-0.2929688 -0.234375,-0.5273438 -0.5273437,-0.5273438 -0.28125,0 -0.52734379,0.234375 -0.52734379,0.5273438 0,0.2929687 0.24609379,0.5273437 0.52734379,0.5273437 0.2929687,0 0.5273437,-0.234375 0.5273437,-0.5273437 z m 0,0"
       style="fill:#000000;fill-opacity:1;fill-rule:nonzero;stroke:none"
       aria-label=".&#10;.&#10;."
       transform="matrix(1.3333333,0,0,1.3333333,121.48,176.42533)" />
    <path
       id="path19"
       d="m 155.90744,-99.21382 h 28.3468"
       style="fill:none;stroke:#000000;stroke-width:0.49814;stroke-linecap:butt;stroke-linejoin:miter;stroke-miterlimit:10;stroke-dasharray:none;stroke-opacity:1"
       transform="matrix(1.3333333,0,0,-1.3333333,-131.79333,101.46267)" />
    <path
       id="path20"
       d="m 184.25424,-120.47392 v 42.5202 h 14.17342 v -42.5202 z"
       style="fill:#e2b9b9;fill-opacity:1;fill-rule:nonzero;stroke:#000000;stroke-width:0.49814;stroke-linecap:butt;stroke-linejoin:miter;stroke-miterlimit:10;stroke-dasharray:none;stroke-opacity:1"
       transform="matrix(1.3333333,0,0,-1.3333333,-131.79333,101.46267)" />
    <path
       id="path21"
       d="m 6.2592344,-5.6710078 c 0.4804687,-0.7734375 0.9023437,-0.8085938 1.2773437,-0.8203125 0.1171875,-0.011719 0.1289063,-0.1875 0.1289063,-0.1875 0,-0.082031 -0.058594,-0.1289063 -0.1289063,-0.1289063 -0.2578125,0 -0.5507812,0.035156 -0.8203125,0.035156 -0.328125,0 -0.6679687,-0.035156 -0.984375,-0.035156 -0.058594,0 -0.1875,0 -0.1875,0.1992188 0,0.1054687 0.082031,0.1171875 0.1523438,0.1171875 0.2695312,0.011719 0.4570312,0.1171875 0.4570312,0.328125 0,0.1523437 -0.140625,0.3632812 -0.140625,0.375 L 2.9545469,-0.92491406 2.2748594,-6.1983516 c 0,-0.1640625 0.2226562,-0.2929687 0.6796875,-0.2929687 0.140625,0 0.2578125,0 0.2578125,-0.1992188 0,-0.09375 -0.082031,-0.1171875 -0.140625,-0.1171875 -0.3984375,0 -0.8320313,0.035156 -1.2421875,0.035156 -0.1757813,0 -0.3632813,-0.011719 -0.5390625,-0.011719 -0.1875,0 -0.37500003,-0.023437 -0.53906253,-0.023437 -0.0703125,0 -0.1875,0 -0.1875,0.1992188 0,0.1171875 0.0820313,0.1171875 0.24609375,0.1171875 0.55078128,0 0.56249998,0.082031 0.59765628,0.3398437 l 0.7851562,6.14062504 c 0.035156,0.19921875 0.070312,0.234375 0.1992188,0.234375 0.1640625,0 0.1992187,-0.0585938 0.28125,-0.1875 z m 0,0"
       style="fill:#000000;fill-opacity:1;fill-rule:nonzero;stroke:none"
       aria-label="V"
       transform="matrix(1.3333333,0,0,1.3333333,117.97467,238.284)" />
    <path
       id="path22"
       d="m 198.42766,-85.04042 h 28.34682"
       style="fill:none;stroke:#000000;stroke-width:0.49814;stroke-linecap:butt;stroke-linejoin:miter;stroke-miterlimit:10;stroke-dasharray:none;stroke-opacity:1"
       transform="matrix(1.3333333,0,0,-1.3333333,-131.79333,101.46267)" />
    <path
       id="path23"
       d="m 198.42766,-113.38724 h 28.34682"
       style="fill:none;stroke:#000000;stroke-width:0.49814;stroke-linecap:butt;stroke-linejoin:miter;stroke-miterlimit:10;stroke-dasharray:none;stroke-opacity:1"
       transform="matrix(1.3333333,0,0,-1.3333333,-131.79333,101.46267)" />
    <path
       id="path24"
       d="M 226.77448,56.69362 H 283.4681"
       style="fill:none;stroke:#000000;stroke-width:0.49814;stroke-linecap:butt;stroke-linejoin:miter;stroke-miterlimit:10;stroke-dasharray:none;stroke-opacity:1"
       transform="matrix(1.3333333,0,0,-1.3333333,-131.79333,101.46267)" />
    <path
       id="path25"
       d="m 226.77448,0 c 5.66926,4.25183 5.66926,4.25183 14.1734,0"
       style="fill:none;stroke:#000000;stroke-width:0.49814;stroke-linecap:butt;stroke-linejoin:miter;stroke-miterlimit:10;stroke-dasharray:none;stroke-opacity:1"
       transform="matrix(1.3333333,0,0,-1.3333333,-131.79333,101.46267)" />
    <path
       id="path26"
       d="m 240.94788,0 h 42.5202"
       style="fill:none;stroke:#000000;stroke-width:0.49814;stroke-linecap:butt;stroke-linejoin:miter;stroke-miterlimit:10;stroke-dasharray:none;stroke-opacity:1"
       transform="matrix(1.3333333,0,0,-1.3333333,-131.79333,101.46267)" />
    <path
       id="path27"
       d="m 226.77448,-85.04042 c 12.75596,7.0867 12.75596,7.0867 25.51194,0"
       style="fill:none;stroke:#000000;stroke-width:0.49814;stroke-linecap:butt;stroke-linejoin:miter;stroke-miterlimit:10;stroke-dasharray:none;stroke-opacity:1"
       transform="matrix(1.3333333,0,0,-1.3333333,-131.79333,101.46267)" />
    <path
       id="path28"
       d="M 252.28642,-85.04042 H 283.4681"
       style="fill:none;stroke:#000000;stroke-width:0.49814;stroke-linecap:butt;stroke-linejoin:miter;stroke-miterlimit:10;stroke-dasharray:none;stroke-opacity:1"
       transform="matrix(1.3333333,0,0,-1.3333333,-131.79333,101.46267)" />
    <path
       id="path29"
       d="m 226.77448,28.3468 28.3468,-170.08084"
       style="fill:none;stroke:#000000;stroke-width:0.49814;stroke-linecap:butt;stroke-linejoin:miter;stroke-miterlimit:10;stroke-dasharray:none;stroke-opacity:1"
       transform="matrix(1.3333333,0,0,-1.3333333,-131.79333,101.46267)" />
    <path
       id="path30"
       d="m 226.77448,-28.3468 28.3468,-141.73406"
       style="fill:none;stroke:#000000;stroke-width:0.49814;stroke-linecap:butt;stroke-linejoin:miter;stroke-miterlimit:10;stroke-dasharray:none;stroke-opacity:1"
       transform="matrix(1.3333333,0,0,-1.3333333,-131.79333,101.46267)" />
    <path
       id="path31"
       d="m 226.77448,-113.38724 28.3468,-113.38724"
       style="fill:none;stroke:#000000;stroke-width:0.49814;stroke-linecap:butt;stroke-linejoin:miter;stroke-miterlimit:10;stroke-dasharray:none;stroke-opacity:1"
       transform="matrix(1.3333333,0,0,-1.3333333,-131.79333,101.46267)" />
    <path
       id="path32"
       d="M 255.12128,-141.73404 H 283.4681"
       style="fill:none;stroke:#000000;stroke-width:0.49814;stroke-linecap:butt;stroke-linejoin:miter;stroke-miterlimit:10;stroke-dasharray:none;stroke-opacity:1"
       transform="matrix(1.3333333,0,0,-1.3333333,-131.79333,101.46267)" />
    <path
       id="path33"
       d="M 255.12128,-170.08086 H 283.4681"
       style="fill:none;stroke:#000000;stroke-width:0.49814;stroke-linecap:butt;stroke-linejoin:miter;stroke-miterlimit:10;stroke-dasharray:none;stroke-opacity:1"
       transform="matrix(1.3333333,0,0,-1.3333333,-131.79333,101.46267)" />
    <path
       id="path34"
       d="M 255.12128,-226.77448 H 283.4681"
       style="fill:none;stroke:#000000;stroke-width:0.49814;stroke-linecap:butt;stroke-linejoin:miter;stroke-miterlimit:10;stroke-dasharray:none;stroke-opacity:1"
       transform="matrix(1.3333333,0,0,-1.3333333,-131.79333,101.46267)" />
    <path
       id="path35"
       d="M 283.4681,-99.21382 V 70.867 h 14.1734 V -99.21382 Z"
       style="fill:none;stroke:#000000;stroke-width:0.49814;stroke-linecap:butt;stroke-linejoin:miter;stroke-miterlimit:10;stroke-dasharray:none;stroke-opacity:1"
       transform="matrix(1.3333333,0,0,-1.3333333,-131.79333,101.46267)" />
    <path
       id="path36"
       d="m 2.0279297,-1.71875e-4 c 2.3203125,0 5.6015625,-1.769531225 5.6015625,-4.488281225 0,-0.890625 -0.421875,-1.453125 -0.9023438,-1.7578125 -0.8554687,-0.5625 -1.78125,-0.5625 -2.71875,-0.5625 -0.8554687,0 -1.453125,0 -2.2851562,0.3632812 -1.32421876,0.5859375 -1.51171876,1.4179688 -1.51171876,1.5 0,0.058594 0.0351563,0.070312 0.09375,0.070312 0.1640625,0 0.3984375,-0.140625 0.46875,-0.1875 0.2109375,-0.140625 0.24609376,-0.1992187 0.30468746,-0.3867187 0.140625,-0.3984375 0.421875,-0.75 1.6757813,-0.8085938 -0.1640625,2.0859375 -0.6679688,3.984375 -1.3710938,5.73046877 -0.3632812,0.12890625 -0.60937496,0.36328125 -0.60937496,0.45703125 0,0.05859375 0.0117188,0.070312505 0.23437496,0.070312505 z M 2.0865234,-0.55095313 C 3.2232422,-3.3282969 3.4224609,-5.0626719 3.5630859,-6.2579844 c 0.6679688,0 3.2226563,0 3.2226563,2.1914063 0,1.9570312 -1.7578125,3.51562497 -4.1601563,3.51562497 z m 0,0"
       style="fill:#000000;fill-opacity:1;fill-rule:nonzero;stroke:none"
       aria-label="D"
       transform="matrix(1.3333333,0,0,1.3333333,250.3,124.89867)" />
    <path
       id="path37"
       d="m 283.4681,-240.94788 v 113.38726 h 14.1734 v -113.38726 z"
       style="fill:none;stroke:#000000;stroke-width:0.49814;stroke-linecap:butt;stroke-linejoin:miter;stroke-miterlimit:10;stroke-dasharray:none;stroke-opacity:1"
       transform="matrix(1.3333333,0,0,-1.3333333,-131.79333,101.46267)" />
    <path
       id="path38"
       d="m 2.0279297,9.0625e-4 c 2.3203125,0 5.6015625,-1.76953125 5.6015625,-4.48828125 0,-0.890625 -0.421875,-1.453125 -0.9023438,-1.7578125 -0.8554687,-0.5625 -1.78125,-0.5625 -2.71875,-0.5625 -0.8554687,0 -1.453125,0 -2.2851562,0.3632813 -1.32421876,0.5859375 -1.51171876,1.4179687 -1.51171876,1.5 0,0.058594 0.0351563,0.070312 0.09375,0.070312 0.1640625,0 0.3984375,-0.140625 0.46875,-0.1875 0.2109375,-0.140625 0.24609376,-0.1992188 0.30468746,-0.3867188 0.140625,-0.3984375 0.421875,-0.75 1.6757813,-0.8085937 -0.1640625,2.0859375 -0.6679688,3.984375 -1.3710938,5.7304687 -0.3632812,0.12890625 -0.60937496,0.36328125 -0.60937496,0.45703125 0,0.05859375 0.0117188,0.0703125 0.23437496,0.0703125 z M 2.0865234,-0.549875 c 1.1367188,-2.7773437 1.3359375,-4.5117187 1.4765625,-5.7070312 0.6679688,0 3.2226563,0 3.2226563,2.1914062 0,1.9570313 -1.7578125,3.515625 -4.1601563,3.515625 z m 0,0"
       style="fill:#000000;fill-opacity:1;fill-rule:nonzero;stroke:none"
       aria-label="D"
       transform="matrix(1.3333333,0,0,1.3333333,250.3,351.67067)" />
    <g
       id="g38"
       aria-label="|ψ⟩"
       transform="matrix(1.3333333,0,0,1.3333333,294.53333,123.34933)">
      <path
         id="path39"
         d="m 1.4662109,-6.3879766 c 0,-0.1523437 0,-0.3398437 -0.1875,-0.3398437 -0.1875,0 -0.1875,0.1757812 -0.1875,0.3398437 v 8.296875 c 0,0.1523438 0,0.328125 0.1875,0.328125 0.1875,0 0.1875,-0.1640625 0.1875,-0.328125 z m 0,0"
         style="fill:#000000;fill-opacity:1;fill-rule:nonzero;stroke:none" />
      <path
         id="path40"
         d="m 7.0121094,-6.1184453 c 0,-0.011719 0,-0.1054688 -0.1171875,-0.1054688 -0.1054688,0 -0.1171875,0.046875 -0.1523438,0.1875 l -1.4648437,5.89453129 c -0.6445313,-0.0820313 -1.0546875,-0.375 -1.0546875,-0.99609379 0,-0.1875 0.035156,-0.4570312 0.4570312,-1.5703125 0.070312,-0.1992187 0.1289063,-0.328125 0.1289063,-0.5039062 0,-0.4335938 -0.328125,-0.75 -0.7734375,-0.75 -0.8554688,0 -1.21875,1.2773437 -1.21875,1.3828125 0,0.082031 0.070312,0.1054687 0.1289062,0.1054687 0.09375,0 0.1054688,-0.058594 0.140625,-0.1757812 0.1875,-0.65625 0.5507813,-1.0898438 0.9257813,-1.0898438 0.1757812,0 0.2109375,0.1171875 0.2109375,0.2929688 0,0.2109375 -0.058594,0.3984375 -0.1289063,0.5976562 -0.4453125,1.1132813 -0.4921875,1.4179688 -0.4921875,1.640625 0,0.65625004 0.4335938,1.20703129 1.6054688,1.28906254 L 4.8089844,1.7331172 c 0,0.011719 0,0.1054687 0.1171875,0.1054687 0.1054687,0 0.1171875,-0.023437 0.1640625,-0.2226562 0.1171875,-0.5039063 0.2578125,-1.00781251 0.375,-1.52343751 0.3164062,0 1.2539062,0 2.1445312,-1.11328129 0.4335938,-0.5390625 0.5859375,-0.984375 0.75,-1.8046875 0.046875,-0.2578125 0.046875,-0.3984375 0.046875,-0.4804687 0,-0.6328125 -0.3398437,-0.6679688 -0.4101562,-0.6679688 -0.234375,0 -0.4570313,0.2460938 -0.4570313,0.4453125 0,0.140625 0.070312,0.2109375 0.140625,0.2695313 0.234375,0.2226562 0.3164063,0.5039062 0.3164063,0.7382812 0,0.375 -0.2460938,1.0664063 -0.84375,1.66406254 -0.7148438,0.703125 -1.3007813,0.7265625 -1.6289063,0.7265625 z m 0,0"
         style="fill:#000000;fill-opacity:1;fill-rule:nonzero;stroke:none" />
      <path
         id="path41"
         d="m 11.403711,-2.0754766 c 0.05859,-0.1289062 0.05859,-0.1523437 0.05859,-0.1640625 0,-0.035156 0,-0.046875 -0.05859,-0.1757812 L 9.8216797,-6.5051641 c -0.070312,-0.1640625 -0.1171875,-0.2226562 -0.2226563,-0.2226562 -0.1054687,0 -0.1875,0.082031 -0.1875,0.1992187 0,0.023437 0,0.035156 0.046875,0.1640625 l 1.5937496,4.1132813 -1.5937496,4.125 c -0.046875,0.1289062 -0.046875,0.140625 -0.046875,0.1640625 0,0.1171875 0.082031,0.1875 0.1875,0.1875 0.1054688,0 0.1523438,-0.046875 0.2226563,-0.2109375 z m 0,0"
         style="fill:#000000;fill-opacity:1;fill-rule:nonzero;stroke:none" />
    </g>
    <g
       id="g41"
       aria-label="|ψ⟩"
       transform="matrix(1.3333333,0,0,1.3333333,294.53333,350.12)">
      <path
         id="path42"
         d="m 1.4662109,-6.3858984 c 0,-0.1523438 0,-0.3398438 -0.1875,-0.3398438 -0.1875,0 -0.1875,0.1757813 -0.1875,0.3398438 v 8.296875 c 0,0.1523437 0,0.328125 0.1875,0.328125 0.1875,0 0.1875,-0.1640625 0.1875,-0.328125 z m 0,0"
         style="fill:#000000;fill-opacity:1;fill-rule:nonzero;stroke:none" />
      <path
         id="path43"
         d="m 7.0121094,-6.1163672 c 0,-0.011719 0,-0.1054687 -0.1171875,-0.1054687 -0.1054688,0 -0.1171875,0.046875 -0.1523438,0.1875 l -1.4648437,5.89453121 c -0.6445313,-0.0820313 -1.0546875,-0.375 -1.0546875,-0.99609371 0,-0.1875 0.035156,-0.4570313 0.4570312,-1.5703125 0.070312,-0.1992188 0.1289063,-0.328125 0.1289063,-0.5039063 0,-0.4335937 -0.328125,-0.75 -0.7734375,-0.75 -0.8554688,0 -1.21875,1.2773438 -1.21875,1.3828125 0,0.082031 0.070312,0.1054688 0.1289062,0.1054688 0.09375,0 0.1054688,-0.058594 0.140625,-0.1757813 0.1875,-0.65625 0.5507813,-1.0898437 0.9257813,-1.0898437 0.1757812,0 0.2109375,0.1171875 0.2109375,0.2929687 0,0.2109375 -0.058594,0.3984375 -0.1289063,0.5976563 -0.4453125,1.1132812 -0.4921875,1.4179687 -0.4921875,1.640625 0,0.65624996 0.4335938,1.2070312125 1.6054688,1.28906246 L 4.8089844,1.7351953 c 0,0.011719 0,0.1054688 0.1171875,0.1054688 0.1054687,0 0.1171875,-0.023437 0.1640625,-0.2226563 0.1171875,-0.5039062 0.2578125,-1.00781249 0.375,-1.52343749 0.3164062,0 1.2539062,0 2.1445312,-1.11328121 0.4335938,-0.5390625 0.5859375,-0.984375 0.75,-1.8046875 0.046875,-0.2578125 0.046875,-0.3984375 0.046875,-0.4804688 0,-0.6328125 -0.3398437,-0.6679687 -0.4101562,-0.6679687 -0.234375,0 -0.4570313,0.2460937 -0.4570313,0.4453125 0,0.140625 0.070312,0.2109375 0.140625,0.2695312 0.234375,0.2226563 0.3164063,0.5039063 0.3164063,0.7382813 0,0.375 -0.2460938,1.0664062 -0.84375,1.66406246 -0.7148438,0.703125 -1.3007813,0.7265625 -1.6289063,0.7265625 z m 0,0"
         style="fill:#000000;fill-opacity:1;fill-rule:nonzero;stroke:none" />
      <path
         id="path44"
         d="m 11.403711,-2.0733984 c 0.05859,-0.1289063 0.05859,-0.1523438 0.05859,-0.1640625 0,-0.035156 0,-0.046875 -0.05859,-0.1757813 L 9.8216797,-6.5030859 c -0.070312,-0.1640625 -0.1171875,-0.2226563 -0.2226563,-0.2226563 -0.1054687,0 -0.1875,0.082031 -0.1875,0.1992188 0,0.023437 0,0.035156 0.046875,0.1640625 l 1.5937496,4.1132812 -1.5937496,4.125 c -0.046875,0.1289063 -0.046875,0.140625 -0.046875,0.1640625 0,0.1171875 0.082031,0.1875 0.1875,0.1875 0.1054688,0 0.1523438,-0.046875 0.2226563,-0.2109375 z m 0,0"
         style="fill:#000000;fill-opacity:1;fill-rule:nonzero;stroke:none" />
    </g>
    <path
       id="path45"
       d="m 297.6415,-14.17339 h 18.58819"
       style="fill:none;stroke:#000000;stroke-width:0.49814;stroke-linecap:butt;stroke-linejoin:miter;stroke-miterlimit:10;stroke-dasharray:none;stroke-opacity:1"
       transform="matrix(1.3333333,0,0,-1.3333333,-131.79333,101.46267)" />
    <path
       id="path46"
       d="m 297.6415,-184.25424 h 18.58819"
       style="fill:none;stroke:#000000;stroke-width:0.49814;stroke-linecap:butt;stroke-linejoin:miter;stroke-miterlimit:10;stroke-dasharray:none;stroke-opacity:1"
       transform="matrix(1.3333333,0,0,-1.3333333,-131.79333,101.46267)" />
    <path
       id="path47"
       d="m 1.9087031,-0.52783594 c 0,-0.29296875 -0.234375,-0.52734376 -0.5273437,-0.52734376 -0.28125,0 -0.52734377,0.23437501 -0.52734377,0.52734376 0,0.29296875 0.24609377,0.5273437525 0.52734377,0.5273437525 0.2929687,0 0.5273437,-0.2343750025 0.5273437,-0.5273437525 z m 0,3.98437504 c 0,-0.2929688 -0.234375,-0.5273438 -0.5273437,-0.5273438 -0.28125,0 -0.52734377,0.234375 -0.52734377,0.5273438 0,0.2929687 0.24609377,0.5273437 0.52734377,0.5273437 0.2929687,0 0.5273437,-0.234375 0.5273437,-0.5273437 z m 0,3.9873046 C 1.9087031,7.150875 1.6743281,6.9165 1.3813594,6.9165 c -0.28125,0 -0.52734377,0.234375 -0.52734377,0.5273437 0,0.2929688 0.24609377,0.5273438 0.52734377,0.5273438 0.2929687,0 0.5273437,-0.234375 0.5273437,-0.5273438 z m 0,0"
       style="fill:#000000;fill-opacity:1;fill-rule:nonzero;stroke:none"
       aria-label=".&#10;.&#10;."
       transform="matrix(1.3333333,0,0,1.3333333,225.416,157.528)" />
    <path
       id="path48"
       d="m 1.9087031,-0.52758594 c 0,-0.29296875 -0.234375,-0.52734376 -0.5273437,-0.52734376 -0.28125,0 -0.52734377,0.23437501 -0.52734377,0.52734376 0,0.29296875 0.24609377,0.5273437525 0.52734377,0.5273437525 0.2929687,0 0.5273437,-0.2343750025 0.5273437,-0.5273437525 z m 0,3.98437504 c 0,-0.2929688 -0.234375,-0.5273438 -0.5273437,-0.5273438 -0.28125,0 -0.52734377,0.234375 -0.52734377,0.5273438 0,0.2929687 0.24609377,0.5273437 0.52734377,0.5273437 0.2929687,0 0.5273437,-0.234375 0.5273437,-0.5273437 z m 0,3.9873046 c 0,-0.2929687 -0.234375,-0.5273437 -0.5273437,-0.5273437 -0.28125,0 -0.52734377,0.234375 -0.52734377,0.5273437 0,0.2929688 0.24609377,0.5273438 0.52734377,0.5273438 0.2929687,0 0.5273437,-0.234375 0.5273437,-0.5273438 z m 0,0"
       style="fill:#000000;fill-opacity:1;fill-rule:nonzero;stroke:none"
       aria-label=".&#10;.&#10;."
       transform="matrix(1.3333333,0,0,1.3333333,225.416,365.40267)" />
  </g>
</svg>
