<?xml version="1.0" encoding="UTF-8" standalone="no"?>
<!-- Created with Inkscape (http://www.inkscape.org/) -->

<svg
   version="1.1"
   id="svg1"
   width="366.51868"
   height="148.96933"
   viewBox="0 0 366.51868 148.96933"
   sodipodi:docname="diagrams-3.pdf"
   xmlns:inkscape="http://www.inkscape.org/namespaces/inkscape"
   xmlns:sodipodi="http://sodipodi.sourceforge.net/DTD/sodipodi-0.dtd"
   xmlns="http://www.w3.org/2000/svg"
   xmlns:svg="http://www.w3.org/2000/svg">
  <defs
     id="defs1" />
  <sodipodi:namedview
     id="namedview1"
     pagecolor="#ffffff"
     bordercolor="#000000"
     borderopacity="0.25"
     inkscape:showpageshadow="2"
     inkscape:pageopacity="0.0"
     inkscape:pagecheckerboard="0"
     inkscape:deskcolor="#d1d1d1">
    <inkscape:page
       x="0"
       y="0"
       inkscape:label="1"
       id="page1"
       width="366.51868"
       height="148.96933"
       margin="0"
       bleed="0" />
  </sodipodi:namedview>
  <g
     id="g1"
     inkscape:groupmode="layer"
     inkscape:label="1">
    <g
       id="g2"
       aria-label="|ψ⟩"
       transform="matrix(1.3333333,0,0,1.3333333,11.069333,88.292)">
      <path
         id="path2"
         d="m 1.4655781,-6.3859922 c 0,-0.1523437 0,-0.3398437 -0.1875,-0.3398437 -0.1875,0 -0.1875,0.1757812 -0.1875,0.3398437 v 8.296875 c 0,0.1523438 0,0.328125 0.1875,0.328125 0.1875,0 0.1875,-0.1640625 0.1875,-0.328125 z m 0,0"
         style="fill:#000000;fill-opacity:1;fill-rule:nonzero;stroke:none" />
      <path
         id="path3"
         d="m 7.0144063,-6.1164609 c 0,-0.011719 0,-0.1054688 -0.1171875,-0.1054688 -0.1054688,0 -0.1171875,0.046875 -0.1523438,0.1875 l -1.4648437,5.89453126 c -0.6445313,-0.0820313 -1.0546875,-0.375 -1.0546875,-0.99609376 0,-0.1875 0.035156,-0.4570312 0.4570312,-1.5703125 0.070312,-0.1992187 0.1289063,-0.328125 0.1289063,-0.5039062 0,-0.4335938 -0.328125,-0.75 -0.7734375,-0.75 -0.8554688,0 -1.21875,1.2773437 -1.21875,1.3828125 0,0.082031 0.070312,0.1054687 0.1289062,0.1054687 0.09375,0 0.1054688,-0.058594 0.140625,-0.1757812 0.1875,-0.65625 0.5507813,-1.0898438 0.9257813,-1.0898438 0.1757812,0 0.2109375,0.1171875 0.2109375,0.2929688 0,0.2109375 -0.058594,0.3984375 -0.1289063,0.5976562 -0.4453125,1.1132813 -0.4921875,1.4179688 -0.4921875,1.640625 0,0.65625001 0.4335938,1.2070312625 1.6054688,1.28906251 L 4.8112813,1.7351016 c 0,0.011719 0,0.1054687 0.1171875,0.1054687 0.1054687,0 0.1171875,-0.023437 0.1640625,-0.2226562 0.1171875,-0.5039063 0.2578125,-1.00781254 0.375,-1.52343754 0.3164062,0 1.2539062,0 2.1445312,-1.11328126 0.4335938,-0.5390625 0.5859375,-0.984375 0.75,-1.8046875 0.046875,-0.2578125 0.046875,-0.3984375 0.046875,-0.4804687 0,-0.6328125 -0.3398437,-0.6679688 -0.4101562,-0.6679688 -0.234375,0 -0.4570313,0.2460938 -0.4570313,0.4453125 0,0.140625 0.070312,0.2109375 0.140625,0.2695313 0.234375,0.2226562 0.3164063,0.5039062 0.3164063,0.7382812 0,0.375 -0.2460938,1.0664063 -0.84375,1.66406251 -0.7148438,0.703125 -1.3007813,0.7265625 -1.6289063,0.7265625 z m 0,0"
         style="fill:#000000;fill-opacity:1;fill-rule:nonzero;stroke:none" />
      <path
         id="path4"
         d="m 11.403078,-2.0734922 c 0.05859,-0.1289062 0.05859,-0.1523437 0.05859,-0.1640625 0,-0.035156 0,-0.046875 -0.05859,-0.1757812 L 9.8210469,-6.5031797 c -0.070312,-0.1640625 -0.1171875,-0.2226562 -0.2226563,-0.2226562 -0.1054687,0 -0.1875,0.082031 -0.1875,0.1992187 0,0.023437 0,0.035156 0.046875,0.1640625 l 1.5937504,4.1132813 -1.5937504,4.125 c -0.046875,0.1289062 -0.046875,0.140625 -0.046875,0.1640625 0,0.1171875 0.082031,0.1875 0.1875,0.1875 0.1054688,0 0.1523438,-0.046875 0.2226563,-0.2109375 z m 0,0"
         style="fill:#000000;fill-opacity:1;fill-rule:nonzero;stroke:none" />
    </g>
    <path
       id="path5"
       d="m 2.14425,-3.7956016 c 0,-0.1757812 -0.023437,-0.1757812 -0.1992187,-0.1757812 -0.3984375,0.375 -1.00781255,0.375 -1.21875005,0.375 v 0.234375 c 0.15234375,0 0.55078125,0 0.90234375,-0.1640625 v 3.02343749 c 0,0.1875 0,0.26953125 -0.609375,0.26953125 H 0.7614375 v 0.234375 c 0.328125,-0.0234375 0.796875,-0.0234375 1.125,-0.0234375 0.3398438,0 0.796875,0 1.1367188,0.0234375 v -0.234375 H 2.7653438 c -0.6210938,0 -0.6210938,-0.0820312 -0.6210938,-0.26953125 z m 0,0"
       style="fill:#000000;fill-opacity:1;fill-rule:nonzero;stroke:none"
       aria-label="1"
       transform="matrix(1.3333333,0,0,1.3333333,50.516,16.205333)" />
    <path
       id="path6"
       d="M 0,0 H 9.63"
       style="fill:none;stroke:#000000;stroke-width:0.379;stroke-linecap:butt;stroke-linejoin:miter;stroke-miterlimit:10;stroke-dasharray:none;stroke-opacity:1"
       transform="matrix(1.3333333,0,0,-1.3333333,46.530667,18.114667)" />
    <path
       id="path7"
       d="M 2.8598125,5.0043906 1.617625,2.6840781 c -0.035156,-0.070312 -0.046875,-0.09375 -0.1054687,-0.09375 -0.035156,0 -0.082031,0.023437 -0.09375,0.035156 l -0.65625005,0.421875 c -0.0703125,0.046875 -0.10546875,0.070312 -0.10546875,0.1171875 0,0.046875 0.0585938,0.09375 0.10546875,0.09375 0.0234375,0 0.0351563,0 0.44531255,-0.2578125 l 1.3710937,2.5664062 c 0.046875,0.082031 0.046875,0.09375 0.140625,0.09375 0.1171875,0 0.1289063,-0.023437 0.1875,-0.1289062 l 3.1757813,-5.56640628 c 0.035156,-0.05859375 0.046875,-0.08203125 0.046875,-0.1171875 0,-0.0820313 -0.070312,-0.1640625 -0.1523438,-0.1640625 -0.09375,0 -0.1289062,0.0820313 -0.1523437,0.1171875 z m 0,0"
       style="fill:#000000;fill-opacity:1;fill-rule:nonzero;stroke:none"
       aria-label="√"
       transform="matrix(1.3333333,0,0,1.3333333,46.530667,19.694667)" />
    <path
       id="path8"
       d="M 0,0 H 3.653"
       style="fill:none;stroke:#000000;stroke-width:0.309;stroke-linecap:butt;stroke-linejoin:miter;stroke-miterlimit:10;stroke-dasharray:none;stroke-opacity:1"
       transform="matrix(1.3333333,0,0,-1.3333333,54.501333,19.489333)" />
    <g
       id="g8"
       aria-label="2&#10;(|ψ⟩|⊥⟩+|⊥⟩|ψ⟩)"
       transform="matrix(1.3333333,0,0,1.3333333,54.501333,26.284)">
      <path
         id="path9"
         d="M 3.2099375,-1.1124141 H 2.999 c -0.023437,0.082031 -0.082031,0.46875004 -0.1640625,0.53906254 -0.046875,0.0351563 -0.5273437,0.0351563 -0.609375,0.0351563 h -1.125 L 1.874,-1.1592891 c 0.1992188,-0.1640625 0.7265625,-0.5390625 0.9140625,-0.7265625 0.1757813,-0.1757812 0.421875,-0.4804687 0.421875,-0.9023437 0,-0.75 -0.6679687,-1.1835938 -1.4765625,-1.1835938 -0.76171875,0 -1.30078125,0.5039063 -1.30078125,1.0664063 0,0.3046875 0.2578125,0.3398437 0.31640625,0.3398437 0.15234375,0 0.328125,-0.1054687 0.328125,-0.3164062 0,-0.140625 -0.0820313,-0.328125 -0.33984375,-0.328125 0.12890625,-0.3046875 0.50390625,-0.5273438 0.91406255,-0.5273438 0.6210937,0 0.9609375,0.46875 0.9609375,0.9492188 0,0.421875 -0.28125,0.8554687 -0.703125,1.2421875 l -1.4179688,1.30078124 c -0.0585938,0.0585938 -0.0585938,0.0585938 -0.0585938,0.2460937475 h 2.6015626 z m 0,0"
         style="fill:#000000;fill-opacity:1;fill-rule:nonzero;stroke:none" />
      <path
         id="path10"
         d="m 9.4413828,-1.7540156 c 0,-0.046875 -0.023437,-0.070312 -0.082031,-0.1289063 -1.1601563,-1.0664062 -1.5117188,-2.671875 -1.5117188,-4.2421875 0,-1.3945312 0.2695313,-3.0820312 1.5351563,-4.2773436 0.035156,-0.03516 0.058594,-0.07031 0.058594,-0.105469 0,-0.07031 -0.046875,-0.105469 -0.1054687,-0.105469 -0.1054688,0 -0.9140625,0.6445316 -1.40625,1.6289066 -0.421875,0.8554688 -0.6445313,1.78125 -0.6445313,2.8476563 0,0.6445312 0.082031,1.6640625 0.5742188,2.7304687 0.5273437,1.1015625 1.3710937,1.7460938 1.4765625,1.7460938 0.058594,0 0.1054687,-0.035156 0.1054682,-0.09375 z m 0,0"
         style="fill:#000000;fill-opacity:1;fill-rule:nonzero;stroke:none" />
      <path
         id="path11"
         d="m 11.43357,-10.273547 c 0,-0.152344 0,-0.339844 -0.1875,-0.339844 -0.1875,0 -0.1875,0.175782 -0.1875,0.339844 v 8.2968751 c 0,0.1523438 0,0.328125 0.1875,0.328125 0.1875,0 0.1875,-0.1640625 0.1875,-0.328125 z m 0,0"
         style="fill:#000000;fill-opacity:1;fill-rule:nonzero;stroke:none" />
      <path
         id="path12"
         d="m 16.979469,-10.004016 c 0,-0.01172 0,-0.105468 -0.117188,-0.105468 -0.105468,0 -0.117187,0.04687 -0.152343,0.1874996 l -1.464844,5.8945313 c -0.644531,-0.082031 -1.054688,-0.375 -1.054688,-0.9960938 0,-0.1875 0.03516,-0.4570312 0.457032,-1.5703125 0.07031,-0.1992187 0.128906,-0.328125 0.128906,-0.5039062 0,-0.4335938 -0.328125,-0.75 -0.773438,-0.75 -0.855468,0 -1.21875,1.2773437 -1.21875,1.3828125 0,0.082031 0.07031,0.1054687 0.128907,0.1054687 0.09375,0 0.105468,-0.058594 0.140625,-0.1757812 0.1875,-0.65625 0.550781,-1.0898438 0.925781,-1.0898438 0.175781,0 0.210937,0.1171875 0.210937,0.2929688 0,0.2109375 -0.05859,0.3984375 -0.128906,0.5976562 -0.445312,1.1132813 -0.492187,1.4179688 -0.492187,1.640625 0,0.65625 0.433593,1.2070313 1.605468,1.2890625 l -0.398437,1.6523438 c 0,0.011719 0,0.1054687 0.117187,0.1054687 0.105469,0 0.117188,-0.023437 0.164063,-0.2226562 0.117187,-0.5039063 0.257812,-1.0078125 0.375,-1.5234375 0.316406,0 1.253906,0 2.144531,-1.1132813 0.433594,-0.5390625 0.585938,-0.984375 0.75,-1.8046875 0.04687,-0.2578125 0.04687,-0.3984375 0.04687,-0.4804687 0,-0.6328125 -0.339844,-0.6679688 -0.410156,-0.6679688 -0.234375,0 -0.457031,0.2460938 -0.457031,0.4453125 0,0.140625 0.07031,0.2109375 0.140625,0.2695313 0.234375,0.2226562 0.316406,0.5039062 0.316406,0.7382812 0,0.375 -0.246094,1.0664063 -0.84375,1.6640625 -0.714844,0.703125 -1.300781,0.7265625 -1.628906,0.7265625 z m 0,0"
         style="fill:#000000;fill-opacity:1;fill-rule:nonzero;stroke:none" />
      <path
         id="path13"
         d="m 21.37107,-5.9610469 c 0.05859,-0.1289062 0.05859,-0.1523437 0.05859,-0.1640625 0,-0.035156 0,-0.046875 -0.05859,-0.1757812 l -1.582031,-4.0898434 c -0.07031,-0.164063 -0.117187,-0.222657 -0.222656,-0.222657 -0.105469,0 -0.1875,0.08203 -0.1875,0.199219 0,0.02344 0,0.03516 0.04687,0.164063 l 1.59375,4.1132809 -1.59375,4.125 c -0.04687,0.1289062 -0.04687,0.140625 -0.04687,0.1640625 0,0.1171875 0.08203,0.1875 0.1875,0.1875 0.105469,0 0.152344,-0.046875 0.222656,-0.2109375 z m 2.540039,-4.3125001 c 0,-0.152344 0,-0.339844 -0.1875,-0.339844 -0.1875,0 -0.1875,0.175782 -0.1875,0.339844 v 8.2968751 c 0,0.1523438 0,0.328125 0.1875,0.328125 0.1875,0 0.1875,-0.1640625 0.1875,-0.328125 z m 4.869141,0.5742189 c 0,-0.1523438 0,-0.3281249 -0.1875,-0.3281249 -0.199219,0 -0.199219,0.1992186 -0.199219,0.3281249 v 5.4257812 h -2.542968 c -0.128907,0 -0.328125,0 -0.328125,0.1875 0,0.1992188 0.1875,0.1992188 0.328125,0.1992188 h 5.472656 c 0.164062,0 0.339844,0 0.339844,-0.1992188 0,-0.1875 -0.1875,-0.1875 -0.339844,-0.1875 H 28.78025 Z m 5.900391,3.7382812 c 0.05859,-0.1289062 0.05859,-0.1523437 0.05859,-0.1640625 0,-0.035156 0,-0.046875 -0.05859,-0.1757812 l -1.582032,-4.0898434 c -0.07031,-0.164063 -0.117187,-0.222657 -0.222656,-0.222657 -0.105469,0 -0.1875,0.08203 -0.1875,0.199219 0,0.02344 0,0.03516 0.04687,0.164063 l 1.59375,4.1132809 -1.59375,4.125 c -0.04687,0.1289062 -0.04687,0.140625 -0.04687,0.1640625 0,0.1171875 0.08203,0.1875 0.1875,0.1875 0.105469,0 0.152344,-0.046875 0.222656,-0.2109375 z m 0,0"
         style="fill:#000000;fill-opacity:1;fill-rule:nonzero;stroke:none" />
      <path
         id="path14"
         d="m 44.131813,-5.9376094 c 0.128906,0 0.316406,0 0.316406,-0.1875 0,-0.1992187 -0.175781,-0.1992187 -0.316406,-0.1992187 h -2.554688 v -2.5664063 c 0,-0.140625 0,-0.3164062 -0.199219,-0.3164062 -0.1875,0 -0.1875,0.1875 -0.1875,0.3164062 v 2.5664063 H 38.624 c -0.117187,0 -0.304687,0 -0.304687,0.1875 0,0.1992187 0.164062,0.1992187 0.304687,0.1992187 h 2.566406 v 2.5664063 c 0,0.140625 0,0.3046875 0.199219,0.3046875 0.1875,0 0.1875,-0.1875 0.1875,-0.3046875 v -2.5664063 z m 0,0"
         style="fill:#000000;fill-opacity:1;fill-rule:nonzero;stroke:none" />
      <path
         id="path15"
         d="m 48.488258,-10.273547 c 0,-0.152344 0,-0.339844 -0.1875,-0.339844 -0.1875,0 -0.1875,0.175782 -0.1875,0.339844 v 8.2968751 c 0,0.1523438 0,0.328125 0.1875,0.328125 0.1875,0 0.1875,-0.1640625 0.1875,-0.328125 z m 4.86914,0.5742189 c 0,-0.1523438 0,-0.3281249 -0.1875,-0.3281249 -0.199218,0 -0.199218,0.1992186 -0.199218,0.3281249 v 5.4257812 h -2.542969 c -0.128906,0 -0.328125,0 -0.328125,0.1875 0,0.1992188 0.1875,0.1992188 0.328125,0.1992188 h 5.472656 c 0.164063,0 0.339844,0 0.339844,-0.1992188 0,-0.1875 -0.1875,-0.1875 -0.339844,-0.1875 h -2.542969 z m 5.900391,3.7382812 c 0.05859,-0.1289062 0.05859,-0.1523437 0.05859,-0.1640625 0,-0.035156 0,-0.046875 -0.05859,-0.1757812 l -1.582031,-4.0898434 c -0.07031,-0.164063 -0.117188,-0.222657 -0.222656,-0.222657 -0.105469,0 -0.1875,0.08203 -0.1875,0.199219 0,0.02344 0,0.03516 0.04687,0.164063 l 1.59375,4.1132809 -1.59375,4.125 c -0.04687,0.1289062 -0.04687,0.140625 -0.04687,0.1640625 0,0.1171875 0.08203,0.1875 0.1875,0.1875 0.105468,0 0.152343,-0.046875 0.222656,-0.2109375 z m 2.542969,-4.3125001 c 0,-0.152344 0,-0.339844 -0.1875,-0.339844 -0.1875,0 -0.1875,0.175782 -0.1875,0.339844 v 8.2968751 c 0,0.1523438 0,0.328125 0.1875,0.328125 0.1875,0 0.1875,-0.1640625 0.1875,-0.328125 z m 0,0"
         style="fill:#000000;fill-opacity:1;fill-rule:nonzero;stroke:none" />
      <path
         id="path16"
         d="m 67.346656,-10.004016 c 0,-0.01172 0,-0.105468 -0.117187,-0.105468 -0.105469,0 -0.117188,0.04687 -0.152344,0.1874996 l -1.464844,5.8945313 c -0.644531,-0.082031 -1.054687,-0.375 -1.054687,-0.9960938 0,-0.1875 0.03516,-0.4570312 0.457031,-1.5703125 0.07031,-0.1992187 0.128906,-0.328125 0.128906,-0.5039062 0,-0.4335938 -0.328125,-0.75 -0.773437,-0.75 -0.855469,0 -1.21875,1.2773437 -1.21875,1.3828125 0,0.082031 0.07031,0.1054687 0.128906,0.1054687 0.09375,0 0.105469,-0.058594 0.140625,-0.1757812 0.1875,-0.65625 0.550781,-1.0898438 0.925781,-1.0898438 0.175782,0 0.210938,0.1171875 0.210938,0.2929688 0,0.2109375 -0.05859,0.3984375 -0.128906,0.5976562 -0.445313,1.1132813 -0.492188,1.4179688 -0.492188,1.640625 0,0.65625 0.433594,1.2070313 1.605469,1.2890625 l -0.398438,1.6523438 c 0,0.011719 0,0.1054687 0.117188,0.1054687 0.105469,0 0.117187,-0.023437 0.164062,-0.2226562 0.117188,-0.5039063 0.257813,-1.0078125 0.375,-1.5234375 0.316407,0 1.253907,0 2.144532,-1.1132813 0.433593,-0.5390625 0.585937,-0.984375 0.75,-1.8046875 0.04687,-0.2578125 0.04687,-0.3984375 0.04687,-0.4804687 0,-0.6328125 -0.339844,-0.6679688 -0.410157,-0.6679688 -0.234375,0 -0.457031,0.2460938 -0.457031,0.4453125 0,0.140625 0.07031,0.2109375 0.140625,0.2695313 0.234375,0.2226562 0.316406,0.5039062 0.316406,0.7382812 0,0.375 -0.246093,1.0664063 -0.84375,1.6640625 -0.714843,0.703125 -1.300781,0.7265625 -1.628906,0.7265625 z m 0,0"
         style="fill:#000000;fill-opacity:1;fill-rule:nonzero;stroke:none" />
      <path
         id="path17"
         d="m 71.729469,-5.9610469 c 0.05859,-0.1289062 0.05859,-0.1523437 0.05859,-0.1640625 0,-0.035156 0,-0.046875 -0.05859,-0.1757812 l -1.582031,-4.0898434 c -0.07031,-0.164063 -0.117188,-0.222657 -0.222657,-0.222657 -0.105468,0 -0.1875,0.08203 -0.1875,0.199219 0,0.02344 0,0.03516 0.04687,0.164063 l 1.59375,4.1132809 -1.59375,4.125 c -0.04687,0.1289062 -0.04687,0.140625 -0.04687,0.1640625 0,0.1171875 0.08203,0.1875 0.1875,0.1875 0.105469,0 0.152344,-0.046875 0.222657,-0.2109375 z m 0,0"
         style="fill:#000000;fill-opacity:1;fill-rule:nonzero;stroke:none" />
      <path
         id="path18"
         d="m 75.476539,-6.1368281 c 0,-0.7382813 -0.105469,-1.7226563 -0.574219,-2.71875 -0.527343,-1.1015625 -1.359375,-1.7578129 -1.464843,-1.7578129 -0.09375,0 -0.117188,0.07031 -0.117188,0.105469 0,0.03516 0.02344,0.07031 0.08203,0.128906 0.527344,0.4687504 1.511719,1.6875004 1.511719,4.2421879 0,1.2773437 -0.234375,3.0703125 -1.535156,4.2773437 -0.02344,0.023437 -0.05859,0.058594 -0.05859,0.1054688 0,0.023437 0.02344,0.09375 0.117188,0.09375 0.105468,0 0.914062,-0.6445313 1.394531,-1.6171875 0.433594,-0.8554688 0.644531,-1.78125 0.644531,-2.859375 z m 0,0"
         style="fill:#000000;fill-opacity:1;fill-rule:nonzero;stroke:none" />
    </g>
    <path
       id="path19"
       d="m 1.6286484,-1.0555625 c -0.4335937,0.7265625 -0.83203121,0.75 -1.19531246,0.7734375 -0.0585938,0.0117188 -0.10546875,0.0820313 -0.10546875,0.1640625 0,0.05859375 0.0351563,0.1171875 0.12890625,0.1171875 0.17578125,0 0.59765626,-0.0234375 0.76171876,-0.0234375 0.1992187,0 0.6796875,0.0234375 0.8789062,0.0234375 0.058594,0 0.1757813,0 0.1757813,-0.1640625 0,-0.10546875 -0.1171875,-0.1171875 -0.140625,-0.1171875 -0.082031,0 -0.421875,-0.0234375 -0.421875,-0.29296875 0,-0.12890625 0.1054687,-0.29296875 0.1289062,-0.33984375 l 0.703125,-1.1601563 h 2.34375 c 0.023437,0.2109375 0.058594,0.515625 0.082031,0.7382813 0.035156,0.3515625 0.082031,0.75 0.082031,0.7734375 0,0.12890625 -0.1171875,0.28125 -0.6445312,0.28125 -0.082031,0 -0.1992188,0 -0.1992188,0.1640625 0,0.09375 0.070312,0.1171875 0.1289063,0.1171875 0.1757812,0 0.3867187,-0.0234375 0.5625,-0.0234375 0.1875,0 0.3984375,0 0.5390625,0 0.3046875,0 0.3164062,0 0.5273437,0 0.1523438,0.01171875 0.3515625,0.0234375 0.5039063,0.0234375 0.046875,0 0.1640625,0 0.1640625,-0.1640625 0,-0.1171875 -0.09375,-0.1171875 -0.1992188,-0.1171875 -0.5390625,0 -0.5507812,-0.0585938 -0.5742187,-0.31640625 L 5.2263047,-6.1766563 C 5.2028672,-6.375875 5.2028672,-6.42275 5.0505234,-6.42275 c -0.1289062,0 -0.1875,0.070312 -0.2578125,0.1875 z M 2.7184922,-2.344625 4.5231797,-5.3094688 4.8630234,-2.344625 Z m 0,0"
       style="fill:#000000;fill-opacity:1;fill-rule:nonzero;stroke:none"
       aria-label="A"
       transform="matrix(1.3333333,0,0,1.3333333,39.348,79.938667)" />
    <path
       id="path20"
       d="m 1.4653047,-0.67846094 c -0.082031,0.31640625 -0.1054688,0.3984375 -0.77343751,0.3984375 -0.17578125,0 -0.26953125,0 -0.26953125,0.1640625 0,0.1171875 0.09375,0.1171875 0.24609375,0.1171875 H 3.9379609 c 1.453125,0 2.5195313,-1.05468746 2.5195313,-1.92187496 0,-0.6445313 -0.5273438,-1.1835938 -1.4179688,-1.2773438 1.0195313,-0.1992187 1.8867188,-0.8789062 1.8867188,-1.6757812 0,-0.703125 -0.6445313,-1.2421875 -1.7109375,-1.2421875 H 2.1567109 c -0.1640625,0 -0.2695312,0 -0.2695312,0.1523437 0,0.1171875 0.082031,0.1171875 0.2695312,0.1171875 0.035156,0 0.1875,0 0.3398438,0.023437 0.1523437,0.011719 0.2109375,0.035156 0.2109375,0.1289063 0,0.046875 -0.011719,0.082031 -0.035156,0.1875 z M 2.8598359,-3.3034609 3.4106172,-5.4948672 c 0.082031,-0.3164062 0.09375,-0.3515625 0.46875,-0.3515625 h 1.21875 c 0.9257812,0 1.0078125,0.7148438 1.0078125,0.9375 0,0.796875 -0.8320313,1.6054688 -1.8515625,1.6054688 z m -0.4335937,3.02343746 c -0.1171875,0 -0.140625,0 -0.1757813,0 -0.09375,-0.0117188 -0.1171875,-0.0234375 -0.1171875,-0.0820313 0,-0.0351563 0,-0.046875 0.046875,-0.2109375 L 2.8012422,-3.0690859 h 1.6757812 c 0.5625,0 1.125,0.234375 1.125,1.0546875 0,0.890625 -0.8085937,1.73437496 -1.8867187,1.73437496 z m 0,0"
       style="fill:#000000;fill-opacity:1;fill-rule:nonzero;stroke:none"
       aria-label="B"
       transform="matrix(1.3333333,0,0,1.3333333,84.362667,61.041333)" />
    <path
       id="path21"
       d="m 2.8134141,-3.0352031 h 0.9140625 c 0.6445312,0 0.7734375,0.1171875 0.7734375,0.4101562 0,0.070312 -0.023437,0.2578125 -0.058594,0.3984375 -0.023437,0.058594 -0.035156,0.1054688 -0.035156,0.1289063 0,0.011719 0,0.1171875 0.1171875,0.1171875 0.1171875,0 0.1171875,-0.058594 0.1523437,-0.1992188 l 0.4804688,-1.8867187 c 0.035156,-0.1171875 0.035156,-0.140625 0.035156,-0.1757813 0,-0.070312 -0.058594,-0.1171875 -0.1289062,-0.1171875 -0.09375,0 -0.1054688,0.058594 -0.1523438,0.2226563 -0.1757812,0.7148437 -0.4570312,0.8320312 -1.171875,0.8320312 H 2.8837266 c 0.140625,-0.5625 0.5625,-2.2617187 0.609375,-2.3671875 0.046875,-0.1289062 0.1171875,-0.140625 0.4101562,-0.140625 h 1.3125 c 1.125,0 1.3710938,0.2578125 1.3710938,0.984375 0,0.28125 -0.046875,0.5507813 -0.046875,0.609375 0,0.082031 0.046875,0.140625 0.1289062,0.140625 0.1054688,0 0.1171875,-0.058594 0.140625,-0.2226562 l 0.1875,-1.6640625 c 0,-0.1289063 -0.09375,-0.1289063 -0.2578125,-0.1289063 H 2.1220078 c -0.1757812,0 -0.2695312,0 -0.2695312,0.1640625 0,0.1171875 0.082031,0.1171875 0.2695312,0.1171875 0.035156,0 0.1992188,0 0.3398438,0.011719 0.1992187,0.023437 0.2109375,0.058594 0.2109375,0.140625 0,0.035156 0,0.046875 -0.046875,0.2109375 l -1.1953125,4.76953122 c -0.070312,0.31640625 -0.09375,0.3984375 -0.76171879,0.3984375 -0.17578125,0 -0.26953125,0 -0.26953125,0.1640625 0,0.117187505 0.0820313,0.117187505 0.24609375,0.117187505 H 5.3798203 c 0.1640625,0 0.1757813,0 0.2109375,-0.023437505 0.023437,-0.0234375 0.035156,-0.03515625 0.082031,-0.15234375 0.1054687,-0.234375 0.8671875,-1.94531247 0.8671875,-2.01562497 0,-0.082031 -0.046875,-0.1171875 -0.1171875,-0.1171875 -0.070312,0 -0.082031,0 -0.1875,0.2109375 -0.5507813,1.25390622 -0.9140625,1.81640622 -2.4023438,1.81640622 H 2.4618516 c -0.1289063,0 -0.1523438,0 -0.1875,0 -0.082031,-0.0117188 -0.1171875,-0.0234375 -0.1171875,-0.0820313 0,-0.0351563 0,-0.046875 0.046875,-0.2109375 z m 0,0"
       style="fill:#000000;fill-opacity:1;fill-rule:nonzero;stroke:none"
       aria-label="E"
       transform="matrix(1.3333333,0,0,1.3333333,84.448,98.836)" />
    <path
       id="path22"
       d="M 9.7586,-14.17339 H 28.3468"
       style="fill:none;stroke:#000000;stroke-width:0.49814;stroke-linecap:butt;stroke-linejoin:miter;stroke-miterlimit:10;stroke-dasharray:none;stroke-opacity:1"
       transform="matrix(1.3333333,0,0,-1.3333333,19.388,66.405333)" />
    <path
       id="path23"
       d="M 28.3468,-35.43349 V 7.08669 h 14.1734 v -42.52018 z"
       style="fill:#e2b9b9;fill-opacity:1;fill-rule:nonzero;stroke:#000000;stroke-width:0.49814;stroke-linecap:butt;stroke-linejoin:miter;stroke-miterlimit:10;stroke-dasharray:none;stroke-opacity:1"
       transform="matrix(1.3333333,0,0,-1.3333333,19.388,66.405333)" />
    <path
       id="path24"
       d="m 6.25775,-5.6729922 c 0.4804688,-0.7734375 0.9023438,-0.8085937 1.2773438,-0.8203125 0.1171875,-0.011719 0.1289062,-0.1875 0.1289062,-0.1875 0,-0.082031 -0.058594,-0.1289062 -0.1289062,-0.1289062 -0.2578125,0 -0.5507813,0.035156 -0.8203125,0.035156 -0.328125,0 -0.6679688,-0.035156 -0.984375,-0.035156 -0.058594,0 -0.1875,0 -0.1875,0.1992187 0,0.1054688 0.082031,0.1171875 0.1523437,0.1171875 0.2695313,0.011719 0.4570313,0.1171875 0.4570313,0.328125 0,0.1523438 -0.140625,0.3632813 -0.140625,0.375 L 2.9530625,-0.92689844 2.273375,-6.2003359 c 0,-0.1640625 0.2226563,-0.2929688 0.6796875,-0.2929688 0.140625,0 0.2578125,0 0.2578125,-0.1992187 0,-0.09375 -0.082031,-0.1171875 -0.140625,-0.1171875 -0.3984375,0 -0.8320312,0.035156 -1.2421875,0.035156 -0.1757812,0 -0.3632812,-0.011719 -0.5390625,-0.011719 -0.1875,0 -0.375,-0.023437 -0.5390625,-0.023437 -0.0703125,0 -0.1875,0 -0.1875,0.1992187 0,0.1171875 0.0820313,0.1171875 0.24609375,0.1171875 0.55078125,0 0.56250005,0.082031 0.59765625,0.3398438 l 0.7851563,6.14062496 c 0.035156,0.19921875 0.070312,0.234375 0.1992187,0.234375 0.1640625,0 0.1992188,-0.0585938 0.28125,-0.1875 z m 0,0"
       style="fill:#000000;fill-opacity:1;fill-rule:nonzero;stroke:none"
       aria-label="V"
       transform="matrix(1.3333333,0,0,1.3333333,61.281333,89.841333)" />
    <path
       id="path25"
       d="M 42.5202,0 H 85.0404"
       style="fill:none;stroke:#000000;stroke-width:0.49814;stroke-linecap:butt;stroke-linejoin:miter;stroke-miterlimit:10;stroke-dasharray:none;stroke-opacity:1"
       transform="matrix(1.3333333,0,0,-1.3333333,19.388,66.405333)" />
    <path
       id="path26"
       d="M 42.5202,-28.3468 H 70.867"
       style="fill:none;stroke:#000000;stroke-width:0.49814;stroke-linecap:butt;stroke-linejoin:miter;stroke-miterlimit:10;stroke-dasharray:none;stroke-opacity:1"
       transform="matrix(1.3333333,0,0,-1.3333333,19.388,66.405333)" />
    <path
       id="path27"
       d="M 60.94545,28.3468 V -56.69362"
       style="fill:none;stroke:#000000;stroke-width:0.49814;stroke-linecap:butt;stroke-linejoin:miter;stroke-miterlimit:10;stroke-dasharray:2.98883, 2.98883;stroke-dashoffset:0;stroke-opacity:1"
       transform="matrix(1.3333333,0,0,-1.3333333,19.388,66.405333)" />
    <path
       id="path28"
       d="M 70.867,-28.3468 V -42.5202"
       style="fill:none;stroke:#000000;stroke-width:0.49814;stroke-linecap:butt;stroke-linejoin:miter;stroke-miterlimit:10;stroke-dasharray:none;stroke-opacity:1"
       transform="matrix(1.3333333,0,0,-1.3333333,19.388,66.405333)" />
    <path
       id="path29"
       d="m 66.61517,-42.5202 h 8.50368"
       style="fill:none;stroke:#000000;stroke-width:0.49814;stroke-linecap:butt;stroke-linejoin:miter;stroke-miterlimit:10;stroke-dasharray:none;stroke-opacity:1"
       transform="matrix(1.3333333,0,0,-1.3333333,19.388,66.405333)" />
    <path
       id="path30"
       d="m 69.44957,-45.35506 h 2.83487"
       style="fill:none;stroke:#000000;stroke-width:0.49814;stroke-linecap:butt;stroke-linejoin:miter;stroke-miterlimit:10;stroke-dasharray:none;stroke-opacity:1"
       transform="matrix(1.3333333,0,0,-1.3333333,19.388,66.405333)" />
    <path
       id="path31"
       d="m 9.6795547,-4.6529141 c 0.1992187,0 0.4570313,0 0.4570313,-0.2578125 0,-0.2695312 -0.2343751,-0.2695312 -0.4570313,-0.2695312 H 1.2303359 c -0.1992187,0 -0.45703121,0 -0.45703121,0.2578125 0,0.2695312 0.24609371,0.2695312 0.45703121,0.2695312 z m 0,2.671875 c 0.1992187,0 0.4570313,0 0.4570313,-0.2578125 0,-0.2695312 -0.2343751,-0.2695312 -0.4570313,-0.2695312 H 1.2303359 c -0.1992187,0 -0.45703121,0 -0.45703121,0.2578125 0,0.2695312 0.24609371,0.2695312 0.45703121,0.2695312 z m 0,0"
       style="fill:#000000;fill-opacity:1;fill-rule:nonzero;stroke:none"
       aria-label="="
       transform="matrix(1.3333333,0,0,1.3333333,163.28533,88.754667)" />
    <g
       id="g31"
       aria-label="|ψ⟩"
       transform="matrix(1.3333333,0,0,1.3333333,218.94267,88.292)">
      <path
         id="path32"
         d="m 1.4638984,-6.3859922 c 0,-0.1523437 0,-0.3398437 -0.1875,-0.3398437 -0.1875,0 -0.1875,0.1757812 -0.1875,0.3398437 v 8.296875 c 0,0.1523438 0,0.328125 0.1875,0.328125 0.1875,0 0.1875,-0.1640625 0.1875,-0.328125 z m 0,0"
         style="fill:#000000;fill-opacity:1;fill-rule:nonzero;stroke:none" />
      <path
         id="path33"
         d="m 7.0127266,-6.1164609 c 0,-0.011719 0,-0.1054688 -0.1171875,-0.1054688 -0.1054688,0 -0.1171875,0.046875 -0.1523438,0.1875 l -1.4648437,5.89453126 c -0.6445313,-0.0820313 -1.0546875,-0.375 -1.0546875,-0.99609376 0,-0.1875 0.035156,-0.4570312 0.4570312,-1.5703125 0.070312,-0.1992187 0.1289063,-0.328125 0.1289063,-0.5039062 0,-0.4335938 -0.328125,-0.75 -0.7734375,-0.75 -0.8554688,0 -1.21875,1.2773437 -1.21875,1.3828125 0,0.082031 0.070312,0.1054687 0.1289062,0.1054687 0.09375,0 0.1054688,-0.058594 0.140625,-0.1757812 0.1875,-0.65625 0.5507813,-1.0898438 0.9257813,-1.0898438 0.1757812,0 0.2109375,0.1171875 0.2109375,0.2929688 0,0.2109375 -0.058594,0.3984375 -0.1289063,0.5976562 -0.4453125,1.1132813 -0.4921875,1.4179688 -0.4921875,1.640625 0,0.65625001 0.4335938,1.2070312625 1.6054688,1.28906251 L 4.8096016,1.7351016 c 0,0.011719 0,0.1054687 0.1171875,0.1054687 0.1054687,0 0.1171875,-0.023437 0.1640625,-0.2226562 0.1171875,-0.5039063 0.2578125,-1.00781254 0.375,-1.52343754 0.3164062,0 1.2539062,0 2.1445312,-1.11328126 0.4335938,-0.5390625 0.5859375,-0.984375 0.75,-1.8046875 0.046875,-0.2578125 0.046875,-0.3984375 0.046875,-0.4804687 0,-0.6328125 -0.3398437,-0.6679688 -0.4101562,-0.6679688 -0.234375,0 -0.4570313,0.2460938 -0.4570313,0.4453125 0,0.140625 0.070312,0.2109375 0.140625,0.2695313 0.234375,0.2226562 0.3164063,0.5039062 0.3164063,0.7382812 0,0.375 -0.2460938,1.0664063 -0.84375,1.66406251 -0.7148438,0.703125 -1.3007813,0.7265625 -1.6289063,0.7265625 z m 0,0"
         style="fill:#000000;fill-opacity:1;fill-rule:nonzero;stroke:none" />
      <path
         id="path34"
         d="m 11.401398,-2.0734922 c 0.05859,-0.1289062 0.05859,-0.1523437 0.05859,-0.1640625 0,-0.035156 0,-0.046875 -0.05859,-0.1757812 L 9.8193672,-6.5031797 c -0.070312,-0.1640625 -0.1171875,-0.2226562 -0.2226563,-0.2226562 -0.1054687,0 -0.1875,0.082031 -0.1875,0.1992187 0,0.023437 0,0.035156 0.046875,0.1640625 l 1.5937501,4.1132813 -1.5937501,4.125 c -0.046875,0.1289062 -0.046875,0.140625 -0.046875,0.1640625 0,0.1171875 0.082031,0.1875 0.1875,0.1875 0.1054688,0 0.1523438,-0.046875 0.2226563,-0.2109375 z m 0,0"
         style="fill:#000000;fill-opacity:1;fill-rule:nonzero;stroke:none" />
    </g>
    <path
       id="path35"
       d="m 1.6298984,-1.0555625 c -0.4335937,0.7265625 -0.83203121,0.75 -1.19531246,0.7734375 -0.0585938,0.0117188 -0.10546875,0.0820313 -0.10546875,0.1640625 0,0.05859375 0.0351563,0.1171875 0.12890625,0.1171875 0.17578125,0 0.59765626,-0.0234375 0.76171876,-0.0234375 0.1992187,0 0.6796875,0.0234375 0.8789062,0.0234375 0.058594,0 0.1757813,0 0.1757813,-0.1640625 0,-0.10546875 -0.1171875,-0.1171875 -0.140625,-0.1171875 -0.082031,0 -0.421875,-0.0234375 -0.421875,-0.29296875 0,-0.12890625 0.1054687,-0.29296875 0.1289062,-0.33984375 l 0.703125,-1.1601563 h 2.34375 c 0.023437,0.2109375 0.058594,0.515625 0.082031,0.7382813 0.035156,0.3515625 0.082031,0.75 0.082031,0.7734375 0,0.12890625 -0.1171875,0.28125 -0.6445312,0.28125 -0.082031,0 -0.1992188,0 -0.1992188,0.1640625 0,0.09375 0.070312,0.1171875 0.1289063,0.1171875 0.1757812,0 0.3867187,-0.0234375 0.5625,-0.0234375 0.1875,0 0.3984375,0 0.5390625,0 0.3046875,0 0.3164062,0 0.5273437,0 0.1523438,0.01171875 0.3515625,0.0234375 0.5039063,0.0234375 0.046875,0 0.1640625,0 0.1640625,-0.1640625 0,-0.1171875 -0.09375,-0.1171875 -0.1992188,-0.1171875 -0.5390625,0 -0.5507812,-0.0585938 -0.5742187,-0.31640625 L 5.2275547,-6.1766563 C 5.2041172,-6.375875 5.2041172,-6.42275 5.0517734,-6.42275 c -0.1289062,0 -0.1875,0.070312 -0.2578125,0.1875 z M 2.7197422,-2.344625 4.5244297,-5.3094688 4.8642734,-2.344625 Z m 0,0"
       style="fill:#000000;fill-opacity:1;fill-rule:nonzero;stroke:none"
       aria-label="A"
       transform="matrix(1.3333333,0,0,1.3333333,247.22133,79.938667)" />
    <path
       id="path36"
       d="m 2.8117344,-3.0352031 h 0.9140625 c 0.6445312,0 0.7734375,0.1171875 0.7734375,0.4101562 0,0.070312 -0.023437,0.2578125 -0.058594,0.3984375 -0.023437,0.058594 -0.035156,0.1054688 -0.035156,0.1289063 0,0.011719 0,0.1171875 0.1171875,0.1171875 0.1171875,0 0.1171875,-0.058594 0.1523437,-0.1992188 l 0.4804688,-1.8867187 c 0.035156,-0.1171875 0.035156,-0.140625 0.035156,-0.1757813 0,-0.070312 -0.058594,-0.1171875 -0.1289062,-0.1171875 -0.09375,0 -0.1054688,0.058594 -0.1523438,0.2226563 -0.1757812,0.7148437 -0.4570312,0.8320312 -1.171875,0.8320312 H 2.8820469 c 0.140625,-0.5625 0.5625,-2.2617187 0.609375,-2.3671875 0.046875,-0.1289062 0.1171875,-0.140625 0.4101562,-0.140625 h 1.3125 c 1.125,0 1.3710938,0.2578125 1.3710938,0.984375 0,0.28125 -0.046875,0.5507813 -0.046875,0.609375 0,0.082031 0.046875,0.140625 0.1289062,0.140625 0.1054688,0 0.1171875,-0.058594 0.140625,-0.2226562 l 0.1875,-1.6640625 c 0,-0.1289063 -0.09375,-0.1289063 -0.2578125,-0.1289063 H 2.1203281 c -0.1757812,0 -0.2695312,0 -0.2695312,0.1640625 0,0.1171875 0.082031,0.1171875 0.2695312,0.1171875 0.035156,0 0.1992188,0 0.3398438,0.011719 0.1992187,0.023437 0.2109375,0.058594 0.2109375,0.140625 0,0.035156 0,0.046875 -0.046875,0.2109375 l -1.1953125,4.76953122 c -0.070312,0.31640625 -0.09375,0.3984375 -0.76171877,0.3984375 -0.17578125,0 -0.26953125,0 -0.26953125,0.1640625 0,0.117187505 0.0820313,0.117187505 0.24609375,0.117187505 H 5.3781406 c 0.1640625,0 0.1757813,0 0.2109375,-0.023437505 0.023437,-0.0234375 0.035156,-0.03515625 0.082031,-0.15234375 0.1054687,-0.234375 0.8671875,-1.94531247 0.8671875,-2.01562497 0,-0.082031 -0.046875,-0.1171875 -0.1171875,-0.1171875 -0.070312,0 -0.082031,0 -0.1875,0.2109375 -0.5507813,1.25390622 -0.9140625,1.81640622 -2.4023438,1.81640622 H 2.4601719 c -0.1289063,0 -0.1523438,0 -0.1875,0 -0.082031,-0.0117188 -0.1171875,-0.0234375 -0.1171875,-0.0820313 0,-0.0351563 0,-0.046875 0.046875,-0.2109375 z m 0,0"
       style="fill:#000000;fill-opacity:1;fill-rule:nonzero;stroke:none"
       aria-label="E"
       transform="matrix(1.3333333,0,0,1.3333333,292.32133,98.836)" />
    <path
       id="path37"
       d="m 165.66605,-14.17339 h 18.58819"
       style="fill:none;stroke:#000000;stroke-width:0.49814;stroke-linecap:butt;stroke-linejoin:miter;stroke-miterlimit:10;stroke-dasharray:none;stroke-opacity:1"
       transform="matrix(1.3333333,0,0,-1.3333333,19.388,66.405333)" />
    <path
       id="path38"
       d="M 184.25424,-35.43349 V 7.08669 h 14.17342 v -42.52018 z"
       style="fill:#e2b9b9;fill-opacity:1;fill-rule:nonzero;stroke:#000000;stroke-width:0.49814;stroke-linecap:butt;stroke-linejoin:miter;stroke-miterlimit:10;stroke-dasharray:none;stroke-opacity:1"
       transform="matrix(1.3333333,0,0,-1.3333333,19.388,66.405333)" />
    <path
       id="path39"
       d="m 6.259,-5.6729922 c 0.4804687,-0.7734375 0.9023437,-0.8085937 1.2773437,-0.8203125 0.1171875,-0.011719 0.1289063,-0.1875 0.1289063,-0.1875 0,-0.082031 -0.058594,-0.1289062 -0.1289063,-0.1289062 -0.2578125,0 -0.5507812,0.035156 -0.8203125,0.035156 -0.328125,0 -0.6679687,-0.035156 -0.984375,-0.035156 -0.058594,0 -0.1875,0 -0.1875,0.1992187 0,0.1054688 0.082031,0.1171875 0.1523438,0.1171875 0.2695312,0.011719 0.4570312,0.1171875 0.4570312,0.328125 0,0.1523438 -0.140625,0.3632813 -0.140625,0.375 L 2.9543125,-0.92689844 2.274625,-6.2003359 c 0,-0.1640625 0.2226562,-0.2929688 0.6796875,-0.2929688 0.140625,0 0.2578125,0 0.2578125,-0.1992187 0,-0.09375 -0.082031,-0.1171875 -0.140625,-0.1171875 -0.3984375,0 -0.8320313,0.035156 -1.2421875,0.035156 -0.1757813,0 -0.3632813,-0.011719 -0.5390625,-0.011719 -0.1875,0 -0.375,-0.023437 -0.5390625,-0.023437 -0.0703125,0 -0.1875,0 -0.1875,0.1992187 0,0.1171875 0.0820313,0.1171875 0.24609375,0.1171875 0.55078125,0 0.56249995,0.082031 0.59765625,0.3398438 l 0.7851562,6.14062496 c 0.035156,0.19921875 0.070312,0.234375 0.1992188,0.234375 0.1640625,0 0.1992187,-0.0585938 0.28125,-0.1875 z m 0,0"
       style="fill:#000000;fill-opacity:1;fill-rule:nonzero;stroke:none"
       aria-label="V"
       transform="matrix(1.3333333,0,0,1.3333333,269.15467,89.841333)" />
    <path
       id="path40"
       d="m 198.42766,0 h 28.34682"
       style="fill:none;stroke:#000000;stroke-width:0.49814;stroke-linecap:butt;stroke-linejoin:miter;stroke-miterlimit:10;stroke-dasharray:none;stroke-opacity:1"
       transform="matrix(1.3333333,0,0,-1.3333333,19.388,66.405333)" />
    <path
       id="path41"
       d="m 198.42766,-28.3468 h 28.34682"
       style="fill:none;stroke:#000000;stroke-width:0.49814;stroke-linecap:butt;stroke-linejoin:miter;stroke-miterlimit:10;stroke-dasharray:none;stroke-opacity:1"
       transform="matrix(1.3333333,0,0,-1.3333333,19.388,66.405333)" />
    <path
       id="path42"
       d="M 226.77448,0 V 14.17339"
       style="fill:none;stroke:#000000;stroke-width:0.49814;stroke-linecap:butt;stroke-linejoin:miter;stroke-miterlimit:10;stroke-dasharray:none;stroke-opacity:1"
       transform="matrix(1.3333333,0,0,-1.3333333,19.388,66.405333)" />
    <path
       id="path43"
       d="m 222.52261,14.17339 h 8.50369"
       style="fill:none;stroke:#000000;stroke-width:0.49814;stroke-linecap:butt;stroke-linejoin:miter;stroke-miterlimit:10;stroke-dasharray:none;stroke-opacity:1"
       transform="matrix(1.3333333,0,0,-1.3333333,19.388,66.405333)" />
    <path
       id="path44"
       d="m 225.35704,17.00824 h 2.83486"
       style="fill:none;stroke:#000000;stroke-width:0.49814;stroke-linecap:butt;stroke-linejoin:miter;stroke-miterlimit:10;stroke-dasharray:none;stroke-opacity:1"
       transform="matrix(1.3333333,0,0,-1.3333333,19.388,66.405333)" />
    <path
       id="path45"
       d="m 226.77448,-28.3468 c 14.1734,0 0,28.3468 14.1734,28.3468"
       style="fill:none;stroke:#000000;stroke-width:0.49814;stroke-linecap:butt;stroke-linejoin:miter;stroke-miterlimit:10;stroke-dasharray:none;stroke-opacity:1"
       transform="matrix(1.3333333,0,0,-1.3333333,19.388,66.405333)" />
    <path
       id="path46"
       d="m 240.94788,0 h 14.17338"
       style="fill:none;stroke:#000000;stroke-width:0.49814;stroke-linecap:butt;stroke-linejoin:miter;stroke-miterlimit:10;stroke-dasharray:none;stroke-opacity:1"
       transform="matrix(1.3333333,0,0,-1.3333333,19.388,66.405333)" />
    <path
       id="path47"
       d="m 1.4661328,-0.67846094 c -0.082031,0.31640625 -0.1054687,0.3984375 -0.77343749,0.3984375 -0.17578125,0 -0.26953125,0 -0.26953125,0.1640625 0,0.1171875 0.09375,0.1171875 0.24609375,0.1171875 H 3.9387891 c 1.453125,0 2.5195312,-1.05468746 2.5195312,-1.92187496 0,-0.6445313 -0.5273437,-1.1835938 -1.4179687,-1.2773438 1.0195312,-0.1992187 1.8867187,-0.8789062 1.8867187,-1.6757812 0,-0.703125 -0.6445312,-1.2421875 -1.7109375,-1.2421875 H 2.1575391 c -0.1640625,0 -0.2695313,0 -0.2695313,0.1523437 0,0.1171875 0.082031,0.1171875 0.2695313,0.1171875 0.035156,0 0.1875,0 0.3398437,0.023437 0.1523438,0.011719 0.2109375,0.035156 0.2109375,0.1289063 0,0.046875 -0.011719,0.082031 -0.035156,0.1875 z M 2.8606641,-3.3034609 3.4114453,-5.4948672 c 0.082031,-0.3164062 0.09375,-0.3515625 0.46875,-0.3515625 h 1.21875 c 0.9257813,0 1.0078125,0.7148438 1.0078125,0.9375 0,0.796875 -0.8320312,1.6054688 -1.8515625,1.6054688 z m -0.4335938,3.02343746 c -0.1171875,0 -0.140625,0 -0.1757812,0 -0.09375,-0.0117188 -0.1171875,-0.0234375 -0.1171875,-0.0820313 0,-0.0351563 0,-0.046875 0.046875,-0.2109375 L 2.8020703,-3.0690859 h 1.6757813 c 0.5625,0 1.125,0.234375 1.125,1.0546875 0,0.890625 -0.8085938,1.73437496 -1.8867188,1.73437496 z m 0,0"
       style="fill:#000000;fill-opacity:1;fill-rule:nonzero;stroke:none"
       aria-label="B"
       transform="matrix(1.3333333,0,0,1.3333333,343.26,61.041333)" />
  </g>
</svg>
