<?xml version="1.0" encoding="UTF-8" standalone="no"?>
<!-- Created with Inkscape (http://www.inkscape.org/) -->

<svg
   version="1.1"
   id="svg1"
   width="373.16"
   height="143.74001"
   viewBox="0 0 373.16 143.74001"
   sodipodi:docname="qec_fig_2.pdf"
   xmlns:inkscape="http://www.inkscape.org/namespaces/inkscape"
   xmlns:sodipodi="http://sodipodi.sourceforge.net/DTD/sodipodi-0.dtd"
   xmlns="http://www.w3.org/2000/svg"
   xmlns:svg="http://www.w3.org/2000/svg">
  <defs
     id="defs1" />
  <sodipodi:namedview
     id="namedview1"
     pagecolor="#ffffff"
     bordercolor="#000000"
     borderopacity="0.25"
     inkscape:showpageshadow="2"
     inkscape:pageopacity="0.0"
     inkscape:pagecheckerboard="0"
     inkscape:deskcolor="#d1d1d1">
    <inkscape:page
       x="0"
       y="0"
       inkscape:label="1"
       id="page1"
       width="373.16"
       height="143.74001"
       margin="0"
       bleed="0" />
  </sodipodi:namedview>
  <g
     id="g1"
     inkscape:groupmode="layer"
     inkscape:label="1">
    <g
       id="g2"
       aria-label="|Φ⟩"
       transform="matrix(1.3333333,0,0,1.3333333,11.069333,72.056)">
      <path
         id="path2"
         d="m 1.5827656,-7.1142656 c 0,-0.1757813 0,-0.3632813 -0.1992187,-0.3632813 -0.1992188,0 -0.1992188,0.1875 -0.1992188,0.3632813 v 9.2460937 c 0,0.1757813 0,0.3632813 0.1992188,0.3632813 0.1992187,0 0.1992187,-0.1875 0.1992187,-0.3632813 z m 0,0"
         style="fill:#000000;fill-opacity:1;fill-rule:nonzero;stroke:none" />
      <path
         id="path3"
         d="m 6.7390156,-1.3486406 c 1.546875,-0.1171875 2.6484375,-1.0429688 2.6484375,-2.0507813 0,-1.03125 -1.1367187,-1.9453125 -2.6484375,-2.0625 v -0.5507812 c 0,-0.3398438 0,-0.4804688 0.9492188,-0.4804688 h 0.328125 v -0.3164062 c -0.3632813,0.035156 -1.2773438,0.035156 -1.6875,0.035156 -0.4101563,0 -1.3359375,0 -1.6875,-0.035156 v 0.3164062 h 0.328125 c 0.9492187,0 0.9492187,0.1289063 0.9492187,0.4804688 v 0.5507812 c -1.5234375,0.1523438 -2.5898437,1.0664063 -2.5898437,2.0507813 0,1.03125 1.1015625,1.9101562 2.5898437,2.0625 v 0.56249998 c 0,0.33984375 0,0.48046875 -0.9492187,0.48046875 H 4.6413594 V -9.84375e-4 C 4.9929219,-0.03614062 5.9187031,-0.03614062 6.3171406,-0.03614062 c 0.4101563,0 1.3359375,0 1.6992188,0.035156245 V -0.30567187 h -0.328125 c -0.9492188,0 -0.9492188,-0.12890625 -0.9492188,-0.48046875 z M 5.9187031,-1.5712969 c -1.4179687,-0.1875 -1.59375,-1.2070312 -1.59375,-1.828125 0,-0.515625 0.09375,-1.6289062 1.59375,-1.828125 z m 0.8203125,-3.6679687 c 1.3710938,0.1523437 1.6523438,1.078125 1.6523438,1.828125 0,0.5976562 -0.140625,1.6640625 -1.6523438,1.8515625 z m 0,0"
         style="fill:#000000;fill-opacity:1;fill-rule:nonzero;stroke:none" />
      <path
         id="path4"
         d="m 12.680422,-2.3212969 c 0.04687,-0.1171875 0.04687,-0.140625 0.04687,-0.1757812 0,-0.023437 0,-0.046875 -0.04687,-0.1640625 l -1.746094,-4.5820313 c -0.05859,-0.1640625 -0.117187,-0.234375 -0.222656,-0.234375 -0.117188,0 -0.199219,0.09375 -0.199219,0.1992188 0,0.035156 0,0.058594 0.04687,0.1640625 l 1.757813,4.6171875 -1.757813,4.6054687 c -0.04687,0.1171875 -0.04687,0.1289063 -0.04687,0.1875 0,0.1054688 0.08203,0.1992188 0.199219,0.1992188 0.128906,0 0.164062,-0.1054688 0.210937,-0.1992188 z m 0,0"
         style="fill:#000000;fill-opacity:1;fill-rule:nonzero;stroke:none" />
    </g>
    <path
       id="path5"
       d="M 0,0 14.17339,14.17339 H 42.5202"
       style="fill:none;stroke:#000000;stroke-width:0.49814;stroke-linecap:butt;stroke-linejoin:miter;stroke-miterlimit:10;stroke-dasharray:none;stroke-opacity:1"
       transform="matrix(1.3333333,0,0,-1.3333333,39.192,68.734667)" />
    <path
       id="path6"
       d="M 0,0 14.17339,-14.17339 H 42.5202"
       style="fill:none;stroke:#000000;stroke-width:0.49814;stroke-linecap:butt;stroke-linejoin:miter;stroke-miterlimit:10;stroke-dasharray:none;stroke-opacity:1"
       transform="matrix(1.3333333,0,0,-1.3333333,39.192,68.734667)" />
    <path
       id="path7"
       d="M 42.5202,14.17339 H 212.60106"
       style="fill:none;stroke:#000000;stroke-width:0.49814;stroke-linecap:butt;stroke-linejoin:miter;stroke-miterlimit:10;stroke-dasharray:none;stroke-opacity:1"
       transform="matrix(1.3333333,0,0,-1.3333333,39.192,68.734667)" />
    <path
       id="path8"
       d="m 3.4108125,-5.4966016 c 0.058594,-0.2226562 0.082031,-0.3164062 0.2460938,-0.3398437 0.082031,-0.011719 0.375,-0.011719 0.5625,-0.011719 0.7148437,0 1.6992187,0 1.6992187,0.9023438 0,0.3398437 -0.140625,1.0078125 -0.6445312,1.3945312 -0.2226563,0.140625 -0.6679688,0.375 -1.3945313,0.375 H 2.8365938 Z m 1.3945313,2.4609375 c 1.21875,-0.3164062 1.96875,-0.9960937 1.96875,-1.734375 0,-0.7851562 -0.84375,-1.3476562 -2.0390625,-1.3476562 H 2.1334688 c -0.1640625,0 -0.2695313,0 -0.2695313,0.1523437 0,0.1171875 0.082031,0.1171875 0.2695313,0.1171875 0.035156,0 0.1992187,0 0.3398437,0.023437 0.1523438,0.011719 0.2109375,0.035156 0.2109375,0.1289063 0,0.046875 0,0.082031 -0.035156,0.1875 l -1.2070313,4.82812499 c -0.082031,0.31640625 -0.09375,0.3984375 -0.7734375,0.3984375 -0.1640625,0 -0.26953125,0 -0.26953125,0.1640625 0,0.09375 0.0820313,0.1171874975 0.140625,0.1171874975 0.140625,0 0.41015625,-0.0117187475 0.56250005,-0.0234374975 0.1875,0 0.2109375,0 0.5625,0 0.28125,0 0.3046875,0 0.5625,0 0.1875,0.01171875 0.4101562,0.0234374975 0.5742187,0.0234374975 0.070312,0 0.1875,0 0.1875,-0.1640624975 0,-0.1171875 -0.09375,-0.1171875 -0.28125,-0.1171875 -0.035156,0 -0.1992187,0 -0.3398437,-0.0117188 -0.1992188,-0.0351563 -0.2109375,-0.0703125 -0.2109375,-0.140625 0,-0.0351563 0,-0.046875 0.046875,-0.2109375 L 2.778,-2.9536328 h 1.1015625 c 0.8085938,0 1.0195313,0.46875 1.0195313,0.8085937 0,0.070312 0,0.1289063 -0.058594,0.328125 -0.2109375,0.82031254 -0.2109375,0.90234379 -0.2109375,1.03125004 0,0.80859375 0.7617188,0.984375 1.21875,0.984375 0.7734375,0 1.1015625,-0.90234375 1.1015625,-1.0546875 0,-0.0585938 -0.058594,-0.10546875 -0.1171875,-0.10546875 -0.09375,0 -0.1054687,0.046875 -0.140625,0.15234375 -0.1523437,0.46875 -0.4921875,0.78515625 -0.8203125,0.78515625 -0.3398437,0 -0.3632812,-0.26953125 -0.3632812,-0.52734375 0,-0.234375 0.070312,-0.75000004 0.082031,-0.80859374 0.011719,-0.1523438 0.058594,-0.5039063 0.058594,-0.6445313 0,-0.5039062 -0.328125,-0.8554687 -0.8437498,-1.03125 z m 0,0"
       style="fill:#000000;fill-opacity:1;fill-rule:nonzero;stroke:none"
       aria-label="R"
       transform="matrix(1.3333333,0,0,1.3333333,72.296,44.473333)" />
    <path
       id="path9"
       d="m 1.6280859,-1.0535391 c -0.4335937,0.72656254 -0.83203121,0.75000004 -1.19531246,0.77343754 -0.0585938,0.0117188 -0.10546875,0.0820313 -0.10546875,0.1640625 0,0.05859375 0.0351563,0.1171875 0.12890625,0.1171875 0.17578125,0 0.59765626,-0.0234375 0.76171876,-0.0234375 0.1992187,0 0.6796875,0.0234375 0.8789062,0.0234375 0.058594,0 0.1757813,0 0.1757813,-0.1640625 0,-0.10546875 -0.1171875,-0.1171875 -0.140625,-0.1171875 -0.082031,0 -0.421875,-0.0234375 -0.421875,-0.29296875 0,-0.12890625 0.1054687,-0.29296875 0.1289062,-0.33984375 l 0.703125,-1.16015624 h 2.34375 c 0.023437,0.2109375 0.058594,0.515625 0.082031,0.7382812 0.035156,0.35156254 0.082031,0.75000004 0.082031,0.77343754 0,0.12890625 -0.1171875,0.28125 -0.6445312,0.28125 -0.082031,0 -0.1992188,0 -0.1992188,0.1640625 0,0.09375 0.070312,0.1171875 0.1289063,0.1171875 0.1757812,0 0.3867187,-0.0234375 0.5625,-0.0234375 0.1875,0 0.3984375,0 0.5390625,0 0.3046875,0 0.3164062,0 0.5273437,0 0.1523438,0.01171875 0.3515625,0.0234375 0.5039063,0.0234375 0.046875,0 0.1640625,0 0.1640625,-0.1640625 0,-0.1171875 -0.09375,-0.1171875 -0.1992188,-0.1171875 -0.5390625,0 -0.5507812,-0.0585938 -0.5742187,-0.31640625 L 5.2257422,-6.1746328 c -0.023437,-0.1992188 -0.023437,-0.2460938 -0.1757813,-0.2460938 -0.1289062,0 -0.1875,0.070312 -0.2578125,0.1875 z m 1.0898438,-1.2890625 1.8046875,-2.9648437 0.3398437,2.9648437 z m 0,0"
       style="fill:#000000;fill-opacity:1;fill-rule:nonzero;stroke:none"
       aria-label="A"
       transform="matrix(1.3333333,0,0,1.3333333,72.38,82.268)" />
    <path
       id="path10"
       d="M 42.5202,-42.5202 V -7.08669 H 63.7803 V -42.5202 Z"
       style="fill:#e2b9b9;fill-opacity:1;fill-rule:nonzero;stroke:#000000;stroke-width:0.49814;stroke-linecap:butt;stroke-linejoin:miter;stroke-miterlimit:10;stroke-dasharray:none;stroke-opacity:1"
       transform="matrix(1.3333333,0,0,-1.3333333,39.192,68.734667)" />
    <g
       id="g10"
       aria-label="U&#10;E"
       transform="matrix(1.3333333,0,0,1.3333333,101.93467,105.348)">
      <path
         id="path11"
         d="m 6.3273203,-5.7541641 c 0.09375,-0.4101562 0.28125,-0.7148437 1.078125,-0.7382812 0.046875,0 0.1640625,-0.011719 0.1640625,-0.1992188 0,-0.011719 0,-0.1171875 -0.1289062,-0.1171875 -0.328125,0 -0.6796875,0.035156 -1.0195313,0.035156 -0.3398437,0 -0.703125,-0.035156 -1.03125,-0.035156 -0.058594,0 -0.1757812,0 -0.1757812,0.1992188 0,0.1171875 0.09375,0.1171875 0.1757812,0.1171875 0.5625,0.011719 0.6796875,0.2109375 0.6796875,0.4335937 0,0.035156 -0.023437,0.1757813 -0.035156,0.2109375 l -0.890625,3.5507813 c -0.3398438,1.33593749 -1.4882813,2.20312499 -2.484375,2.20312499 -0.6796875,0 -1.21875,-0.43359375 -1.21875,-1.28906249 0,-0.023437 0,-0.3398438 0.1171875,-0.7734375 l 0.9609375,-3.8789063 c 0.09375,-0.3632812 0.1054687,-0.4570312 0.8320312,-0.4570312 0.2695313,0 0.3398438,0 0.3398438,-0.1992188 0,-0.1171875 -0.1054688,-0.1171875 -0.140625,-0.1171875 -0.2695313,0 -0.9960938,0.035156 -1.265625,0.035156 -0.2929688,0 -0.9960938,-0.035156 -1.28906254,-0.035156 -0.0820313,0 -0.1875,0 -0.1875,0.1992188 0,0.1171875 0.09375,0.1171875 0.28125004,0.1171875 0.011719,0 0.2109375,0 0.375,0.011719 0.1757812,0.023437 0.2695312,0.035156 0.2695312,0.1640625 0,0.058594 -0.1054687,0.4804688 -0.1757812,0.703125 l -0.2109375,0.8789063 c -0.09375,0.3867187 -0.57421879,2.2734375 -0.60937504,2.4609375 -0.0703125,0.28125 -0.0703125,0.4335937 -0.0703125,0.5742187 0,1.21875004 0.90234374,1.92187504 1.95703124,1.92187504 1.2539063,0 2.484375,-1.125 2.8125,-2.44921874 z m 0,0"
         style="fill:#000000;fill-opacity:1;fill-rule:nonzero;stroke:none" />
      <path
         id="path12"
         d="m 8.6534922,-1.0256484 c -1.21875,0.58593746 -1.5117188,1.44140621 -1.5117188,1.79296871 0,0.57421879 0.6210938,0.86718749 1.3242188,0.86718749 1.265625,0 2.2968748,-1.11328124 2.2968748,-1.25390624 0,-0.046875 -0.05859,-0.046875 -0.08203,-0.046875 -0.01172,0 -0.269531,0 -0.550781,0.328125 -0.1757816,0.1875 -0.5156253,0.55078124 -1.1718753,0.55078124 -0.421875,0 -1.171875,-0.1640625 -1.171875,-0.76171874 0,-0.43359375 0.4335937,-1.32421875 1.6054687,-1.359375 0.1289063,0 0.2226563,-0.0117188 0.4101563,-0.11718746 0.070312,-0.058594 0.2226563,-0.1640625 0.2226563,-0.2578125 0,-0.046875 -0.058594,-0.058594 -0.070313,-0.058594 -1.0078125,-0.035156 -1.3476562,-0.3867187 -1.3476562,-0.7734375 0,-0.2929687 0.1640625,-0.5390625 0.3164062,-0.65625 0.2460938,-0.1640625 0.6445313,-0.2109375 0.8671875,-0.2109375 0.09375,0 0.2812505,0.011719 0.4687505,0.070312 0.08203,0.023437 0.257812,0.082031 0.257812,0.3046875 0,0.082031 -0.02344,0.1523438 -0.05859,0.2226563 -0.02344,0.023437 -0.04687,0.058594 -0.04687,0.082031 0,0.046875 0.05859,0.058594 0.09375,0.058594 0.199218,0 0.65625,-0.2578125 0.65625,-0.6796875 0,-0.3867188 -0.421875,-0.4804688 -0.878907,-0.4804688 -1.1484375,0 -2.3203125,0.7734375 -2.3203125,1.6054688 0,0.4335937 0.3632813,0.6679687 0.6914063,0.7734375 z m 0,0"
         style="fill:#000000;fill-opacity:1;fill-rule:nonzero;stroke:none" />
    </g>
    <g
       id="g12"
       aria-label="|0⟩"
       transform="matrix(1.3333333,0,0,1.3333333,50.34,119.3)">
      <path
         id="path13"
         d="m 1.5819141,-7.1126953 c 0,-0.1757813 0,-0.3632813 -0.1992188,-0.3632813 -0.1992187,0 -0.1992187,0.1875 -0.1992187,0.3632813 v 9.2460937 c 0,0.1757813 0,0.3632813 0.1992187,0.3632813 0.1992188,0 0.1992188,-0.1875 0.1992188,-0.3632813 z m 0,0"
         style="fill:#000000;fill-opacity:1;fill-rule:nonzero;stroke:none" />
      <path
         id="path14"
         d="m 7.3504687,-3.1869141 c 0,-0.796875 -0.046875,-1.59375 -0.3984375,-2.3320312 -0.4570312,-0.9609375 -1.2773437,-1.1132813 -1.6875,-1.1132813 -0.5976562,0 -1.3359375,0.2578125 -1.734375,1.1835938 -0.328125,0.6914062 -0.375,1.4648437 -0.375,2.2617187 0,0.75 0.046875,1.640625 0.4453125,2.40234379 0.4335938,0.80859375 1.1601563,1.0078125 1.6523438,1.0078125 0.5390625,0 1.2890625,-0.2109375 1.734375,-1.16015625 C 7.3035937,-1.6283203 7.3504687,-2.4017578 7.3504687,-3.1869141 Z M 5.2528125,5.859375e-4 c -0.3867188,0 -0.984375,-0.2460937475 -1.1601563,-1.2070312375 -0.1054687,-0.5976563 -0.1054687,-1.5117188 -0.1054687,-2.0976563 0,-0.6445312 0,-1.3007812 0.082031,-1.8398437 0.1875,-1.1835938 0.9257813,-1.265625 1.1835938,-1.265625 0.328125,0 0.984375,0.1757812 1.171875,1.1601562 0.09375,0.5625 0.09375,1.3125 0.09375,1.9453125 0,0.75 0,1.4179688 -0.1054688,2.0625 C 6.260625,-0.30410156 5.698125,5.859375e-4 5.2528125,5.859375e-4 Z m 0,0"
         style="fill:#000000;fill-opacity:1;fill-rule:nonzero;stroke:none" />
      <path
         id="path15"
         d="m 10.467656,-2.3197266 c 0.04687,-0.1171875 0.04687,-0.140625 0.04687,-0.1757812 0,-0.023437 0,-0.046875 -0.04687,-0.1640625 L 8.7215625,-7.2416016 c -0.058594,-0.1640625 -0.1171875,-0.234375 -0.2226563,-0.234375 -0.1171875,0 -0.1992187,0.09375 -0.1992187,0.1992188 0,0.035156 0,0.058594 0.046875,0.1640625 l 1.7578125,4.6171875 -1.7578125,4.6054687 c -0.046875,0.1171875 -0.046875,0.1289063 -0.046875,0.1875 0,0.1054688 0.082031,0.1992188 0.1992187,0.1992188 0.1289063,0 0.1640625,-0.1054688 0.2109375,-0.1992188 z m 0,0"
         style="fill:#000000;fill-opacity:1;fill-rule:nonzero;stroke:none" />
    </g>
    <path
       id="path16"
       d="M 23.50484,-35.43349 H 42.5202"
       style="fill:none;stroke:#000000;stroke-width:0.49814;stroke-linecap:butt;stroke-linejoin:miter;stroke-miterlimit:10;stroke-dasharray:none;stroke-opacity:1"
       transform="matrix(1.3333333,0,0,-1.3333333,39.192,68.734667)" />
    <g
       id="g16"
       aria-label="|0⟩"
       transform="matrix(1.3333333,0,0,1.3333333,135.38,119.3)">
      <path
         id="path17"
         d="m 1.5812109,-7.1126953 c 0,-0.1757813 0,-0.3632813 -0.1992187,-0.3632813 -0.1992188,0 -0.1992188,0.1875 -0.1992188,0.3632813 v 9.2460937 c 0,0.1757813 0,0.3632813 0.1992188,0.3632813 0.1992187,0 0.1992187,-0.1875 0.1992187,-0.3632813 z m 0,0"
         style="fill:#000000;fill-opacity:1;fill-rule:nonzero;stroke:none" />
      <path
         id="path18"
         d="m 7.3497656,-3.1869141 c 0,-0.796875 -0.046875,-1.59375 -0.3984375,-2.3320312 -0.4570312,-0.9609375 -1.2773437,-1.1132813 -1.6875,-1.1132813 -0.5976562,0 -1.3359375,0.2578125 -1.734375,1.1835938 -0.328125,0.6914062 -0.375,1.4648437 -0.375,2.2617187 0,0.75 0.046875,1.640625 0.4453125,2.40234379 0.4335938,0.80859375 1.1601563,1.0078125 1.6523438,1.0078125 0.5390625,0 1.2890625,-0.2109375 1.734375,-1.16015625 C 7.3028906,-1.6283203 7.3497656,-2.4017578 7.3497656,-3.1869141 Z M 5.2521094,5.859375e-4 c -0.3867188,0 -0.984375,-0.2460937475 -1.1601563,-1.2070312375 -0.1054687,-0.5976563 -0.1054687,-1.5117188 -0.1054687,-2.0976563 0,-0.6445312 0,-1.3007812 0.082031,-1.8398437 0.1875,-1.1835938 0.9257813,-1.265625 1.1835938,-1.265625 0.328125,0 0.984375,0.1757812 1.171875,1.1601562 0.09375,0.5625 0.09375,1.3125 0.09375,1.9453125 0,0.75 0,1.4179688 -0.1054688,2.0625 C 6.2599219,-0.30410156 5.6974219,5.859375e-4 5.2521094,5.859375e-4 Z m 0,0"
         style="fill:#000000;fill-opacity:1;fill-rule:nonzero;stroke:none" />
      <path
         id="path19"
         d="m 10.466953,-2.3197266 c 0.04687,-0.1171875 0.04687,-0.140625 0.04687,-0.1757812 0,-0.023437 0,-0.046875 -0.04687,-0.1640625 L 8.7208594,-7.2416016 c -0.058594,-0.1640625 -0.1171875,-0.234375 -0.2226563,-0.234375 -0.1171875,0 -0.1992187,0.09375 -0.1992187,0.1992188 0,0.035156 0,0.058594 0.046875,0.1640625 l 1.7578126,4.6171875 -1.7578126,4.6054687 c -0.046875,0.1171875 -0.046875,0.1289063 -0.046875,0.1875 0,0.1054688 0.082031,0.1992188 0.1992187,0.1992188 0.1289063,0 0.1640625,-0.1054688 0.2109375,-0.1992188 z m 0,0"
         style="fill:#000000;fill-opacity:1;fill-rule:nonzero;stroke:none" />
    </g>
    <path
       id="path20"
       d="M 87.28516,-35.43349 H 99.21382"
       style="fill:none;stroke:#000000;stroke-width:0.49814;stroke-linecap:butt;stroke-linejoin:miter;stroke-miterlimit:10;stroke-dasharray:none;stroke-opacity:1"
       transform="matrix(1.3333333,0,0,-1.3333333,39.192,68.734667)" />
    <path
       id="path21"
       d="M 63.7803,-14.17339 H 99.2138"
       style="fill:none;stroke:#000000;stroke-width:0.49814;stroke-linecap:butt;stroke-linejoin:miter;stroke-miterlimit:10;stroke-dasharray:none;stroke-opacity:1"
       transform="matrix(1.3333333,0,0,-1.3333333,39.192,68.734667)" />
    <g
       id="g21"
       aria-label="¯&#10;A"
       transform="matrix(1.3333333,0,0,1.3333333,141.76267,80.084)">
      <path
         id="path22"
         d="M 3.9602266,-5.0024531 V -5.3188594 H 0.63210156 v 0.3164063 z m 0,0"
         style="fill:#000000;fill-opacity:1;fill-rule:nonzero;stroke:none" />
      <path
         id="path23"
         d="m -0.80344531,1.2114141 c -0.43359379,0.7265625 -0.83203129,0.75 -1.19531249,0.7734375 -0.058594,0.011719 -0.1054688,0.082031 -0.1054688,0.1640625 0,0.058594 0.035156,0.1171875 0.1289063,0.1171875 0.1757812,0 0.5976562,-0.023437 0.7617187,-0.023437 0.1992188,0 0.67968754,0.023437 0.87890629,0.023437 0.0585938,0 0.17578125,0 0.17578125,-0.1640625 0,-0.1054688 -0.1171875,-0.1171875 -0.140625,-0.1171875 -0.0820313,0 -0.421875,-0.023437 -0.421875,-0.2929688 0,-0.1289062 0.10546875,-0.2929687 0.12890625,-0.3398437 l 0.703125,-1.16015629 H 2.4543672 c 0.023437,0.2109375 0.058594,0.515625 0.082031,0.73828125 0.035156,0.35156254 0.082031,0.75000004 0.082031,0.77343754 0,0.1289062 -0.1171875,0.28125 -0.6445313,0.28125 -0.082031,0 -0.1992187,0 -0.1992187,0.1640625 0,0.09375 0.070312,0.1171875 0.1289062,0.1171875 0.1757813,0 0.3867188,-0.023437 0.5625,-0.023437 0.1875,0 0.3984375,0 0.5390625,0 0.3046875,0 0.3164063,0 0.5273438,0 0.1523437,0.011719 0.3515625,0.023437 0.5039062,0.023437 0.046875,0 0.1640625,0 0.1640625,-0.1640625 0,-0.1171875 -0.09375,-0.1171875 -0.1992187,-0.1171875 -0.5390625,0 -0.5507813,-0.058594 -0.5742188,-0.3164063 l -0.6328125,-5.578125 c -0.023437,-0.1992187 -0.023437,-0.2460937 -0.1757812,-0.2460937 -0.1289063,0 -0.1875,0.070312 -0.2578125,0.1875 z M 0.28639844,-0.07764844 2.0910859,-3.0424922 2.4309297,-0.07764844 Z m 0,0"
         style="fill:#000000;fill-opacity:1;fill-rule:nonzero;stroke:none" />
    </g>
    <path
       id="path24"
       d="m 99.21382,-42.5202 v 35.43351 h 21.2601 V -42.5202 Z"
       style="fill:#e2b9b9;fill-opacity:1;fill-rule:nonzero;stroke:#000000;stroke-width:0.49814;stroke-linecap:butt;stroke-linejoin:miter;stroke-miterlimit:10;stroke-dasharray:none;stroke-opacity:1"
       transform="matrix(1.3333333,0,0,-1.3333333,39.192,68.734667)" />
    <g
       id="g24"
       aria-label="U&#10;N"
       transform="matrix(1.3333333,0,0,1.3333333,175.732,105.348)">
      <path
         id="path25"
         d="m 6.3269766,-5.7541641 c 0.09375,-0.4101562 0.28125,-0.7148437 1.078125,-0.7382812 0.046875,0 0.1640625,-0.011719 0.1640625,-0.1992188 0,-0.011719 0,-0.1171875 -0.1289063,-0.1171875 -0.328125,0 -0.6796875,0.035156 -1.0195312,0.035156 -0.3398438,0 -0.703125,-0.035156 -1.03125,-0.035156 -0.058594,0 -0.1757813,0 -0.1757813,0.1992188 0,0.1171875 0.09375,0.1171875 0.1757813,0.1171875 0.5625,0.011719 0.6796875,0.2109375 0.6796875,0.4335937 0,0.035156 -0.023437,0.1757813 -0.035156,0.2109375 l -0.890625,3.5507813 c -0.3398437,1.33593749 -1.4882812,2.20312499 -2.484375,2.20312499 -0.6796875,0 -1.21875,-0.43359375 -1.21875,-1.28906249 0,-0.023437 0,-0.3398438 0.1171875,-0.7734375 l 0.9609375,-3.8789063 c 0.09375,-0.3632812 0.1054688,-0.4570312 0.8320313,-0.4570312 0.2695312,0 0.3398437,0 0.3398437,-0.1992188 0,-0.1171875 -0.1054687,-0.1171875 -0.140625,-0.1171875 -0.2695312,0 -0.9960937,0.035156 -1.265625,0.035156 -0.2929687,0 -0.9960937,-0.035156 -1.28906249,-0.035156 -0.0820313,0 -0.1875,0 -0.1875,0.1992188 0,0.1171875 0.09375,0.1171875 0.28124999,0.1171875 0.011719,0 0.2109375,0 0.375,0.011719 0.1757813,0.023437 0.2695313,0.035156 0.2695313,0.1640625 0,0.058594 -0.1054688,0.4804688 -0.1757813,0.703125 l -0.2109375,0.8789063 c -0.09375,0.3867187 -0.57421874,2.2734375 -0.60937499,2.4609375 -0.0703125,0.28125 -0.0703125,0.4335937 -0.0703125,0.5742187 0,1.21875004 0.90234379,1.92187504 1.95703129,1.92187504 1.2539062,0 2.484375,-1.125 2.8125,-2.44921874 z m 0,0"
         style="fill:#000000;fill-opacity:1;fill-rule:nonzero;stroke:none" />
      <path
         id="path26"
         d="m 9.1687734,-2.4318984 c 0.082031,0.234375 0.28125,0.75 0.5976563,1.51171871 0.5390623,1.23046875 0.8906253,1.91015625 1.4179683,2.55468749 0.04687,0.058594 0.08203,0.058594 0.105469,0.058594 0.152344,0 0.328125,-0.140625 0.339844,-0.140625 0.117187,-0.09375 0.128906,-0.1171875 0.199219,-0.4335938 0.46875,-2.07421874 1.019531,-3.9492187 1.125,-4.0898437 0.09375,-0.140625 0.421875,-0.2929688 1.089843,-0.2929688 0.140625,0 0.292969,-0.3632812 0.292969,-0.5625 0,-0.1289062 -0.03516,-0.1289062 -0.175781,-0.1289062 -0.75,0 -1.113281,0.28125 -1.265625,0.515625 -0.386719,0.609375 -1.019531,3.22265621 -1.335938,4.5117187 C 11.160961,0.53294531 10.89143,-0.05299219 10.70393,-0.43971094 10.352367,-1.2014297 9.9773672,-2.0920547 9.5906484,-3.1584609 c -0.070312,-0.1992188 -0.070312,-0.2109375 -0.09375,-0.234375 -0.023437,-0.011719 -0.046875,-0.011719 -0.070312,-0.011719 -0.1054687,0 -0.2578125,0.070312 -0.3398437,0.140625 -0.140625,0.1054688 -0.140625,0.1523438 -0.1523438,0.2929688 -0.140625,1.78125 -0.8085937,3.53906246 -0.9726562,3.83203121 -0.058594,0.1171875 -0.1523438,0.29296879 -0.3398438,0.29296879 -0.011719,0 -0.3164062,0 -0.5976562,-0.19921879 -0.023437,-0.0234375 -0.023437,-0.0351563 -0.046875,-0.0351563 -0.1171875,0 -0.28125,0.36328119 -0.28125,0.56249999 0,0.070312 0.011719,0.1523438 0.2695312,0.2695313 0.1875,0.082031 0.3632813,0.09375 0.4335938,0.09375 0.515625,0 0.890625,-1.04296879 1.03125,-1.46484379 0.46875,-1.2890625 0.5976562,-2.07421871 0.7382807,-2.81249971 z m 0,0"
         style="fill:#000000;fill-opacity:1;fill-rule:nonzero;stroke:none" />
    </g>
    <path
       id="path27"
       d="m 120.47392,-14.17339 h 49.60692"
       style="fill:none;stroke:#000000;stroke-width:0.49814;stroke-linecap:butt;stroke-linejoin:miter;stroke-miterlimit:10;stroke-dasharray:none;stroke-opacity:1"
       transform="matrix(1.3333333,0,0,-1.3333333,39.192,68.734667)" />
    <path
       id="path28"
       d="m 120.47392,-35.43349 h 14.1734"
       style="fill:none;stroke:#000000;stroke-width:0.49814;stroke-linecap:butt;stroke-linejoin:miter;stroke-miterlimit:10;stroke-dasharray:none;stroke-opacity:1"
       transform="matrix(1.3333333,0,0,-1.3333333,39.192,68.734667)" />
    <path
       id="path29"
       d="M 126.1432,28.3468 V -51.02432"
       style="fill:none;stroke:#000000;stroke-width:0.49814;stroke-linecap:butt;stroke-linejoin:miter;stroke-miterlimit:10;stroke-dasharray:2.98883, 2.98883;stroke-dashoffset:0;stroke-opacity:1"
       transform="matrix(1.3333333,0,0,-1.3333333,39.192,68.734667)" />
    <path
       id="path30"
       d="m 131.10399,-42.5202 h 7.08668"
       style="fill:none;stroke:#000000;stroke-width:0.74721;stroke-linecap:butt;stroke-linejoin:miter;stroke-miterlimit:10;stroke-dasharray:none;stroke-opacity:1"
       transform="matrix(1.3333333,0,0,-1.3333333,39.192,68.734667)" />
    <path
       id="path31"
       d="m 132.59235,-45.35506 h 4.25185"
       style="fill:none;stroke:#000000;stroke-width:0.74721;stroke-linecap:butt;stroke-linejoin:miter;stroke-miterlimit:10;stroke-dasharray:none;stroke-opacity:1"
       transform="matrix(1.3333333,0,0,-1.3333333,39.192,68.734667)" />
    <path
       id="path32"
       d="m 134.64734,-35.43349 v -7.0867"
       style="fill:none;stroke:#000000;stroke-width:0.49814;stroke-linecap:butt;stroke-linejoin:miter;stroke-miterlimit:10;stroke-dasharray:none;stroke-opacity:1"
       transform="matrix(1.3333333,0,0,-1.3333333,39.192,68.734667)" />
    <path
       id="path33"
       d="m 170.08086,-42.5202 v 35.43351 h 21.2601 V -42.5202 Z"
       style="fill:#e2b9b9;fill-opacity:1;fill-rule:nonzero;stroke:#000000;stroke-width:0.49814;stroke-linecap:butt;stroke-linejoin:miter;stroke-miterlimit:10;stroke-dasharray:none;stroke-opacity:1"
       transform="matrix(1.3333333,0,0,-1.3333333,39.192,68.734667)" />
    <g
       id="g33"
       aria-label="U&#10;R"
       transform="matrix(1.3333333,0,0,1.3333333,270.708,105.348)">
      <path
         id="path34"
         d="m 6.3273984,-5.7541641 c 0.09375,-0.4101562 0.28125,-0.7148437 1.078125,-0.7382812 0.046875,0 0.1640625,-0.011719 0.1640625,-0.1992188 0,-0.011719 0,-0.1171875 -0.1289062,-0.1171875 -0.328125,0 -0.6796875,0.035156 -1.0195313,0.035156 -0.3398437,0 -0.703125,-0.035156 -1.03125,-0.035156 -0.058594,0 -0.1757812,0 -0.1757812,0.1992188 0,0.1171875 0.09375,0.1171875 0.1757812,0.1171875 0.5625,0.011719 0.6796875,0.2109375 0.6796875,0.4335937 0,0.035156 -0.023437,0.1757813 -0.035156,0.2109375 l -0.890625,3.5507813 c -0.3398438,1.33593749 -1.4882813,2.20312499 -2.484375,2.20312499 -0.6796875,0 -1.21875,-0.43359375 -1.21875,-1.28906249 0,-0.023437 0,-0.3398438 0.1171875,-0.7734375 l 0.9609375,-3.8789063 c 0.09375,-0.3632812 0.1054687,-0.4570312 0.8320312,-0.4570312 0.2695313,0 0.3398438,0 0.3398438,-0.1992188 0,-0.1171875 -0.1054688,-0.1171875 -0.140625,-0.1171875 -0.2695313,0 -0.9960938,0.035156 -1.265625,0.035156 -0.2929688,0 -0.9960938,-0.035156 -1.28906251,-0.035156 -0.0820313,0 -0.1875,0 -0.1875,0.1992188 0,0.1171875 0.09375,0.1171875 0.28125001,0.1171875 0.011719,0 0.2109375,0 0.375,0.011719 0.1757812,0.023437 0.2695312,0.035156 0.2695312,0.1640625 0,0.058594 -0.1054687,0.4804688 -0.1757812,0.703125 l -0.2109375,0.8789063 c -0.09375,0.3867187 -0.57421876,2.2734375 -0.60937501,2.4609375 -0.0703125,0.28125 -0.0703125,0.4335937 -0.0703125,0.5742187 0,1.21875004 0.90234371,1.92187504 1.95703121,1.92187504 1.2539063,0 2.484375,-1.125 2.8125,-2.44921874 z m 0,0"
         style="fill:#000000;fill-opacity:1;fill-rule:nonzero;stroke:none" />
      <path
         id="path35"
         d="m 10.177008,-2.8420547 c 1.417969,0 1.746094,0.2929688 1.746094,0.75 0,0.5625 -0.421875,1.21875001 -1.605469,1.25390626 -0.140625,0.0117188 -0.222656,0.0117188 -0.4101564,0.1171875 -0.1171875,0.0703125 -0.234375,0.17578125 -0.234375,0.24609375 0,0.046875 0.023437,0.0585938 0.082031,0.0703125 0.3046874,0.046875 0.4687504,0.234375 0.8789064,0.984375 0.375,0.70312499 0.597656,1.05468749 1.042969,1.05468749 0.902344,0 1.78125,-0.86718749 1.78125,-1.00781249 0,-0.0117188 0,-0.0585938 -0.08203,-0.0585938 -0.05859,0 -0.328125,0.0585938 -0.527344,0.29296875 -0.09375,0.10546875 -0.304688,0.35156244 -0.679688,0.35156244 -0.375,0 -0.621093,-0.48046869 -0.925781,-1.04296869 -0.269531,-0.48046875 -0.386719,-0.6328125 -0.46875,-0.73828125 1.230469,-0.421875 1.792969,-1.19531246 1.792969,-1.83984376 0,-0.8554688 -1.089844,-0.8554688 -2.4375,-0.8554688 -0.8789066,0 -1.3007816,0 -1.9218754,0.234375 -0.9257812,0.375 -1.1367187,0.984375 -1.1367187,1.0898438 0,0.058594 0.046875,0.070312 0.082031,0.070312 0.1054688,0 0.4804688,-0.140625 0.5742188,-0.3867188 0.082031,-0.28125 0.1757812,-0.5273437 1.3007812,-0.5859375 -0.1289062,1.89843756 -0.65625,3.31640631 -1.0546875,4.265625 -0.058594,0.1289063 -0.058594,0.140625 -0.058594,0.1523438 0,0.046875 0.035156,0.058594 0.082031,0.058594 0.1523438,0 0.4453125,-0.1757812 0.5273438,-0.2929687 0.011719,-0.023437 0.9375,-1.91015624 1.125,-4.1835938 z m 0,0"
         style="fill:#000000;fill-opacity:1;fill-rule:nonzero;stroke:none" />
    </g>
    <g
       id="g35"
       aria-label="|0⟩"
       transform="matrix(1.3333333,0,0,1.3333333,229.868,119.3)">
      <path
         id="path36"
         d="m 1.5814219,-7.1126953 c 0,-0.1757813 0,-0.3632813 -0.1992188,-0.3632813 -0.1992187,0 -0.1992187,0.1875 -0.1992187,0.3632813 v 9.2460937 c 0,0.1757813 0,0.3632813 0.1992187,0.3632813 0.1992188,0 0.1992188,-0.1875 0.1992188,-0.3632813 z m 0,0"
         style="fill:#000000;fill-opacity:1;fill-rule:nonzero;stroke:none" />
      <path
         id="path37"
         d="m 7.3499766,-3.1869141 c 0,-0.796875 -0.046875,-1.59375 -0.3984375,-2.3320312 -0.4570313,-0.9609375 -1.2773438,-1.1132813 -1.6875,-1.1132813 -0.5976563,0 -1.3359375,0.2578125 -1.734375,1.1835938 -0.328125,0.6914062 -0.375,1.4648437 -0.375,2.2617187 0,0.75 0.046875,1.640625 0.4453125,2.40234379 0.4335937,0.80859375 1.1601562,1.0078125 1.6523437,1.0078125 0.5390625,0 1.2890625,-0.2109375 1.734375,-1.16015625 C 7.3031016,-1.6283203 7.3499766,-2.4017578 7.3499766,-3.1869141 Z M 5.2523203,5.859375e-4 c -0.3867187,0 -0.984375,-0.2460937475 -1.1601562,-1.2070312375 -0.1054688,-0.5976563 -0.1054688,-1.5117188 -0.1054688,-2.0976563 0,-0.6445312 0,-1.3007812 0.082031,-1.8398437 0.1875,-1.1835938 0.9257812,-1.265625 1.1835937,-1.265625 0.328125,0 0.984375,0.1757812 1.171875,1.1601562 0.09375,0.5625 0.09375,1.3125 0.09375,1.9453125 0,0.75 0,1.4179688 -0.1054687,2.0625 C 6.2601328,-0.30410156 5.6976328,5.859375e-4 5.2523203,5.859375e-4 Z m 0,0"
         style="fill:#000000;fill-opacity:1;fill-rule:nonzero;stroke:none" />
      <path
         id="path38"
         d="m 10.467164,-2.3197266 c 0.04687,-0.1171875 0.04687,-0.140625 0.04687,-0.1757812 0,-0.023437 0,-0.046875 -0.04687,-0.1640625 L 8.7210703,-7.2416016 c -0.058594,-0.1640625 -0.1171875,-0.234375 -0.2226562,-0.234375 -0.1171875,0 -0.1992188,0.09375 -0.1992188,0.1992188 0,0.035156 0,0.058594 0.046875,0.1640625 l 1.7578127,4.6171875 -1.7578127,4.6054687 c -0.046875,0.1171875 -0.046875,0.1289063 -0.046875,0.1875 0,0.1054688 0.082031,0.1992188 0.1992188,0.1992188 0.1289062,0 0.1640625,-0.1054688 0.2109375,-0.1992188 z m 0,0"
         style="fill:#000000;fill-opacity:1;fill-rule:nonzero;stroke:none" />
    </g>
    <path
       id="path39"
       d="m 158.15218,-35.43349 h 11.92866"
       style="fill:none;stroke:#000000;stroke-width:0.49814;stroke-linecap:butt;stroke-linejoin:miter;stroke-miterlimit:10;stroke-dasharray:none;stroke-opacity:1"
       transform="matrix(1.3333333,0,0,-1.3333333,39.192,68.734667)" />
    <path
       id="path40"
       d="m 191.34096,-14.17339 h 21.2601"
       style="fill:none;stroke:#000000;stroke-width:0.49814;stroke-linecap:butt;stroke-linejoin:miter;stroke-miterlimit:10;stroke-dasharray:none;stroke-opacity:1"
       transform="matrix(1.3333333,0,0,-1.3333333,39.192,68.734667)" />
    <path
       id="path41"
       d="m 191.34096,-35.43349 h 14.1734"
       style="fill:none;stroke:#000000;stroke-width:0.49814;stroke-linecap:butt;stroke-linejoin:miter;stroke-miterlimit:10;stroke-dasharray:none;stroke-opacity:1"
       transform="matrix(1.3333333,0,0,-1.3333333,39.192,68.734667)" />
    <path
       id="path42"
       d="m 201.971,-42.5202 h 7.0867"
       style="fill:none;stroke:#000000;stroke-width:0.74721;stroke-linecap:butt;stroke-linejoin:miter;stroke-miterlimit:10;stroke-dasharray:none;stroke-opacity:1"
       transform="matrix(1.3333333,0,0,-1.3333333,39.192,68.734667)" />
    <path
       id="path43"
       d="m 203.45937,-45.35506 h 4.25184"
       style="fill:none;stroke:#000000;stroke-width:0.74721;stroke-linecap:butt;stroke-linejoin:miter;stroke-miterlimit:10;stroke-dasharray:none;stroke-opacity:1"
       transform="matrix(1.3333333,0,0,-1.3333333,39.192,68.734667)" />
    <path
       id="path44"
       d="m 205.51436,-35.43349 v -7.0867"
       style="fill:none;stroke:#000000;stroke-width:0.49814;stroke-linecap:butt;stroke-linejoin:miter;stroke-miterlimit:10;stroke-dasharray:none;stroke-opacity:1"
       transform="matrix(1.3333333,0,0,-1.3333333,39.192,68.734667)" />
    <g
       id="g44"
       aria-label="|ψ⟩"
       transform="matrix(1.3333333,0,0,1.3333333,198.388,21.032)">
      <path
         id="path45"
         d="m 1.5810703,-7.1138437 c 0,-0.1757813 0,-0.3632813 -0.1992187,-0.3632813 -0.1992188,0 -0.1992188,0.1875 -0.1992188,0.3632813 V 2.13225 c 0,0.1757813 0,0.3632813 0.1992188,0.3632813 0.1992187,0 0.1992187,-0.1875 0.1992187,-0.3632813 z m 0,0"
         style="fill:#000000;fill-opacity:1;fill-rule:nonzero;stroke:none" />
      <path
         id="path46"
         d="m 7.5722813,-6.6568125 c 0.011719,-0.035156 0.023437,-0.09375 0.023437,-0.1523437 0,-0.09375 -0.070312,-0.1054688 -0.1171875,-0.1054688 -0.09375,0 -0.1054688,0.023437 -0.1523438,0.1992188 L 5.6738438,-0.12946875 C 4.9238438,-0.22321875 4.537125,-0.5865 4.537125,-1.24275 c 0,-0.1992187 0,-0.4570312 0.5390625,-1.8515625 0.046875,-0.1289062 0.1171875,-0.2929687 0.1171875,-0.4921875 0,-0.4453125 -0.328125,-0.8203125 -0.8203125,-0.8203125 -0.9492187,0 -1.3125,1.453125 -1.3125,1.5351563 0,0.1054687 0.09375,0.1054687 0.1171875,0.1054687 0.09375,0 0.1054688,-0.023437 0.1523438,-0.1875 0.2695312,-0.9375 0.6679687,-1.2304687 1.0078125,-1.2304687 0.082031,0 0.2578125,0 0.2578125,0.3164062 0,0.2578125 -0.1054688,0.515625 -0.234375,0.8554688 -0.4804688,1.2539062 -0.4804688,1.5117187 -0.4804688,1.6875 0,0.9492187 0.7851563,1.35937495 1.734375,1.4179687 C 5.533219,0.44475 5.533219,0.4681875 5.3925938,0.99553125 5.3691563,1.101 5.1699375,1.9095938 5.1699375,1.94475 c 0,0.011719 0,0.09375 0.1171875,0.09375 0.023437,0 0.070312,0 0.09375,-0.035156 C 5.404312,1.979906 5.462906,1.7338127 5.4980625,1.5931877 l 0.375,-1.48828125 c 0.375,0 1.2421875,0 2.1796875,-1.06640625 0.4101563,-0.4570312 0.6210938,-0.890625 0.7265625,-1.1953125 0.09375,-0.2460937 0.3164063,-1.1132812 0.3164063,-1.546875 0,-0.5625 -0.2695313,-0.703125 -0.4453125,-0.703125 -0.2460938,0 -0.4921875,0.2578125 -0.4921875,0.4804688 0,0.1289062 0.058594,0.1875 0.1523437,0.2695312 0.1054688,0.1054688 0.3515625,0.3632813 0.3515625,0.84375 0,0.6445313 -0.515625,1.453125 -0.8671875,1.81640625 -0.8789062,0.890625 -1.5117187,0.890625 -1.875,0.890625 z m 0,0"
         style="fill:#000000;fill-opacity:1;fill-rule:nonzero;stroke:none" />
      <path
         id="path47"
         d="m 12.335953,-2.320875 c 0.04687,-0.1171875 0.04687,-0.140625 0.04687,-0.1757812 0,-0.023437 0,-0.046875 -0.04687,-0.1640625 L 10.589859,-7.24275 c -0.05859,-0.1640625 -0.117187,-0.234375 -0.222656,-0.234375 -0.117187,0 -0.199219,0.09375 -0.199219,0.1992188 0,0.035156 0,0.058594 0.04687,0.1640625 l 1.757813,4.6171875 -1.757813,4.6054687 c -0.04687,0.1171875 -0.04687,0.1289063 -0.04687,0.1875 0,0.1054688 0.08203,0.1992188 0.199219,0.1992188 0.128906,0 0.164063,-0.1054688 0.210938,-0.1992188 z m 0,0"
         style="fill:#000000;fill-opacity:1;fill-rule:nonzero;stroke:none" />
    </g>
    <path
       id="path48"
       d="m 1.4639844,-0.67853906 c -0.082031,0.31640625 -0.1054688,0.3984375 -0.77343753,0.3984375 -0.17578125,0 -0.26953125,0 -0.26953125,0.1640625 0,0.1171875 0.09375,0.1171875 0.24609375,0.1171875 H 3.9366406 c 1.453125,0 2.5195313,-1.05468754 2.5195313,-1.92187504 0,-0.6445312 -0.5273438,-1.1835937 -1.4179688,-1.2773437 1.0195313,-0.1992188 1.8867188,-0.8789063 1.8867188,-1.6757813 0,-0.703125 -0.6445313,-1.2421875 -1.7109375,-1.2421875 H 2.1553906 c -0.1640625,0 -0.2695312,0 -0.2695312,0.1523438 0,0.1171875 0.082031,0.1171875 0.2695312,0.1171875 0.035156,0 0.1875,0 0.3398438,0.023437 0.1523437,0.011719 0.2109375,0.035156 0.2109375,0.1289062 0,0.046875 -0.011719,0.082031 -0.035156,0.1875 z M 2.8585156,-3.3035391 3.4092969,-5.4949453 c 0.082031,-0.3164063 0.09375,-0.3515625 0.46875,-0.3515625 h 1.21875 c 0.9257812,0 1.0078125,0.7148437 1.0078125,0.9375 0,0.796875 -0.8320313,1.6054687 -1.8515625,1.6054687 z m -0.4335937,3.02343754 c -0.1171875,0 -0.140625,0 -0.1757813,0 -0.09375,-0.0117188 -0.1171875,-0.0234375 -0.1171875,-0.0820313 0,-0.0351563 0,-0.046875 0.046875,-0.2109375 L 2.7999219,-3.0691641 h 1.6757812 c 0.5625,0 1.125,0.234375 1.125,1.0546875 0,0.890625 -0.8085937,1.73437504 -1.8867187,1.73437504 z m 0,0"
       style="fill:#000000;fill-opacity:1;fill-rule:nonzero;stroke:none"
       aria-label="B"
       transform="matrix(1.3333333,0,0,1.3333333,209.99333,82.268)" />
    <path
       id="path49"
       d="m 2.8130938,-3.0361953 h 0.9140625 c 0.6445312,0 0.7734375,0.1171875 0.7734375,0.4101562 0,0.070312 -0.023437,0.2578125 -0.058594,0.3984375 -0.023437,0.058594 -0.035156,0.1054688 -0.035156,0.1289063 0,0.011719 0,0.1171875 0.1171875,0.1171875 0.1171875,0 0.1171875,-0.058594 0.1523437,-0.1992188 L 5.1568438,-4.0674453 C 5.192,-4.1846328 5.192,-4.2080703 5.192,-4.2432266 c 0,-0.070312 -0.058594,-0.1171875 -0.1289062,-0.1171875 -0.09375,0 -0.1054688,0.058594 -0.1523438,0.2226563 -0.1757812,0.7148437 -0.4570312,0.8320312 -1.171875,0.8320312 H 2.8834063 c 0.140625,-0.5625 0.5625,-2.2617187 0.609375,-2.3671875 0.046875,-0.1289062 0.1171875,-0.140625 0.4101562,-0.140625 h 1.3125 c 1.125,0 1.3710938,0.2578125 1.3710938,0.984375 0,0.28125 -0.046875,0.5507813 -0.046875,0.609375 0,0.082031 0.046875,0.140625 0.1289062,0.140625 0.1054688,0 0.1171875,-0.058594 0.140625,-0.2226562 l 0.1875,-1.6640625 c 0,-0.1289063 -0.09375,-0.1289063 -0.2578125,-0.1289063 H 2.1216875 c -0.1757812,0 -0.2695312,0 -0.2695312,0.1640625 0,0.1171875 0.082031,0.1171875 0.2695312,0.1171875 0.035156,0 0.1992188,0 0.3398438,0.011719 0.1992187,0.023437 0.2109375,0.058594 0.2109375,0.140625 0,0.035156 0,0.046875 -0.046875,0.2109375 l -1.1953125,4.76953124 c -0.070312,0.31640625 -0.09375,0.3984375 -0.7617188,0.3984375 -0.17578125,0 -0.26953125,0 -0.26953125,0.1640625 0,0.1171875 0.0820313,0.1171875 0.24609375,0.1171875 H 5.3795 c 0.1640625,0 0.1757813,0 0.2109375,-0.0234375 0.023437,-0.0234375 0.035156,-0.03515625 0.082031,-0.15234375 0.1054687,-0.234375 0.8671875,-1.94531249 0.8671875,-2.01562499 0,-0.082031 -0.046875,-0.1171875 -0.1171875,-0.1171875 -0.070312,0 -0.082031,0 -0.1875,0.2109375 -0.5507813,1.25390624 -0.9140625,1.81640624 -2.4023438,1.81640624 H 2.4615313 c -0.1289063,0 -0.1523438,0 -0.1875,0 -0.082031,-0.0117188 -0.1171875,-0.0234375 -0.1171875,-0.0820313 0,-0.0351563 0,-0.046875 0.046875,-0.2109375 z m 0,0"
       style="fill:#000000;fill-opacity:1;fill-rule:nonzero;stroke:none"
       aria-label="E"
       transform="matrix(1.3333333,0,0,1.3333333,210.07733,110.61467)" />
    <g
       id="g49"
       aria-label="A&#10;′"
       transform="matrix(1.3333333,0,0,1.3333333,303.03067,82.937333)">
      <path
         id="path50"
         d="M 1.6293438,-1.0545625 C 1.19575,-0.328 0.7973125,-0.3045625 0.43403125,-0.281125 0.37543745,-0.2694062 0.3285625,-0.1990937 0.3285625,-0.1170625 c 0,0.05859375 0.0351563,0.1171875 0.12890625,0.1171875 0.17578125,0 0.59765625,-0.0234375 0.76171875,-0.0234375 0.1992188,0 0.6796875,0.0234375 0.8789063,0.0234375 0.058594,0 0.1757812,0 0.1757812,-0.1640625 0,-0.10546875 -0.1171875,-0.1171875 -0.140625,-0.1171875 -0.082031,0 -0.421875,-0.0234375 -0.421875,-0.29296875 0,-0.12890625 0.1054688,-0.29296875 0.1289063,-0.33984375 l 0.703125,-1.1601563 h 2.34375 c 0.023437,0.2109375 0.058594,0.515625 0.082031,0.7382813 0.035156,0.3515625 0.082031,0.75 0.082031,0.7734375 0,0.12890625 -0.1171875,0.28125 -0.6445313,0.28125 -0.082031,0 -0.1992187,0 -0.1992187,0.1640625 0,0.09375 0.070312,0.1171875 0.1289062,0.1171875 0.1757813,0 0.3867188,-0.0234375 0.5625,-0.0234375 0.1875,0 0.3984375,0 0.5390625,0 0.3046875,0 0.3164063,0 0.5273438,0 0.1523437,0.01171875 0.3515625,0.0234375 0.5039062,0.0234375 0.046875,0 0.1640625,0 0.1640625,-0.1640625 0,-0.1171875 -0.09375,-0.1171875 -0.1992187,-0.1171875 -0.5390625,0 -0.5507813,-0.0585938 -0.5742188,-0.31640625 L 5.227,-6.1756563 C 5.2035625,-6.374875 5.2035625,-6.42175 5.0512188,-6.42175 c -0.1289063,0 -0.1875,0.070312 -0.2578125,0.1875 z M 2.7191875,-2.343625 4.523875,-5.3084688 4.8637188,-2.343625 Z m 0,0"
         style="fill:#000000;fill-opacity:1;fill-rule:nonzero;stroke:none" />
      <path
         id="path51"
         d="m 8.7836406,-6.6209688 c 0.046875,-0.082031 0.058594,-0.1523437 0.058594,-0.1875 0,-0.1875 -0.1757813,-0.3398437 -0.3632813,-0.3398437 -0.2460937,0 -0.3164062,0.2109375 -0.3398437,0.2929687 l -0.8320313,2.5546875 c -0.011719,0.035156 -0.035156,0.082031 -0.035156,0.1054688 0,0.1054687 0.2460937,0.1523437 0.2460937,0.1523437 0.058594,0 0.082031,-0.046875 0.1054688,-0.1054687 z m 0,0"
         style="fill:#000000;fill-opacity:1;fill-rule:nonzero;stroke:none" />
    </g>
    <g
       id="g51"
       aria-label="|Φ&#10;′&#10;⟩"
       transform="matrix(1.3333333,0,0,1.3333333,339.91467,72.068)">
      <path
         id="path52"
         d="m 1.5815781,-7.1144766 c 0,-0.1757812 0,-0.3632812 -0.1992187,-0.3632812 -0.1992188,0 -0.1992188,0.1875 -0.1992188,0.3632812 v 9.2460938 c 0,0.1757812 0,0.3632812 0.1992188,0.3632812 0.1992187,0 0.1992187,-0.1875 0.1992187,-0.3632812 z m 0,0"
         style="fill:#000000;fill-opacity:1;fill-rule:nonzero;stroke:none" />
      <path
         id="path53"
         d="m 6.7407578,-1.3488516 c 1.546875,-0.1171875 2.6484375,-1.0429687 2.6484375,-2.0507812 0,-1.03125 -1.1367187,-1.9453125 -2.6484375,-2.0625 v -0.5507813 c 0,-0.3398437 0,-0.4804687 0.9492188,-0.4804687 h 0.328125 v -0.3164063 c -0.3632813,0.035156 -1.2773438,0.035156 -1.6875,0.035156 -0.4101563,0 -1.3359375,0 -1.6875,-0.035156 v 0.3164063 h 0.328125 c 0.9492187,0 0.9492187,0.1289062 0.9492187,0.4804687 v 0.5507813 c -1.5234375,0.1523437 -2.5898437,1.0664062 -2.5898437,2.0507812 0,1.03125 1.1015625,1.9101563 2.5898437,2.0625 v 0.56250004 c 0,0.33984375 0,0.48046875 -0.9492187,0.48046875 h -0.328125 v 0.3046875 c 0.3515625,-0.03515625 1.2773437,-0.03515625 1.6757812,-0.03515625 0.4101563,0 1.3359375,0 1.6992188,0.03515625 v -0.3046875 h -0.328125 c -0.9492188,0 -0.9492188,-0.12890625 -0.9492188,-0.48046875 z M 5.9204453,-1.5715078 c -1.4179687,-0.1875 -1.59375,-1.2070313 -1.59375,-1.828125 0,-0.515625 0.09375,-1.6289063 1.59375,-1.828125 z m 0.8203125,-3.6679688 c 1.3710938,0.1523438 1.6523438,1.078125 1.6523438,1.828125 0,0.5976563 -0.140625,1.6640625 -1.6523438,1.8515625 z m 0,0"
         style="fill:#000000;fill-opacity:1;fill-rule:nonzero;stroke:none" />
      <path
         id="path54"
         d="m 11.990758,-6.9093984 c 0.04687,-0.1171875 0.05859,-0.1757813 0.05859,-0.2226563 0,-0.2109375 -0.199219,-0.3867187 -0.410157,-0.3867187 -0.269531,0 -0.351562,0.2226562 -0.386718,0.328125 l -0.914063,3.0234375 c -0.01172,0.011719 -0.03516,0.1054687 -0.03516,0.1171875 0,0.082031 0.210937,0.1523437 0.269531,0.1523437 0.04687,0 0.05859,-0.023437 0.105469,-0.1289062 z m 0,0"
         style="fill:#000000;fill-opacity:1;fill-rule:nonzero;stroke:none" />
      <path
         id="path55"
         d="m 15.477086,-2.3215078 c 0.04687,-0.1171875 0.04687,-0.140625 0.04687,-0.1757813 0,-0.023437 0,-0.046875 -0.04687,-0.1640625 l -1.746094,-4.5820312 c -0.05859,-0.1640625 -0.117187,-0.234375 -0.222656,-0.234375 -0.117188,0 -0.199219,0.09375 -0.199219,0.1992187 0,0.035156 0,0.058594 0.04687,0.1640625 l 1.757813,4.6171875 -1.757813,4.6054688 c -0.04687,0.1171875 -0.04687,0.1289062 -0.04687,0.1875 0,0.1054687 0.08203,0.1992187 0.199219,0.1992187 0.128906,0 0.164062,-0.1054687 0.210937,-0.1992187 z m 0,0"
         style="fill:#000000;fill-opacity:1;fill-rule:nonzero;stroke:none" />
    </g>
    <path
       id="path56"
       d="m 216.7638,13.99518 c 1.19555,-0.59775 1.68315,-1.81435 1.68315,-3.8069 0,-0.52603 0.79701,-0.52603 0.79701,0 0,1.99255 -1.10642,3.56558 -2.30196,4.16333 -0.23526,0.11761 -0.41345,-0.23881 -0.1782,-0.35643"
       style="fill:#000000;fill-opacity:1;fill-rule:nonzero;stroke:none"
       transform="matrix(1.3333333,0,0,-1.3333333,39.192,68.734667)" />
    <path
       id="path57"
       d="m 220.92711,0.1782 c -1.19554,0.59774 -1.68315,1.81435 -1.68315,3.8069 0,0.52604 -0.79701,0.52604 -0.79701,0 0,-1.99255 1.10641,-3.56557 2.30195,-4.1633 0.23526,-0.11762 0.41345,0.2388 0.17821,0.3564"
       style="fill:#000000;fill-opacity:1;fill-rule:nonzero;stroke:none"
       transform="matrix(1.3333333,0,0,-1.3333333,39.192,68.734667)" />
    <path
       id="path58"
       d="M 218.84546,10.18828 V 3.9851"
       style="fill:none;stroke:#000000;stroke-width:0.79701;stroke-linecap:butt;stroke-linejoin:miter;stroke-miterlimit:10;stroke-dasharray:none;stroke-opacity:1"
       transform="matrix(1.3333333,0,0,-1.3333333,39.192,68.734667)" />
    <path
       id="path59"
       d="m 220.7489,0.1782 c -1.19554,-0.59773 -2.30195,-2.17075 -2.30195,-4.1633 0,-0.52604 0.79701,-0.52604 0.79701,0 0,1.99255 0.48761,3.20916 1.68315,3.8069 0.23524,0.1176 0.0571,0.47402 -0.17821,0.3564"
       style="fill:#000000;fill-opacity:1;fill-rule:nonzero;stroke:none"
       transform="matrix(1.3333333,0,0,-1.3333333,39.192,68.734667)" />
    <path
       id="path60"
       d="m 216.942,-14.35161 c 1.19554,0.59775 2.30196,2.17078 2.30196,4.16333 0,0.52603 -0.79701,0.52603 -0.79701,0 0,-1.99255 -0.4876,-3.20915 -1.68315,-3.8069 -0.23525,-0.11762 -0.0571,-0.47404 0.1782,-0.35643"
       style="fill:#000000;fill-opacity:1;fill-rule:nonzero;stroke:none"
       transform="matrix(1.3333333,0,0,-1.3333333,39.192,68.734667)" />
    <path
       id="path61"
       d="m 218.84546,-3.9851 v -6.20318"
       style="fill:none;stroke:#000000;stroke-width:0.79701;stroke-linecap:butt;stroke-linejoin:miter;stroke-miterlimit:10;stroke-dasharray:none;stroke-opacity:1"
       transform="matrix(1.3333333,0,0,-1.3333333,39.192,68.734667)" />
  </g>
</svg>
