<?xml version="1.0" encoding="UTF-8" standalone="no"?>
<!-- Created with Inkscape (http://www.inkscape.org/) -->

<svg
   version="1.1"
   id="svg1"
   width="375.96399"
   height="141.34132"
   viewBox="0 0 375.96399 141.34132"
   sodipodi:docname="qec_fig_1.pdf"
   xmlns:inkscape="http://www.inkscape.org/namespaces/inkscape"
   xmlns:sodipodi="http://sodipodi.sourceforge.net/DTD/sodipodi-0.dtd"
   xmlns="http://www.w3.org/2000/svg"
   xmlns:svg="http://www.w3.org/2000/svg">
  <defs
     id="defs1" />
  <sodipodi:namedview
     id="namedview1"
     pagecolor="#ffffff"
     bordercolor="#000000"
     borderopacity="0.25"
     inkscape:showpageshadow="2"
     inkscape:pageopacity="0.0"
     inkscape:pagecheckerboard="0"
     inkscape:deskcolor="#d1d1d1">
    <inkscape:page
       x="0"
       y="0"
       inkscape:label="1"
       id="page1"
       width="375.96399"
       height="141.34132"
       margin="0"
       bleed="0" />
  </sodipodi:namedview>
  <g
     id="g1"
     inkscape:groupmode="layer"
     inkscape:label="1">
    <path
       id="path1"
       d="m 4.0905781,-4.1593594 c -0.5976562,-0.3398437 -0.9375,-0.4335937 -1.5351562,-0.4335937 -1.3945313,0 -2.19140627,1.2070312 -2.19140627,2.3789062 0,1.24218753 0.90234377,2.32031253 2.14453127,2.32031253 0.5390625,0 1.0898437,-0.140625 1.6289062,-0.50390625 L 4.0788594,-1.0656094 c -0.515625,0.39843753 -1.0546875,0.53906253 -1.5585938,0.53906253 -0.8203125,0 -1.3828125,-0.71484373 -1.3828125,-1.69921873 0,-0.7734375 0.3632813,-1.7226563 1.4179688,-1.7226563 0.5273437,0 0.8671875,0.070312 1.40625,0.4335938 z m 5.0126953,1.96875 c 0,-1.3359375 -0.9960937,-2.4023437 -2.1796875,-2.4023437 -1.2304687,0 -2.1914062,1.1015625 -2.1914062,2.4023437 0,1.31250003 1.0078125,2.29687503 2.1796875,2.29687503 1.1953125,0 2.1914062,-1.0078125 2.1914062,-2.29687503 z m -2.1914062,1.66406253 c -0.6914063,0 -1.40625,-0.56250003 -1.40625,-1.76953123 0,-1.1953125 0.75,-1.6875 1.40625,-1.6875 0.6914062,0 1.40625,0.515625 1.40625,1.6875 0,1.1835937 -0.6679688,1.76953123 -1.40625,1.76953123 z M 10.688234,-2.1320156 c 0,-0.9960938 0.726563,-1.7109375 1.699219,-1.734375 v -0.6679688 c -0.890625,0.011719 -1.429687,0.5039063 -1.746094,0.9609375 V -4.4874844 H 9.9499531 V 7.96875e-4 h 0.7382809 z m 3.404297,0 c 0,-0.9960938 0.726563,-1.7109375 1.699219,-1.734375 v -0.6679688 c -0.890625,0.011719 -1.429687,0.5039063 -1.746094,0.9609375 V -4.4874844 H 13.35425 V 7.96875e-4 h 0.738281 z m 0,0"
       style="fill:#000000;fill-opacity:1;fill-rule:nonzero;stroke:none"
       aria-label="corr"
       transform="matrix(1.3333333,0,0,1.3333333,11.069333,69.288)" />
    <path
       id="path2"
       d="M 0,0 14.17339,14.17339 H 42.5202"
       style="fill:none;stroke:#000000;stroke-width:0.49814;stroke-linecap:butt;stroke-linejoin:miter;stroke-miterlimit:10;stroke-dasharray:none;stroke-opacity:1"
       transform="matrix(1.3333333,0,0,-1.3333333,40.593333,66.336)" />
    <path
       id="path3"
       d="M 0,0 14.17339,-14.17339 H 42.5202"
       style="fill:none;stroke:#000000;stroke-width:0.49814;stroke-linecap:butt;stroke-linejoin:miter;stroke-miterlimit:10;stroke-dasharray:none;stroke-opacity:1"
       transform="matrix(1.3333333,0,0,-1.3333333,40.593333,66.336)" />
    <path
       id="path4"
       d="M 42.5202,14.17339 H 212.60106"
       style="fill:none;stroke:#000000;stroke-width:0.49814;stroke-linecap:butt;stroke-linejoin:miter;stroke-miterlimit:10;stroke-dasharray:none;stroke-opacity:1"
       transform="matrix(1.3333333,0,0,-1.3333333,40.593333,66.336)" />
    <path
       id="path5"
       d="m 3.4105703,-5.4964297 c 0.058594,-0.2226562 0.082031,-0.3164062 0.2460938,-0.3398437 0.082031,-0.011719 0.375,-0.011719 0.5625,-0.011719 0.7148437,0 1.6992187,0 1.6992187,0.9023438 0,0.3398437 -0.140625,1.0078125 -0.6445312,1.3945312 -0.2226563,0.140625 -0.6679688,0.375 -1.3945313,0.375 H 2.8363516 Z m 1.3945313,2.4609375 c 1.21875,-0.3164062 1.96875,-0.9960937 1.96875,-1.734375 0,-0.7851562 -0.84375,-1.3476562 -2.0390625,-1.3476562 H 2.1332266 c -0.1640625,0 -0.2695313,0 -0.2695313,0.1523437 0,0.1171875 0.082031,0.1171875 0.2695313,0.1171875 0.035156,0 0.1992187,0 0.3398437,0.023437 0.1523438,0.011719 0.2109375,0.035156 0.2109375,0.1289063 0,0.046875 0,0.082031 -0.035156,0.1875 l -1.2070313,4.82812496 c -0.082031,0.31640625 -0.09375,0.3984375 -0.77343749,0.3984375 -0.1640625,0 -0.26953125,0 -0.26953125,0.1640625 0,0.09375 0.0820313,0.1171875025 0.140625,0.1171875025 0.140625,0 0.41015625,-0.0117187525 0.56250004,-0.0234375025 0.1875,0 0.2109375,0 0.5625,0 0.28125,0 0.3046875,0 0.5625,0 0.1875,0.01171875 0.4101562,0.0234375025 0.5742187,0.0234375025 0.070312,0 0.1875,0 0.1875,-0.1640625025 0,-0.1171875 -0.09375,-0.1171875 -0.28125,-0.1171875 -0.035156,0 -0.1992187,0 -0.3398437,-0.0117188 -0.1992188,-0.0351563 -0.2109375,-0.0703125 -0.2109375,-0.140625 0,-0.0351563 0,-0.046875 0.046875,-0.2109375 L 2.7777578,-2.9534609 h 1.1015625 c 0.8085938,0 1.0195313,0.46875 1.0195313,0.8085937 0,0.070312 0,0.1289063 -0.058594,0.328125 -0.2109375,0.82031251 -0.2109375,0.90234376 -0.2109375,1.03125001 0,0.80859375 0.7617188,0.984375 1.21875,0.984375 0.7734375,0 1.1015625,-0.90234375 1.1015625,-1.0546875 0,-0.0585938 -0.058594,-0.10546875 -0.1171875,-0.10546875 -0.09375,0 -0.1054687,0.046875 -0.140625,0.15234375 -0.1523437,0.46875 -0.4921875,0.78515625 -0.8203125,0.78515625 -0.3398437,0 -0.3632812,-0.26953125 -0.3632812,-0.52734375 0,-0.234375 0.070312,-0.75000001 0.082031,-0.80859371 0.011719,-0.1523438 0.058594,-0.5039063 0.058594,-0.6445313 0,-0.5039062 -0.328125,-0.8554687 -0.8437498,-1.03125 z m 0,0"
       style="fill:#000000;fill-opacity:1;fill-rule:nonzero;stroke:none"
       aria-label="R"
       transform="matrix(1.3333333,0,0,1.3333333,73.698667,42.074667)" />
    <path
       id="path6"
       d="m 1.6278438,-1.0533672 c -0.4335938,0.72656251 -0.8320313,0.75000001 -1.19531255,0.77343751 -0.0585938,0.0117188 -0.10546875,0.0820313 -0.10546875,0.1640625 0,0.05859375 0.0351563,0.1171875 0.12890625,0.1171875 0.17578125,0 0.59765625,-0.0234375 0.76171875,-0.0234375 0.1992188,0 0.6796875,0.0234375 0.8789063,0.0234375 0.058594,0 0.1757812,0 0.1757812,-0.1640625 0,-0.10546875 -0.1171875,-0.1171875 -0.140625,-0.1171875 -0.082031,0 -0.421875,-0.0234375 -0.421875,-0.29296875 0,-0.12890625 0.1054688,-0.29296875 0.1289063,-0.33984375 l 0.703125,-1.16015621 h 2.34375 c 0.023437,0.2109375 0.058594,0.515625 0.082031,0.7382812 0.035156,0.35156251 0.082031,0.75000001 0.082031,0.77343751 0,0.12890625 -0.1171875,0.28125 -0.6445313,0.28125 -0.082031,0 -0.1992187,0 -0.1992187,0.1640625 0,0.09375 0.070312,0.1171875 0.1289062,0.1171875 0.1757813,0 0.3867188,-0.0234375 0.5625,-0.0234375 0.1875,0 0.3984375,0 0.5390625,0 0.3046875,0 0.3164063,0 0.5273438,0 0.1523437,0.01171875 0.3515625,0.0234375 0.5039062,0.0234375 0.046875,0 0.1640625,0 0.1640625,-0.1640625 0,-0.1171875 -0.09375,-0.1171875 -0.1992187,-0.1171875 -0.5390625,0 -0.5507813,-0.0585938 -0.5742188,-0.31640625 L 5.2255,-6.1744609 C 5.202063,-6.3736797 5.202063,-6.4205547 5.0497188,-6.4205547 c -0.1289063,0 -0.1875,0.070312 -0.2578125,0.1875 z m 1.0898437,-1.2890625 1.8046875,-2.9648437 0.3398438,2.9648437 z m 0,0"
       style="fill:#000000;fill-opacity:1;fill-rule:nonzero;stroke:none"
       aria-label="A"
       transform="matrix(1.3333333,0,0,1.3333333,73.782667,79.869333)" />
    <path
       id="path7"
       d="M 42.5202,-42.5202 V -7.08669 H 63.7803 V -42.5202 Z"
       style="fill:none;stroke:#000000;stroke-width:0.49814;stroke-linecap:butt;stroke-linejoin:miter;stroke-miterlimit:10;stroke-dasharray:none;stroke-opacity:1"
       transform="matrix(1.3333333,0,0,-1.3333333,40.593333,66.336)" />
    <g
       id="g7"
       aria-label="P&#10;E"
       transform="matrix(1.3333333,0,0,1.3333333,103.60667,102.94933)">
      <path
         id="path8"
         d="m 3.0225391,-3.1524297 h 1.6875 c 1.4179687,0 2.8007812,-1.03125 2.8007812,-2.1445312 0,-0.7734375 -0.65625,-1.5117188 -1.96875,-1.5117188 H 2.3194141 c -0.1875,0 -0.2929688,0 -0.2929688,0.1992188 0,0.1171875 0.082031,0.1171875 0.28125,0.1171875 0.1289063,0 0.3164063,0.011719 0.4335938,0.011719 0.1523437,0.023437 0.2109375,0.058594 0.2109375,0.1640625 0,0.035156 0,0.070312 -0.035156,0.1875 l -1.3359375,5.35546876 c -0.09375,0.38671875 -0.1171875,0.46875 -0.90234374,0.46875 -0.17578125,0 -0.28125,0 -0.28125,0.1875 0,0.1171875025 0.1171875,0.1171875025 0.15234375,0.1171875025 0.28125,0 0.98437499,-0.0351562525 1.26562499,-0.0351562525 0.2109375,0 0.421875,0.01171875 0.6328125,0.01171875 0.2226563,0 0.4453125,0.0234375025 0.6445313,0.0234375025 0.070312,0 0.1992187,0 0.1992187,-0.1992187525 0,-0.10546875 -0.082031,-0.10546875 -0.2695312,-0.10546875 -0.375,0 -0.65625,0 -0.65625,-0.1875 0,-0.0585937 0.023437,-0.10546875 0.035156,-0.1640625 z m 0.7148437,-2.9648437 c 0.082031,-0.3515625 0.1054688,-0.375 0.5390625,-0.375 h 0.9492188 c 0.8320312,0 1.359375,0.2695312 1.359375,0.9492187 0,0.3984375 -0.1992188,1.2539063 -0.5859375,1.6054688 -0.5039063,0.4453125 -1.1015625,0.5273437 -1.5351563,0.5273437 h -1.40625 z m 0,0"
         style="fill:#000000;fill-opacity:1;fill-rule:nonzero;stroke:none" />
      <path
         id="path9"
         d="m 8.2461719,-1.0254766 c -1.21875,0.58593754 -1.5117188,1.44140629 -1.5117188,1.79296879 0,0.57421871 0.6210938,0.86718751 1.3242188,0.86718751 1.265625,0 2.2968751,-1.11328126 2.2968751,-1.25390626 0,-0.046875 -0.05859,-0.046875 -0.08203,-0.046875 -0.01172,0 -0.269532,0 -0.5507816,0.328125 -0.1757813,0.1875 -0.515625,0.55078126 -1.171875,0.55078126 -0.421875,0 -1.171875,-0.1640625 -1.171875,-0.76171876 0,-0.43359375 0.4335937,-1.32421875 1.6054687,-1.359375 0.1289063,0 0.2226563,-0.0117188 0.4101563,-0.11718754 0.070312,-0.058594 0.2226562,-0.1640625 0.2226562,-0.2578125 0,-0.046875 -0.058594,-0.058594 -0.070312,-0.058594 -1.0078125,-0.035156 -1.3476562,-0.3867188 -1.3476562,-0.7734375 0,-0.2929688 0.1640625,-0.5390625 0.3164062,-0.65625 0.2460938,-0.1640625 0.6445313,-0.2109375 0.8671875,-0.2109375 0.09375,0 0.28125,0.011719 0.46875,0.070312 0.082031,0.023437 0.2578129,0.082031 0.2578129,0.3046875 0,0.082031 -0.02344,0.1523437 -0.05859,0.2226562 -0.02344,0.023437 -0.04687,0.058594 -0.04687,0.082031 0,0.046875 0.05859,0.058594 0.09375,0.058594 0.199219,0 0.65625,-0.2578125 0.65625,-0.6796875 0,-0.3867187 -0.421875,-0.4804687 -0.8789054,-0.4804687 -1.1484375,0 -2.3203125,0.7734375 -2.3203125,1.6054687 0,0.4335938 0.3632813,0.6679688 0.6914063,0.7734375 z m 0,0"
         style="fill:#000000;fill-opacity:1;fill-rule:nonzero;stroke:none" />
    </g>
    <g
       id="g9"
       aria-label="r&#10;1"
       transform="matrix(1.3333333,0,0,1.3333333,54.242667,115.536)">
      <path
         id="path10"
         d="m 1.5582344,-2.1334453 c 0,-0.9960938 0.7265625,-1.7109375 1.6992187,-1.734375 v -0.6679688 c -0.890625,0.011719 -1.4296875,0.5039063 -1.7460937,0.9609375 V -4.4889141 H 0.81995313 V -6.328125e-4 H 1.5582344 Z m 0,0"
         style="fill:#000000;fill-opacity:1;fill-rule:nonzero;stroke:none" />
      <path
         id="path11"
         d="m 5.7359688,-2.9361797 c 0,-0.1875 -0.011719,-0.1992187 -0.2109375,-0.1992187 -0.4453125,0.4335937 -1.078125,0.4453125 -1.359375,0.4453125 v 0.2460937 c 0.1640625,0 0.6210937,0 1.0078125,-0.1875 v 3.55078126 c 0,0.23437504 0,0.32812504 -0.6914063,0.32812504 H 4.2125313 v 0.2460937 c 0.1289062,-0.011719 0.984375,-0.023437 1.2421875,-0.023437 0.2109375,0 1.0898437,0.011719 1.2421875,0.023437 V 1.2474141 H 6.4390938 c -0.703125,0 -0.703125,-0.09375 -0.703125,-0.32812504 z m 0,0"
         style="fill:#000000;fill-opacity:1;fill-rule:nonzero;stroke:none" />
    </g>
    <path
       id="path12"
       d="M 21.6299,-35.43349 H 42.5202"
       style="fill:none;stroke:#000000;stroke-width:0.49814;stroke-linecap:butt;stroke-linejoin:miter;stroke-miterlimit:10;stroke-dasharray:none;stroke-opacity:1"
       transform="matrix(1.3333333,0,0,-1.3333333,40.593333,66.336)" />
    <g
       id="g12"
       aria-label="r&#10;2"
       transform="matrix(1.3333333,0,0,1.3333333,139.28133,115.536)">
      <path
         id="path13"
         d="m 1.5585313,-2.1334453 c 0,-0.9960938 0.7265625,-1.7109375 1.6992187,-1.734375 v -0.6679688 c -0.890625,0.011719 -1.4296875,0.5039063 -1.7460937,0.9609375 V -4.4889141 H 0.82025 v 4.4882812875 h 0.7382813 z m 0,0"
         style="fill:#000000;fill-opacity:1;fill-rule:nonzero;stroke:none" />
      <path
         id="path14"
         d="m 6.9198594,0.22788281 h -0.234375 c -0.023437,0.15234375 -0.082031,0.5625 -0.1757813,0.6328125 -0.058594,0.0351563 -0.5976562,0.0351563 -0.6914062,0.0351563 H 4.5292344 c 0.7382812,-0.64453125 0.984375,-0.84375 1.3945312,-1.171875 0.515625,-0.41015625 0.9960938,-0.84374991 0.9960938,-1.49999991 0,-0.8437501 -0.7382813,-1.3593751 -1.6289063,-1.3593751 -0.8671875,0 -1.453125,0.609375 -1.453125,1.2421876 0,0.3632812 0.3046875,0.3984375 0.375,0.3984375 0.1640625,0 0.375,-0.1171875 0.375,-0.375 0,-0.1289063 -0.058594,-0.3632814 -0.421875,-0.3632814 0.2226563,-0.5039062 0.6914063,-0.65625 1.0195313,-0.65625 0.703125,0 1.0664062,0.5507813 1.0664062,1.1132813 0,0.609375 -0.4335937,1.08984376 -0.65625,1.33593751 l -1.6875,1.66406249 c -0.070312,0.058594 -0.070312,0.070312 -0.070312,0.2695312 h 2.8828125 z m 0,0"
         style="fill:#000000;fill-opacity:1;fill-rule:nonzero;stroke:none" />
    </g>
    <path
       id="path15"
       d="M 85.41023,-35.43349 H 99.21382"
       style="fill:none;stroke:#000000;stroke-width:0.49814;stroke-linecap:butt;stroke-linejoin:miter;stroke-miterlimit:10;stroke-dasharray:none;stroke-opacity:1"
       transform="matrix(1.3333333,0,0,-1.3333333,40.593333,66.336)" />
    <path
       id="path16"
       d="M 63.7803,-14.17339 H 99.2138"
       style="fill:none;stroke:#000000;stroke-width:0.49814;stroke-linecap:butt;stroke-linejoin:miter;stroke-miterlimit:10;stroke-dasharray:none;stroke-opacity:1"
       transform="matrix(1.3333333,0,0,-1.3333333,40.593333,66.336)" />
    <g
       id="g16"
       aria-label="¯&#10;A"
       transform="matrix(1.3333333,0,0,1.3333333,143.16533,77.685333)">
      <path
         id="path17"
         d="M 3.9599844,-5.0052109 V -5.3216172 H 0.63185938 v 0.3164063 z m 0,0"
         style="fill:#000000;fill-opacity:1;fill-rule:nonzero;stroke:none" />
      <path
         id="path18"
         d="m -0.80075781,1.2115859 c -0.43359379,0.7265625 -0.83203129,0.75 -1.19531249,0.7734375 -0.058594,0.011719 -0.1054688,0.082031 -0.1054688,0.1640625 0,0.058594 0.035156,0.1171875 0.1289063,0.1171875 0.1757812,0 0.5976562,-0.023437 0.7617187,-0.023437 0.1992188,0 0.67968754,0.023437 0.87890629,0.023437 0.0585938,0 0.17578125,0 0.17578125,-0.1640625 0,-0.1054687 -0.1171875,-0.1171875 -0.140625,-0.1171875 -0.0820313,0 -0.421875,-0.023437 -0.421875,-0.2929687 0,-0.1289063 0.10546875,-0.2929688 0.12890625,-0.3398438 l 0.703125,-1.16015621 H 2.4570547 c 0.023437,0.2109375 0.058594,0.515625 0.082031,0.73828125 0.035156,0.35156246 0.082031,0.74999996 0.082031,0.77343746 0,0.1289063 -0.1171875,0.28125 -0.6445313,0.28125 -0.082031,0 -0.1992187,0 -0.1992187,0.1640625 0,0.09375 0.070312,0.1171875 0.1289062,0.1171875 0.1757813,0 0.3867188,-0.023437 0.5625,-0.023437 0.1875,0 0.3984375,0 0.5390625,0 0.3046875,0 0.3164063,0 0.5273438,0 0.1523437,0.011719 0.3515625,0.023437 0.5039062,0.023437 0.046875,0 0.1640625,0 0.1640625,-0.1640625 0,-0.1171875 -0.09375,-0.1171875 -0.1992187,-0.1171875 -0.5390625,0 -0.5507813,-0.058594 -0.5742188,-0.3164062 l -0.6328125,-5.578125 c -0.023437,-0.1992188 -0.023437,-0.2460938 -0.1757812,-0.2460938 -0.1289063,0 -0.1875,0.070312 -0.2578125,0.1875 z M 0.28908594,-0.07747656 2.0937734,-3.0423203 2.4336172,-0.07747656 Z m 0,0"
         style="fill:#000000;fill-opacity:1;fill-rule:nonzero;stroke:none" />
    </g>
    <path
       id="path19"
       d="m 99.21382,-42.5202 v 35.43351 h 21.2601 V -42.5202 Z"
       style="fill:none;stroke:#000000;stroke-width:0.49814;stroke-linecap:butt;stroke-linejoin:miter;stroke-miterlimit:10;stroke-dasharray:none;stroke-opacity:1"
       transform="matrix(1.3333333,0,0,-1.3333333,40.593333,66.336)" />
    <g
       id="g19"
       aria-label="P&#10;N"
       transform="matrix(1.3333333,0,0,1.3333333,177.40533,102.94933)">
      <path
         id="path20"
         d="m 3.024125,-3.1524297 h 1.6875 c 1.4179688,0 2.8007813,-1.03125 2.8007813,-2.1445312 0,-0.7734375 -0.65625,-1.5117188 -1.96875,-1.5117188 H 2.321 c -0.1875,0 -0.2929687,0 -0.2929687,0.1992188 0,0.1171875 0.082031,0.1171875 0.28125,0.1171875 0.1289062,0 0.3164062,0.011719 0.4335937,0.011719 0.1523438,0.023437 0.2109375,0.058594 0.2109375,0.1640625 0,0.035156 0,0.070312 -0.035156,0.1875 L 1.582719,-0.77352314 c -0.09375,0.38671875 -0.1171875,0.46875 -0.9023438,0.46875 -0.17578125,0 -0.28125,0 -0.28125,0.1875 0,0.1171875025 0.1171875,0.1171875025 0.15234375,0.1171875025 0.28125,0 0.98437505,-0.0351562525 1.26562505,-0.0351562525 0.2109375,0 0.421875,0.01171875 0.6328125,0.01171875 0.2226562,0 0.4453125,0.0234375025 0.6445312,0.0234375025 0.070312,0 0.1992188,0 0.1992188,-0.1992187525 0,-0.10546875 -0.082031,-0.10546875 -0.2695313,-0.10546875 -0.375,0 -0.65625,0 -0.65625,-0.1875 0,-0.0585937 0.023437,-0.10546875 0.035156,-0.1640625 z m 0.7148438,-2.9648437 c 0.082031,-0.3515625 0.1054687,-0.375 0.5390625,-0.375 H 5.22725 c 0.8320313,0 1.359375,0.2695312 1.359375,0.9492187 0,0.3984375 -0.1992187,1.2539063 -0.5859375,1.6054688 -0.5039062,0.4453125 -1.1015625,0.5273437 -1.5351562,0.5273437 h -1.40625 z m 0,0"
         style="fill:#000000;fill-opacity:1;fill-rule:nonzero;stroke:none" />
      <path
         id="path21"
         d="m 8.7633828,-2.4317266 c 0.082031,0.234375 0.28125,0.75 0.5976563,1.51171879 0.5390625,1.23046875 0.8906249,1.91015625 1.4179689,2.55468751 0.04687,0.058594 0.08203,0.058594 0.105469,0.058594 0.152343,0 0.328125,-0.140625 0.339843,-0.140625 0.117188,-0.09375 0.128907,-0.1171875 0.199219,-0.4335937 0.46875,-2.07421876 1.019531,-3.9492188 1.125,-4.0898438 0.09375,-0.140625 0.421875,-0.2929687 1.089844,-0.2929687 0.140625,0 0.292969,-0.3632813 0.292969,-0.5625 0,-0.1289063 -0.03516,-0.1289063 -0.175782,-0.1289063 -0.75,0 -1.113281,0.28125 -1.265625,0.515625 -0.386718,0.609375 -1.019531,3.22265629 -1.335937,4.5117188 C 10.75557,0.53311719 10.486039,-0.05282031 10.298539,-0.43953906 9.9469766,-1.2012578 9.5719766,-2.0918828 9.1852578,-3.1582891 c -0.070312,-0.1992187 -0.070312,-0.2109375 -0.09375,-0.234375 -0.023437,-0.011719 -0.046875,-0.011719 -0.070312,-0.011719 -0.1054687,0 -0.2578125,0.070312 -0.3398437,0.140625 -0.140625,0.1054687 -0.140625,0.1523437 -0.1523438,0.2929687 -0.140625,1.78125 -0.8085937,3.53906254 -0.9726562,3.83203129 -0.058594,0.1171875 -0.1523438,0.29296871 -0.3398438,0.29296871 -0.011719,0 -0.3164062,0 -0.5976562,-0.19921871 -0.023437,-0.0234375 -0.023437,-0.0351563 -0.046875,-0.0351563 -0.1171875,0 -0.28125,0.36328131 -0.28125,0.56250001 0,0.070312 0.011719,0.1523438 0.2695312,0.2695313 0.1875,0.082031 0.3632813,0.09375 0.4335938,0.09375 0.515625,0 0.890625,-1.04296871 1.03125,-1.46484371 0.46875,-1.2890625 0.5976562,-2.07421869 0.7382807,-2.81249969 z m 0,0"
         style="fill:#000000;fill-opacity:1;fill-rule:nonzero;stroke:none" />
    </g>
    <path
       id="path22"
       d="m 120.47392,-14.17339 h 49.60692"
       style="fill:none;stroke:#000000;stroke-width:0.49814;stroke-linecap:butt;stroke-linejoin:miter;stroke-miterlimit:10;stroke-dasharray:none;stroke-opacity:1"
       transform="matrix(1.3333333,0,0,-1.3333333,40.593333,66.336)" />
    <path
       id="path23"
       d="m 120.47392,-35.43349 h 14.1734"
       style="fill:none;stroke:#000000;stroke-width:0.49814;stroke-linecap:butt;stroke-linejoin:miter;stroke-miterlimit:10;stroke-dasharray:none;stroke-opacity:1"
       transform="matrix(1.3333333,0,0,-1.3333333,40.593333,66.336)" />
    <path
       id="path24"
       d="M 126.1432,28.3468 V -51.02432"
       style="fill:none;stroke:#000000;stroke-width:0.49814;stroke-linecap:butt;stroke-linejoin:miter;stroke-miterlimit:10;stroke-dasharray:2.98883, 2.98883;stroke-dashoffset:0;stroke-opacity:1"
       transform="matrix(1.3333333,0,0,-1.3333333,40.593333,66.336)" />
    <path
       id="path25"
       d="m 131.10399,-42.5202 h 7.08668"
       style="fill:none;stroke:#000000;stroke-width:0.74721;stroke-linecap:butt;stroke-linejoin:miter;stroke-miterlimit:10;stroke-dasharray:none;stroke-opacity:1"
       transform="matrix(1.3333333,0,0,-1.3333333,40.593333,66.336)" />
    <path
       id="path26"
       d="m 132.59235,-45.35506 h 4.25185"
       style="fill:none;stroke:#000000;stroke-width:0.74721;stroke-linecap:butt;stroke-linejoin:miter;stroke-miterlimit:10;stroke-dasharray:none;stroke-opacity:1"
       transform="matrix(1.3333333,0,0,-1.3333333,40.593333,66.336)" />
    <path
       id="path27"
       d="m 134.64734,-35.43349 v -7.0867"
       style="fill:none;stroke:#000000;stroke-width:0.49814;stroke-linecap:butt;stroke-linejoin:miter;stroke-miterlimit:10;stroke-dasharray:none;stroke-opacity:1"
       transform="matrix(1.3333333,0,0,-1.3333333,40.593333,66.336)" />
    <path
       id="path28"
       d="m 170.08086,-42.5202 v 35.43351 h 21.2601 V -42.5202 Z"
       style="fill:none;stroke:#000000;stroke-width:0.49814;stroke-linecap:butt;stroke-linejoin:miter;stroke-miterlimit:10;stroke-dasharray:none;stroke-opacity:1"
       transform="matrix(1.3333333,0,0,-1.3333333,40.593333,66.336)" />
    <g
       id="g28"
       aria-label="P&#10;R"
       transform="matrix(1.3333333,0,0,1.3333333,272.38133,102.94933)">
      <path
         id="path29"
         d="m 3.0245469,-3.1524297 h 1.6875 c 1.4179687,0 2.8007812,-1.03125 2.8007812,-2.1445312 0,-0.7734375 -0.65625,-1.5117188 -1.96875,-1.5117188 H 2.3214219 c -0.1875,0 -0.2929688,0 -0.2929688,0.1992188 0,0.1171875 0.082031,0.1171875 0.28125,0.1171875 0.1289063,0 0.3164063,0.011719 0.4335938,0.011719 0.1523437,0.023437 0.2109375,0.058594 0.2109375,0.1640625 0,0.035156 0,0.070312 -0.035156,0.1875 l -1.3359375,5.35546876 c -0.09375,0.38671875 -0.1171875,0.46875 -0.90234373,0.46875 -0.17578125,0 -0.28125,0 -0.28125,0.1875 0,0.1171875025 0.1171875,0.1171875025 0.15234375,0.1171875025 0.28125,0 0.98437498,-0.0351562525 1.26562498,-0.0351562525 0.2109375,0 0.421875,0.01171875 0.6328125,0.01171875 0.2226563,0 0.4453125,0.0234375025 0.6445313,0.0234375025 0.070312,0 0.1992187,0 0.1992187,-0.1992187525 0,-0.10546875 -0.082031,-0.10546875 -0.2695312,-0.10546875 -0.375,0 -0.65625,0 -0.65625,-0.1875 0,-0.0585937 0.023437,-0.10546875 0.035156,-0.1640625 z m 0.7148437,-2.9648437 c 0.082031,-0.3515625 0.1054688,-0.375 0.5390625,-0.375 h 0.9492188 c 0.8320312,0 1.359375,0.2695312 1.359375,0.9492187 0,0.3984375 -0.1992188,1.2539063 -0.5859375,1.6054688 -0.5039063,0.4453125 -1.1015625,0.5273437 -1.5351563,0.5273437 h -1.40625 z m 0,0"
         style="fill:#000000;fill-opacity:1;fill-rule:nonzero;stroke:none" />
      <path
         id="path30"
         d="m 9.7716172,-2.8418828 c 1.4179688,0 1.7460938,0.2929687 1.7460938,0.75 0,0.5625 -0.421875,1.21874999 -1.6054688,1.25390624 -0.140625,0.0117188 -0.2226563,0.0117188 -0.4101563,0.1171875 -0.1171875,0.0703125 -0.234375,0.17578125 -0.234375,0.24609375 0,0.046875 0.023437,0.0585938 0.082031,0.0703125 0.3046875,0.046875 0.46875,0.234375 0.8789061,0.984375 0.375,0.70312501 0.597657,1.05468751 1.042969,1.05468751 0.902344,0 1.78125,-0.86718751 1.78125,-1.00781251 0,-0.0117188 0,-0.0585938 -0.08203,-0.0585938 -0.05859,0 -0.328125,0.0585938 -0.527344,0.29296875 -0.09375,0.10546875 -0.304687,0.35156246 -0.679687,0.35156246 -0.375,0 -0.621094,-0.48046871 -0.925782,-1.04296871 -0.269531,-0.48046875 -0.386718,-0.6328125 -0.46875,-0.73828125 1.230469,-0.421875 1.792969,-1.19531244 1.792969,-1.83984384 0,-0.8554686 -1.089844,-0.8554686 -2.4375001,-0.8554686 -0.8789063,0 -1.3007813,0 -1.921875,0.234375 -0.9257813,0.375 -1.1367188,0.984375 -1.1367188,1.0898437 0,0.058594 0.046875,0.070312 0.082031,0.070312 0.1054687,0 0.4804687,-0.140625 0.5742187,-0.3867187 0.082031,-0.28125 0.1757813,-0.5273439 1.3007813,-0.5859376 -0.1289063,1.89843754 -0.65625,3.31640629 -1.0546875,4.2656251 -0.058594,0.1289062 -0.058594,0.140625 -0.058594,0.1523437 0,0.046875 0.035156,0.058594 0.082031,0.058594 0.1523437,0 0.4453125,-0.1757813 0.5273437,-0.2929688 0.011719,-0.023437 0.9375,-1.91015626 1.125,-4.1835938 z m 0,0"
         style="fill:#000000;fill-opacity:1;fill-rule:nonzero;stroke:none" />
    </g>
    <g
       id="g30"
       aria-label="r&#10;3"
       transform="matrix(1.3333333,0,0,1.3333333,233.76933,115.536)">
      <path
         id="path31"
         d="m 1.5587422,-2.1334453 c 0,-0.9960938 0.7265625,-1.7109375 1.6992187,-1.734375 v -0.6679688 c -0.890625,0.011719 -1.4296875,0.5039063 -1.7460937,0.9609375 V -4.4889141 H 0.82046094 V -6.328125e-4 H 1.5587422 Z m 0,0"
         style="fill:#000000;fill-opacity:1;fill-rule:nonzero;stroke:none" />
      <path
         id="path32"
         d="m 5.3028828,-0.83852344 c 0.5507813,0 0.9375,0.375 0.9375,1.125 0,0.86718754 -0.5039062,1.12500004 -0.9023437,1.12500004 -0.28125,0 -0.890625,-0.082031 -1.1835938,-0.49218754 0.328125,-0.0117188 0.3984375,-0.24609375 0.3984375,-0.38671875 0,-0.22265625 -0.1640625,-0.38671875 -0.3867187,-0.38671875 -0.1875,0 -0.3867188,0.1171875 -0.3867188,0.41015625 0,0.65624999 0.7265625,1.07812499 1.5703125,1.07812499 0.9726563,0 1.640625,-0.64453124 1.640625,-1.34765624 0,-0.5390625 -0.4453125,-1.08984375 -1.21875,-1.2421875 0.7382813,-0.26953126 0.9960938,-0.79687496 0.9960938,-1.21874996 0,-0.5507813 -0.6328125,-0.9609375 -1.40625,-0.9609375 -0.7734375,0 -1.359375,0.375 -1.359375,0.9375 0,0.234375 0.1523437,0.3632812 0.3632812,0.3632812 0.2109375,0 0.3515625,-0.1640625 0.3515625,-0.3515625 0,-0.1992187 -0.140625,-0.3515625 -0.3515625,-0.3632812 0.234375,-0.3046875 0.7148438,-0.3867188 0.9726563,-0.3867188 0.3164062,0 0.7617187,0.1523438 0.7617187,0.7617188 0,0.2929687 -0.1054687,0.609375 -0.28125,0.8320312 -0.234375,0.2578125 -0.421875,0.28125 -0.7734375,0.2929688 -0.1757812,0.023437 -0.1875,0.023437 -0.2226562,0.023437 -0.011719,0 -0.070312,0.011719 -0.070312,0.09375 0,0.09375 0.058594,0.09375 0.1757812,0.09375 z m 0,0"
         style="fill:#000000;fill-opacity:1;fill-rule:nonzero;stroke:none" />
    </g>
    <path
       id="path33"
       d="m 156.27724,-35.43349 h 13.8036"
       style="fill:none;stroke:#000000;stroke-width:0.49814;stroke-linecap:butt;stroke-linejoin:miter;stroke-miterlimit:10;stroke-dasharray:none;stroke-opacity:1"
       transform="matrix(1.3333333,0,0,-1.3333333,40.593333,66.336)" />
    <path
       id="path34"
       d="m 191.34096,-14.17339 h 21.2601"
       style="fill:none;stroke:#000000;stroke-width:0.49814;stroke-linecap:butt;stroke-linejoin:miter;stroke-miterlimit:10;stroke-dasharray:none;stroke-opacity:1"
       transform="matrix(1.3333333,0,0,-1.3333333,40.593333,66.336)" />
    <path
       id="path35"
       d="m 191.34096,-35.43349 h 14.1734"
       style="fill:none;stroke:#000000;stroke-width:0.49814;stroke-linecap:butt;stroke-linejoin:miter;stroke-miterlimit:10;stroke-dasharray:none;stroke-opacity:1"
       transform="matrix(1.3333333,0,0,-1.3333333,40.593333,66.336)" />
    <path
       id="path36"
       d="m 201.971,-42.5202 h 7.0867"
       style="fill:none;stroke:#000000;stroke-width:0.74721;stroke-linecap:butt;stroke-linejoin:miter;stroke-miterlimit:10;stroke-dasharray:none;stroke-opacity:1"
       transform="matrix(1.3333333,0,0,-1.3333333,40.593333,66.336)" />
    <path
       id="path37"
       d="m 203.45937,-45.35506 h 4.25184"
       style="fill:none;stroke:#000000;stroke-width:0.74721;stroke-linecap:butt;stroke-linejoin:miter;stroke-miterlimit:10;stroke-dasharray:none;stroke-opacity:1"
       transform="matrix(1.3333333,0,0,-1.3333333,40.593333,66.336)" />
    <path
       id="path38"
       d="m 205.51436,-35.43349 v -7.0867"
       style="fill:none;stroke:#000000;stroke-width:0.49814;stroke-linecap:butt;stroke-linejoin:miter;stroke-miterlimit:10;stroke-dasharray:none;stroke-opacity:1"
       transform="matrix(1.3333333,0,0,-1.3333333,40.593333,66.336)" />
    <path
       id="path39"
       d="m 1.5944219,-0.45653906 c 0.3046875,0.29296875 0.75,0.5625 1.3476562,0.5625 0.9609375,0 1.8398438,-0.97265625 1.8398438,-2.33203124 0,-1.1953125 -0.6328125,-2.3085938 -1.5820313,-2.3085938 -0.5976562,0 -1.171875,0.2109375 -1.640625,0.5976563 V -4.4174766 H 0.82098438 V 1.9340859 H 1.5944219 Z m 0,-2.85937504 c 0.234375,-0.3515625 0.6328125,-0.5742187 1.0546875,-0.5742187 0.7617187,0 1.359375,0.75 1.359375,1.6640625 0,1.03125 -0.7148438,1.72265624 -1.453125,1.72265624 -0.3984375,0 -0.65625,-0.19921875 -0.8554688,-0.45703125 C 1.5944219,-1.1127891 1.5944219,-1.1362266 1.5944219,-1.3120078 Z m 0,0"
       style="fill:#000000;fill-opacity:1;fill-rule:nonzero;stroke:none"
       aria-label="p"
       transform="matrix(1.3333333,0,0,1.3333333,205.35067,16.972)" />
    <path
       id="path40"
       d="m 1.4647422,-0.67836719 c -0.082031,0.31640625 -0.1054688,0.3984375 -0.77343751,0.3984375 -0.17578125,0 -0.26953125,0 -0.26953125,0.1640625 0,0.1171875 0.09375,0.1171875 0.24609375,0.1171875 H 3.9373984 c 1.453125,0 2.5195313,-1.05468751 2.5195313,-1.92187501 0,-0.6445312 -0.5273438,-1.1835937 -1.4179688,-1.2773437 1.0195313,-0.1992188 1.8867188,-0.8789063 1.8867188,-1.6757813 0,-0.703125 -0.6445313,-1.2421875 -1.7109375,-1.2421875 H 2.1561484 c -0.1640625,0 -0.2695312,0 -0.2695312,0.1523438 0,0.1171875 0.082031,0.1171875 0.2695312,0.1171875 0.035156,0 0.1875,0 0.3398438,0.023437 0.1523437,0.011719 0.2109375,0.035156 0.2109375,0.1289062 0,0.046875 -0.011719,0.082031 -0.035156,0.1875 z M 2.8592734,-3.3033672 3.4100547,-5.4947734 c 0.082031,-0.3164063 0.09375,-0.3515625 0.46875,-0.3515625 h 1.21875 c 0.9257812,0 1.0078125,0.7148437 1.0078125,0.9375 0,0.796875 -0.8320313,1.6054687 -1.8515625,1.6054687 z m -0.4335937,3.02343751 c -0.1171875,0 -0.140625,0 -0.1757813,0 -0.09375,-0.0117188 -0.1171875,-0.0234375 -0.1171875,-0.0820313 0,-0.0351563 0,-0.046875 0.046875,-0.2109375 L 2.8006797,-3.0689922 h 1.6757812 c 0.5625,0 1.125,0.234375 1.125,1.0546875 0,0.890625 -0.8085937,1.73437501 -1.8867187,1.73437501 z m 0,0"
       style="fill:#000000;fill-opacity:1;fill-rule:nonzero;stroke:none"
       aria-label="B"
       transform="matrix(1.3333333,0,0,1.3333333,211.39467,79.869333)" />
    <path
       id="path41"
       d="m 2.8128516,-3.0360234 h 0.9140625 c 0.6445312,0 0.7734375,0.1171875 0.7734375,0.4101562 0,0.070312 -0.023437,0.2578125 -0.058594,0.3984375 -0.023437,0.058594 -0.035156,0.1054688 -0.035156,0.1289063 0,0.011719 0,0.1171875 0.1171875,0.1171875 0.1171875,0 0.1171875,-0.058594 0.1523437,-0.1992188 l 0.4804688,-1.8867187 c 0.035156,-0.1171875 0.035156,-0.140625 0.035156,-0.1757813 0,-0.070312 -0.058594,-0.1171875 -0.1289062,-0.1171875 -0.09375,0 -0.1054688,0.058594 -0.1523438,0.2226563 -0.1757812,0.7148437 -0.4570312,0.8320312 -1.171875,0.8320312 H 2.8831641 c 0.140625,-0.5625 0.5625,-2.2617187 0.609375,-2.3671875 0.046875,-0.1289062 0.1171875,-0.140625 0.4101562,-0.140625 h 1.3125 c 1.125,0 1.3710938,0.2578125 1.3710938,0.984375 0,0.28125 -0.046875,0.5507813 -0.046875,0.609375 0,0.082031 0.046875,0.140625 0.1289062,0.140625 0.1054688,0 0.1171875,-0.058594 0.140625,-0.2226562 l 0.1875,-1.6640625 c 0,-0.1289063 -0.09375,-0.1289063 -0.2578125,-0.1289063 H 2.1214453 c -0.1757812,0 -0.2695312,0 -0.2695312,0.1640625 0,0.1171875 0.082031,0.1171875 0.2695312,0.1171875 0.035156,0 0.1992188,0 0.3398438,0.011719 0.1992187,0.023437 0.2109375,0.058594 0.2109375,0.140625 0,0.035156 0,0.046875 -0.046875,0.2109375 l -1.1953125,4.76953121 c -0.070312,0.31640625 -0.09375,0.3984375 -0.76171879,0.3984375 -0.17578125,0 -0.26953125,0 -0.26953125,0.1640625 0,0.1171875025 0.0820313,0.1171875025 0.24609375,0.1171875025 H 5.3792578 c 0.1640625,0 0.1757813,0 0.2109375,-0.0234375025 0.023437,-0.0234375 0.035156,-0.03515625 0.082031,-0.15234375 0.1054687,-0.234375 0.8671875,-1.94531246 0.8671875,-2.01562496 0,-0.082031 -0.046875,-0.1171875 -0.1171875,-0.1171875 -0.070312,0 -0.082031,0 -0.1875,0.2109375 -0.5507813,1.25390621 -0.9140625,1.81640621 -2.4023438,1.81640621 H 2.4612891 c -0.1289063,0 -0.1523438,0 -0.1875,0 -0.082031,-0.0117188 -0.1171875,-0.0234375 -0.1171875,-0.0820313 0,-0.0351563 0,-0.046875 0.046875,-0.2109375 z m 0,0"
       style="fill:#000000;fill-opacity:1;fill-rule:nonzero;stroke:none"
       aria-label="E"
       transform="matrix(1.3333333,0,0,1.3333333,211.48,108.216)" />
    <g
       id="g41"
       aria-label="A&#10;′"
       transform="matrix(1.3333333,0,0,1.3333333,304.43333,80.538667)">
      <path
         id="path42"
         d="m 1.6291016,-1.0543906 c -0.4335938,0.72656247 -0.83203129,0.74999997 -1.19531254,0.77343747 -0.0585938,0.0117188 -0.10546875,0.0820313 -0.10546875,0.1640625 0,0.05859375 0.0351563,0.117187505 0.12890625,0.117187505 0.17578125,0 0.59765624,-0.023437505 0.76171874,-0.023437505 0.1992188,0 0.6796875,0.023437505 0.8789063,0.023437505 0.058594,0 0.1757812,0 0.1757812,-0.164062505 0,-0.10546875 -0.1171875,-0.1171875 -0.140625,-0.1171875 -0.082031,0 -0.421875,-0.0234375 -0.421875,-0.29296875 0,-0.12890625 0.1054688,-0.29296875 0.1289063,-0.33984375 l 0.703125,-1.16015627 h 2.34375 c 0.023437,0.2109375 0.058594,0.515625 0.082031,0.7382813 0.035156,0.35156247 0.082031,0.74999997 0.082031,0.77343747 0,0.12890625 -0.1171875,0.28125 -0.6445313,0.28125 -0.082031,0 -0.1992187,0 -0.1992187,0.1640625 0,0.09375 0.070312,0.117187505 0.1289062,0.117187505 0.1757813,0 0.3867188,-0.023437505 0.5625,-0.023437505 0.1875,0 0.3984375,0 0.5390625,0 0.3046875,0 0.3164063,0 0.5273438,0 0.1523437,0.01171875 0.3515625,0.023437505 0.5039062,0.023437505 0.046875,0 0.1640625,0 0.1640625,-0.164062505 0,-0.1171875 -0.09375,-0.1171875 -0.1992187,-0.1171875 -0.5390625,0 -0.5507813,-0.0585938 -0.5742188,-0.31640625 L 5.2267578,-6.1754844 c -0.023437,-0.1992187 -0.023437,-0.2460937 -0.1757812,-0.2460937 -0.1289063,0 -0.1875,0.070312 -0.2578125,0.1875 z m 1.0898437,-1.2890625 1.8046875,-2.9648438 0.3398438,2.9648438 z m 0,0"
         style="fill:#000000;fill-opacity:1;fill-rule:nonzero;stroke:none" />
      <path
         id="path43"
         d="m 8.7863281,-6.6207969 c 0.046875,-0.082031 0.058594,-0.1523437 0.058594,-0.1875 0,-0.1875 -0.1757813,-0.3398437 -0.3632813,-0.3398437 -0.2460937,0 -0.3164062,0.2109375 -0.3398437,0.2929687 l -0.8320313,2.5546875 c -0.011719,0.035156 -0.035156,0.082031 -0.035156,0.1054688 0,0.1054687 0.2460937,0.1523437 0.2460937,0.1523437 0.058594,0 0.082031,-0.046875 0.1054688,-0.1054687 z m 0,0"
         style="fill:#000000;fill-opacity:1;fill-rule:nonzero;stroke:none" />
    </g>
    <g
       id="g43"
       aria-label="corr&#10;′"
       transform="matrix(1.3333333,0,0,1.3333333,339.91467,71.329333)">
      <path
         id="path44"
         d="m 4.0893906,-4.1610625 c -0.5976562,-0.3398438 -0.9375,-0.4335938 -1.5351562,-0.4335938 -1.3945313,0 -2.19140627,1.2070313 -2.19140627,2.3789063 0,1.2421875 0.90234377,2.3203125 2.14453127,2.3203125 0.5390625,0 1.0898437,-0.140625 1.6289062,-0.50390625 L 4.0776719,-1.0673125 C 3.5620469,-0.668875 3.0229844,-0.52825 2.5190781,-0.52825 c -0.8203125,0 -1.3828125,-0.7148438 -1.3828125,-1.6992188 0,-0.7734375 0.3632813,-1.7226562 1.4179688,-1.7226562 0.5273437,0 0.8671875,0.070312 1.40625,0.4335937 z m 5.0126953,1.96875 c 0,-1.3359375 -0.9960937,-2.4023438 -2.1796875,-2.4023438 -1.2304687,0 -2.1914062,1.1015625 -2.1914062,2.4023438 0,1.3125 1.0078125,2.296875 2.1796875,2.296875 1.1953125,0 2.1914062,-1.0078125 2.1914062,-2.296875 z M 6.9106797,-0.52825 c -0.6914063,0 -1.40625,-0.5625 -1.40625,-1.7695313 0,-1.1953125 0.75,-1.6875 1.40625,-1.6875 0.6914062,0 1.40625,0.515625 1.40625,1.6875 0,1.1835938 -0.6679688,1.7695313 -1.40625,1.7695313 z m 3.7763673,-1.6054688 c 0,-0.9960937 0.726562,-1.7109375 1.699219,-1.734375 v -0.6679687 c -0.890625,0.011719 -1.429688,0.5039062 -1.746094,0.9609375 V -4.4891875 H 9.9487656 v 4.48828125 h 0.7382814 z m 3.404297,0 c 0,-0.9960937 0.726562,-1.7109375 1.699219,-1.734375 v -0.6679687 c -0.890625,0.011719 -1.429688,0.5039062 -1.746094,0.9609375 v -0.9140625 h -0.691406 v 4.48828125 h 0.738281 z m 0,0"
         style="fill:#000000;fill-opacity:1;fill-rule:nonzero;stroke:none" />
      <path
         id="path45"
         d="m 17.96732,-6.9091094 c 0.04687,-0.1171875 0.05859,-0.1757812 0.05859,-0.2226562 0,-0.2109375 -0.199219,-0.3867188 -0.410156,-0.3867188 -0.269531,0 -0.351563,0.2226563 -0.386719,0.328125 l -0.914062,3.0234375 c -0.01172,0.011719 -0.03516,0.1054688 -0.03516,0.1171875 0,0.082031 0.210938,0.1523438 0.269532,0.1523438 0.04687,0 0.05859,-0.023437 0.105468,-0.1289063 z m 0,0"
         style="fill:#000000;fill-opacity:1;fill-rule:nonzero;stroke:none" />
    </g>
    <path
       id="path46"
       d="m 216.7638,13.99518 c 1.19555,-0.59775 1.68315,-1.81435 1.68315,-3.8069 0,-0.52603 0.79701,-0.52603 0.79701,0 0,1.99255 -1.10642,3.56558 -2.30196,4.16333 -0.23526,0.11761 -0.41345,-0.23881 -0.1782,-0.35643"
       style="fill:#000000;fill-opacity:1;fill-rule:nonzero;stroke:none"
       transform="matrix(1.3333333,0,0,-1.3333333,40.593333,66.336)" />
    <path
       id="path47"
       d="m 220.92711,0.1782 c -1.19554,0.59774 -1.68315,1.81435 -1.68315,3.8069 0,0.52604 -0.79701,0.52604 -0.79701,0 0,-1.99255 1.10641,-3.56557 2.30195,-4.1633 0.23526,-0.11762 0.41345,0.2388 0.17821,0.3564"
       style="fill:#000000;fill-opacity:1;fill-rule:nonzero;stroke:none"
       transform="matrix(1.3333333,0,0,-1.3333333,40.593333,66.336)" />
    <path
       id="path48"
       d="M 218.84546,10.18828 V 3.9851"
       style="fill:none;stroke:#000000;stroke-width:0.79701;stroke-linecap:butt;stroke-linejoin:miter;stroke-miterlimit:10;stroke-dasharray:none;stroke-opacity:1"
       transform="matrix(1.3333333,0,0,-1.3333333,40.593333,66.336)" />
    <path
       id="path49"
       d="m 220.7489,0.1782 c -1.19554,-0.59773 -2.30195,-2.17075 -2.30195,-4.1633 0,-0.52604 0.79701,-0.52604 0.79701,0 0,1.99255 0.48761,3.20916 1.68315,3.8069 0.23524,0.1176 0.0571,0.47402 -0.17821,0.3564"
       style="fill:#000000;fill-opacity:1;fill-rule:nonzero;stroke:none"
       transform="matrix(1.3333333,0,0,-1.3333333,40.593333,66.336)" />
    <path
       id="path50"
       d="m 216.942,-14.35161 c 1.19554,0.59775 2.30196,2.17078 2.30196,4.16333 0,0.52603 -0.79701,0.52603 -0.79701,0 0,-1.99255 -0.4876,-3.20915 -1.68315,-3.8069 -0.23525,-0.11762 -0.0571,-0.47404 0.1782,-0.35643"
       style="fill:#000000;fill-opacity:1;fill-rule:nonzero;stroke:none"
       transform="matrix(1.3333333,0,0,-1.3333333,40.593333,66.336)" />
    <path
       id="path51"
       d="m 218.84546,-3.9851 v -6.20318"
       style="fill:none;stroke:#000000;stroke-width:0.79701;stroke-linecap:butt;stroke-linejoin:miter;stroke-miterlimit:10;stroke-dasharray:none;stroke-opacity:1"
       transform="matrix(1.3333333,0,0,-1.3333333,40.593333,66.336)" />
  </g>
</svg>
